<?xml version="1.0" encoding="UTF-8" standalone="no"?>
<svg xmlns="http://www.w3.org/2000/svg" version="1.2" baseProfile="tiny" viewBox="0 0 1080 322">
<g stroke-width="2.00" fill="none" stroke-linecap="butt">
<path stroke="#808080" vector-effect="non-scaling-stroke" d="
  M 195.69 66.94
  Q 184.36 80.43 185.40 97.07
  A 0.54 0.52 -1.7 0 0 185.94 97.56
  Q 200.89 97.48 211.66 87.16
  Q 226.99 72.48 226.01 51.28
  A 0.60 0.60 84.4 0 0 225.32 50.71
  Q 207.19 53.24 195.69 66.94"
/>
<path stroke="#808080" vector-effect="non-scaling-stroke" d="
  M 568.76 53.76
  A 0.26 0.26 0.0 0 0 568.50 53.50
  L 560.76 53.50
  A 0.26 0.26 0.0 0 0 560.50 53.76
  L 560.50 108.24
  A 0.26 0.26 0.0 0 0 560.76 108.50
  L 568.50 108.50
  A 0.26 0.26 0.0 0 0 568.76 108.24
  L 568.76 53.76"
/>
<path stroke="#808080" vector-effect="non-scaling-stroke" d="
  M 697.08 74.34
  Q 690.78 68.22 683.06 70.36
  Q 678.84 71.52 675.71 74.91
  Q 672.57 78.30 671.32 82.72
  Q 669.84 87.94 670.47 93.84
  Q 671.13 100.05 675.06 104.44
  Q 679.70 109.60 686.75 109.38
  Q 693.22 109.17 697.96 103.38
  Q 698.30 102.97 698.35 103.49
  L 698.79 107.94
  A 0.58 0.50 86.5 0 0 699.31 108.47
  L 705.82 108.36
  A 0.55 0.49 89.5 0 0 706.30 107.81
  L 706.01 54.66
  A 1.07 0.96 89.2 0 0 705.03 53.60
  L 698.05 53.73
  A 0.54 0.47 87.8 0 0 697.59 54.30
  Q 698.09 64.25 697.47 74.19
  Q 697.44 74.68 697.08 74.34"
/>
<path stroke="#808080" vector-effect="non-scaling-stroke" d="
  M 899.56 75.70
  L 899.50 54.06
  A 0.56 0.55 90.0 0 0 898.95 53.50
  L 891.76 53.50
  A 0.51 0.51 89.6 0 0 891.25 54.01
  L 891.31 107.94
  A 0.52 0.51 90.0 0 0 891.82 108.46
  L 898.93 108.45
  A 0.52 0.51 -90.0 0 0 899.44 107.93
  Q 899.55 96.97 899.50 86.00
  Q 899.47 79.45 904.91 77.61
  Q 907.83 76.62 910.60 77.56
  Q 913.93 78.70 915.00 81.91
  Q 915.46 83.28 915.66 89.64
  Q 915.94 98.70 915.50 107.80
  A 0.66 0.66 -88.4 0 0 916.16 108.50
  L 923.34 108.50
  A 0.65 0.64 0.4 0 0 923.99 107.87
  Q 924.18 95.25 923.62 83.51
  Q 923.24 75.39 917.41 71.84
  Q 913.11 69.22 908.24 70.12
  Q 903.10 71.07 899.84 75.78
  Q 899.56 76.18 899.56 75.70"
/>
<path stroke="#808080" vector-effect="non-scaling-stroke" d="
  M 386.61 99.35
  Q 388.56 97.16 389.67 94.43
  Q 392.61 87.22 392.30 79.74
  Q 391.95 71.53 388.14 65.89
  Q 384.95 61.18 379.64 58.73
  Q 375.63 56.88 369.13 56.28
  Q 360.18 55.46 350.39 56.96
  A 0.76 0.76 85.6 0 0 349.75 57.71
  L 349.75 107.63
  A 0.58 0.57 3.4 0 0 350.26 108.20
  Q 359.12 109.15 367.51 108.59
  Q 379.04 107.84 386.61 99.35"
/>
<path stroke="#808080" vector-effect="non-scaling-stroke" d="
  M 871.06 77.05
  L 878.98 77.01
  A 0.53 0.51 -0.6 0 0 879.50 76.50
  L 879.50 71.28
  A 0.85 0.79 -0.0 0 0 878.65 70.49
  L 871.00 70.52
  A 0.73 0.70 89.6 0 1 870.30 69.80
  L 870.25 61.99
  A 0.41 0.41 -8.1 0 0 869.73 61.60
  L 862.88 63.53
  A 1.20 1.20 -7.4 0 0 862.00 64.67
  L 861.96 69.93
  A 0.57 0.55 88.9 0 1 861.44 70.49
  L 857.18 70.69
  A 0.57 0.49 -0.7 0 0 856.63 71.17
  L 856.53 76.44
  A 0.53 0.51 0.5 0 0 857.06 76.96
  L 861.11 76.99
  A 0.92 0.90 0.6 0 1 862.02 77.90
  Q 861.82 88.26 862.41 97.74
  Q 863.34 112.43 878.39 108.48
  A 1.03 1.02 -9.8 0 0 879.15 107.41
  L 878.80 102.86
  A 0.76 0.76 -4.8 0 0 877.97 102.16
  Q 872.51 102.65 871.04 99.36
  Q 870.55 98.28 870.32 93.08
  Q 869.98 85.32 870.53 77.56
  A 0.54 0.53 -88.3 0 1 871.06 77.05"
/>
<path stroke="#808080" vector-effect="non-scaling-stroke" d="
  M 520.47 75.69
  L 520.01 71.52
  A 1.18 1.08 85.2 0 0 518.86 70.46
  L 513.06 70.79
  A 0.51 0.51 -2.3 0 0 512.58 71.31
  L 512.82 107.68
  A 0.58 0.50 -89.0 0 0 513.30 108.26
  L 520.70 108.47
  A 0.53 0.47 -89.0 0 0 521.19 107.94
  Q 521.30 96.59 521.44 85.25
  Q 521.52 78.77 527.06 77.31
  Q 532.81 75.80 535.48 79.72
  Q 536.98 81.93 537.13 87.11
  Q 537.40 96.98 537.23 107.66
  A 0.79 0.74 -90.0 0 0 537.98 108.46
  L 545.07 108.36
  A 0.55 0.50 89.5 0 0 545.56 107.81
  Q 545.46 97.16 545.63 86.50
  Q 545.74 80.13 542.69 75.31
  Q 538.77 69.12 531.00 69.96
  Q 524.56 70.66 520.85 75.79
  Q 520.53 76.23 520.47 75.69"
/>
<path stroke="#808080" vector-effect="non-scaling-stroke" d="
  M 797.82 75.70
  L 797.31 71.05
  A 0.61 0.51 -3.7 0 0 796.69 70.60
  L 790.75 70.76
  A 0.50 0.48 -1.2 0 0 790.26 71.25
  L 790.56 107.93
  A 0.53 0.50 89.4 0 0 791.06 108.45
  L 798.20 108.50
  A 0.56 0.55 -90.0 0 0 798.75 107.94
  Q 798.75 98.53 798.75 89.58
  Q 798.75 83.81 799.76 81.55
  Q 801.84 76.86 807.70 77.10
  Q 809.97 77.20 811.47 78.21
  Q 813.27 79.42 814.00 81.50
  Q 815.09 84.63 814.99 88.76
  Q 814.75 98.25 814.75 107.98
  A 0.52 0.52 90.0 0 0 815.27 108.50
  L 822.57 108.50
  A 0.67 0.67 -89.6 0 0 823.24 107.84
  Q 823.39 96.35 823.07 85.56
  Q 823.00 83.20 822.65 81.47
  Q 822.17 78.99 821.50 77.50
  Q 817.89 69.44 809.56 69.81
  Q 802.89 70.11 798.13 75.80
  Q 797.87 76.11 797.82 75.70"
/>
<path stroke="#808080" vector-effect="non-scaling-stroke" d="
  M 969.13 91.09
  Q 969.99 85.20 968.30 80.28
  Q 966.45 74.92 961.97 72.09
  Q 956.26 68.49 948.73 70.84
  Q 942.42 72.80 939.31 78.31
  Q 935.24 85.53 936.36 93.45
  Q 937.17 99.14 940.15 102.87
  Q 943.61 107.20 949.44 108.31
  Q 957.91 109.92 966.97 107.09
  A 0.59 0.56 -14.6 0 0 967.37 106.45
  L 966.39 101.54
  A 0.50 0.48 -13.7 0 0 965.77 101.18
  Q 960.38 102.75 955.25 102.57
  Q 945.66 102.24 944.02 92.71
  A 0.83 0.82 -4.7 0 1 944.84 91.75
  L 968.36 91.75
  A 0.78 0.78 4.3 0 0 969.13 91.09"
/>
<path stroke="#808080" vector-effect="non-scaling-stroke" d="
  M 648.94 84.16
  Q 641.76 83.89 635.54 86.85
  Q 631.42 88.82 629.48 91.86
  Q 627.06 95.63 627.89 100.05
  Q 628.77 104.69 632.44 107.26
  Q 636.25 109.92 641.50 109.25
  Q 646.54 108.61 649.86 104.70
  Q 650.21 104.30 650.34 104.79
  L 651.20 107.95
  A 0.68 0.63 81.6 0 0 651.82 108.45
  L 658.16 108.49
  A 0.47 0.46 87.2 0 0 658.62 107.97
  Q 657.80 100.24 657.96 93.00
  Q 658.17 83.43 657.50 80.50
  Q 655.19 70.41 644.50 70.00
  Q 637.09 69.71 630.95 72.77
  A 0.62 0.59 -21.4 0 0 630.62 73.48
  L 631.89 77.96
  A 0.45 0.44 -21.6 0 0 632.51 78.22
  Q 635.74 76.59 639.09 76.04
  Q 643.18 75.36 645.83 76.53
  Q 649.81 78.28 649.48 83.69
  A 0.52 0.50 2.9 0 1 648.94 84.16"
/>
<path stroke="#808080" vector-effect="non-scaling-stroke" d="
  M 419.3444 109.4793
  A 19.80 18.50 94.1 0 0 439.2127 91.0527
  A 19.80 18.50 94.1 0 0 422.1756 69.9807
  A 19.80 18.50 94.1 0 0 402.3073 88.4073
  A 19.80 18.50 94.1 0 0 419.3444 109.4793"
/>
<path stroke="#808080" vector-effect="non-scaling-stroke" d="
  M 585.47 76.96
  Q 581.69 81.62 581.44 88.94
  Q 581.21 95.65 584.02 100.64
  Q 586.93 105.81 592.54 108.11
  Q 597.12 109.99 602.14 109.18
  Q 606.82 108.43 610.67 105.41
  Q 618.83 99.02 617.68 87.26
  Q 616.60 76.21 607.98 72.08
  Q 602.24 69.33 596.24 70.39
  Q 589.90 71.51 585.47 76.96"
/>
<path stroke="#808080" vector-effect="non-scaling-stroke" d="
  M 745.46 76.95
  Q 741.69 81.62 741.44 88.94
  Q 741.21 95.65 744.02 100.64
  Q 746.92 105.80 752.54 108.11
  Q 757.33 110.08 762.53 109.11
  Q 767.60 108.16 771.28 105.04
  Q 775.82 101.19 777.25 94.75
  Q 779.68 83.79 773.16 76.11
  Q 770.94 73.49 768.23 72.10
  Q 765.34 70.61 762.00 70.26
  Q 751.75 69.17 745.46 76.95"
/>
<path stroke="#808080" vector-effect="non-scaling-stroke" d="
  M 462.81 99.70
  L 456.44 72.31
  Q 456.08 70.76 453.75 70.75
  L 448.19 70.73
  A 0.40 0.37 81.1 0 0 447.85 71.24
  L 458.69 107.92
  A 0.81 0.81 -8.1 0 0 459.47 108.50
  L 466.25 108.50
  A 0.67 0.67 -32.1 0 0 466.89 108.02
  L 474.34 81.98
  Q 474.81 80.30 475.27 81.99
  L 482.30 107.84
  A 0.71 0.65 82.3 0 0 482.93 108.36
  L 489.94 108.47
  A 0.71 0.65 -81.1 0 0 490.58 107.96
  L 501.67 71.45
  A 0.63 0.61 7.9 0 0 501.06 70.66
  L 494.44 70.75
  A 0.67 0.66 7.0 0 0 493.81 71.24
  L 486.81 98.83
  Q 486.32 100.74 485.81 98.82
  L 478.45 71.16
  A 0.66 0.66 -7.4 0 0 477.81 70.67
  L 472.18 70.67
  A 0.68 0.65 -81.7 0 0 471.55 71.16
  L 463.08 99.70
  Q 462.93 100.21 462.81 99.70"
/>
<path stroke="#808080" vector-effect="non-scaling-stroke" d="
  M 184.56 109.19
  Q 179.94 108.27 172.68 105.43
  Q 164.26 102.14 160.93 101.47
  Q 153.76 100.05 147.00 101.00
  Q 132.47 103.04 121.86 112.49
  Q 114.91 118.68 109.92 128.39
  Q 100.58 146.58 102.50 167.75
  Q 105.43 200.05 122.81 227.89
  Q 128.70 237.32 136.59 245.16
  Q 140.37 248.92 145.69 252.06
  Q 152.04 255.82 159.08 254.68
  Q 164.85 253.75 168.44 251.94
  Q 188.30 241.92 208.49 251.20
  Q 215.25 254.30 222.00 254.50
  Q 229.19 254.71 235.48 250.50
  Q 241.70 246.34 245.19 242.19
  Q 260.44 224.05 268.19 201.19
  A 0.73 0.72 22.2 0 0 267.81 200.30
  Q 245.85 190.02 241.73 166.21
  Q 240.06 156.51 241.81 149.56
  Q 246.56 130.74 262.64 120.62
  A 0.59 0.58 -35.4 0 0 262.79 119.76
  Q 251.43 105.38 234.64 101.29
  Q 227.59 99.57 220.63 100.02
  Q 213.52 100.47 206.70 102.97
  Q 201.56 104.86 196.41 106.73
  Q 196.33 106.76 193.25 108.00
  Q 188.40 109.95 184.56 109.19"
/>
<path stroke="#808080" vector-effect="non-scaling-stroke" d="
  M 647.18 156.43
  Q 642.69 161.21 641.25 166.75
  Q 637.60 180.81 645.62 190.98
  Q 649.41 195.78 656.99 200.23
  Q 663.37 203.98 670.43 206.46
  Q 677.91 209.09 681.19 212.06
  Q 688.36 218.59 686.88 227.10
  Q 685.88 232.84 681.26 236.42
  Q 676.24 240.30 669.25 240.58
  Q 655.19 241.14 643.08 234.20
  A 0.52 0.51 23.3 0 0 642.33 234.49
  L 638.55 247.45
  A 0.67 0.65 23.0 0 0 638.87 248.20
  Q 645.13 251.61 651.75 253.05
  Q 657.97 254.40 665.30 254.51
  Q 675.05 254.65 684.41 251.35
  Q 696.22 247.19 701.25 237.00
  Q 705.47 228.46 704.08 219.12
  Q 702.95 211.48 698.17 205.42
  Q 693.40 199.37 686.15 195.77
  Q 680.69 193.06 675.03 190.77
  Q 669.39 188.50 664.31 185.20
  Q 658.12 181.19 657.43 174.83
  Q 656.77 168.78 660.98 164.23
  Q 665.25 159.62 672.49 159.16
  Q 684.36 158.40 695.51 163.65
  A 0.45 0.45 -68.2 0 0 696.13 163.38
  L 700.23 150.81
  A 0.74 0.73 -69.7 0 0 699.82 149.90
  Q 682.97 142.82 665.51 146.29
  Q 654.68 148.44 647.18 156.43"
/>
<path stroke="#808080" vector-effect="non-scaling-stroke" d="
  M 373.60 146.93
  L 339.28 252.67
  A 0.25 0.24 -80.6 0 0 339.51 253.00
  L 355.97 253.00
  A 1.09 1.08 -81.2 0 0 357.00 252.24
  L 366.29 222.41
  A 0.68 0.68 -81.3 0 1 366.94 221.93
  L 400.44 221.76
  A 1.04 1.02 81.1 0 1 401.42 222.49
  L 410.67 252.47
  A 0.68 0.67 81.1 0 0 411.31 252.95
  L 428.71 252.94
  A 0.32 0.31 81.0 0 0 429.00 252.53
  L 394.90 147.22
  A 0.68 0.67 -8.9 0 0 394.26 146.76
  L 374.11 146.57
  A 0.54 0.53 9.0 0 0 373.60 146.93"
/>
<path stroke="#808080" vector-effect="non-scaling-stroke" d="
  M 742.06 175.70
  L 742.00 157.68
  A 0.48 0.47 81.2 0 0 741.38 157.22
  L 726.00 162.00
  A 1.08 1.08 81.2 0 0 725.25 163.03
  L 725.25 175.73
  A 0.52 0.52 -90.0 0 1 724.73 176.25
  L 714.80 176.25
  A 0.80 0.80 -89.9 0 0 714.00 177.05
  L 714.00 188.46
  A 0.56 0.55 0.5 0 0 714.55 189.01
  L 724.68 189.05
  A 0.52 0.51 -90.0 0 1 725.19 189.57
  Q 725.30 206.66 725.19 223.75
  Q 725.13 233.37 726.25 238.25
  Q 729.98 254.42 745.72 254.47
  Q 749.06 254.48 752.41 254.16
  Q 755.91 253.83 758.99 252.76
  A 1.05 0.95 -11.1 0 0 759.70 251.81
  L 759.37 240.44
  A 0.46 0.44 -5.6 0 0 758.83 240.02
  Q 751.81 241.15 749.75 240.50
  Q 743.20 238.42 742.36 231.52
  Q 742.01 228.65 742.01 225.75
  Q 742.00 208.00 742.00 189.56
  A 0.56 0.56 89.8 0 1 742.56 189.00
  L 759.95 189.00
  A 0.80 0.80 -89.9 0 0 760.75 188.20
  L 760.75 176.92
  A 0.67 0.67 90.0 0 0 760.08 176.25
  L 742.56 176.19
  A 0.50 0.49 0.0 0 1 742.06 175.70"
/>
<path stroke="#808080" vector-effect="non-scaling-stroke" d="
  M 780.53 186.77
  Q 773.70 194.32 771.50 205.50
  Q 768.45 221.03 774.40 233.90
  Q 778.84 243.50 787.14 248.93
  Q 795.99 254.72 807.25 254.75
  Q 820.26 254.79 829.98 247.57
  Q 837.79 241.78 842.01 231.95
  Q 847.12 220.07 845.02 207.16
  Q 843.30 196.53 837.65 188.79
  Q 831.22 179.99 820.78 176.51
  Q 810.96 173.24 801.03 175.05
  Q 789.18 177.22 780.53 186.77"
/>
<path stroke="#808080" vector-effect="non-scaling-stroke" d="
  M 459.27 188.12
  L 458.50 177.13
  A 0.94 0.88 87.9 0 0 457.62 176.25
  L 443.81 176.31
  A 0.49 0.49 89.4 0 0 443.32 176.81
  Q 443.40 182.55 443.68 188.28
  Q 444.00 195.01 444.00 199.74
  Q 444.00 241.07 444.00 283.44
  A 0.81 0.81 0.0 0 0 444.81 284.25
  L 460.48 284.25
  A 0.80 0.78 -89.6 0 0 461.26 283.46
  L 461.49 245.00
  Q 461.49 244.50 461.81 244.89
  Q 469.54 254.28 482.00 254.46
  Q 495.53 254.66 504.37 246.65
  Q 511.09 240.57 514.72 229.81
  Q 520.47 212.81 513.57 194.85
  Q 509.87 185.21 502.69 180.06
  Q 491.58 172.10 477.23 175.67
  Q 466.56 178.32 459.68 188.22
  Q 459.32 188.75 459.27 188.12"
/>
<path stroke="#808080" vector-effect="non-scaling-stroke" d="
  M 547.54 188.12
  L 546.78 177.14
  A 0.93 0.92 88.0 0 0 545.86 176.27
  L 532.19 176.41
  A 0.50 0.49 88.3 0 0 531.71 176.93
  Q 531.92 183.04 532.20 189.15
  Q 532.50 195.64 532.50 201.36
  Q 532.50 242.23 532.50 283.69
  A 0.56 0.55 90.0 0 0 533.05 284.25
  L 548.93 284.19
  A 0.51 0.50 -0.0 0 0 549.44 283.69
  L 549.56 244.80
  Q 549.57 243.57 550.23 244.61
  Q 553.20 249.21 558.56 251.70
  Q 566.63 255.43 575.51 254.32
  Q 584.52 253.20 591.17 248.00
  Q 597.17 243.32 601.00 235.08
  Q 606.78 222.64 605.25 207.25
  Q 603.90 193.64 596.06 184.69
  Q 587.94 175.41 575.50 174.82
  Q 558.15 173.99 548.00 188.25
  Q 547.59 188.83 547.54 188.12"
/>
<path stroke="#808080" vector-effect="non-scaling-stroke" d="
  M 875.54 190.70
  L 874.61 176.94
  A 0.57 0.55 87.8 0 0 874.06 176.41
  L 860.69 176.40
  A 0.53 0.50 -90.0 0 0 860.19 176.93
  L 860.50 252.35
  A 0.65 0.64 90.0 0 0 861.14 253.00
  L 877.00 253.00
  A 0.51 0.51 0.0 0 0 877.51 252.49
  Q 877.32 230.37 877.75 209.25
  Q 877.90 201.78 882.95 196.17
  Q 886.18 192.59 890.53 191.32
  Q 895.10 189.99 899.89 190.93
  A 0.71 0.70 5.4 0 0 900.74 190.24
  L 900.69 175.56
  A 0.58 0.57 4.0 0 0 900.19 174.99
  Q 887.73 173.34 880.06 183.06
  Q 878.62 184.89 875.78 190.73
  Q 875.57 191.17 875.54 190.70"
/>
<path stroke="#808080" vector-effect="non-scaling-stroke" d="
  M 926.32 218.56
  L 976.03 218.50
  A 0.63 0.62 -86.9 0 0 976.65 217.94
  Q 977.69 208.16 975.87 199.47
  Q 974.15 191.21 969.06 185.13
  Q 964.07 179.15 956.44 176.50
  Q 947.46 173.37 937.49 175.45
  Q 923.23 178.42 916.31 190.06
  Q 905.75 207.84 910.72 227.03
  Q 913.53 237.83 920.06 244.42
  Q 928.76 253.20 942.50 254.20
  Q 957.74 255.31 972.19 250.02
  A 0.62 0.57 -16.9 0 0 972.59 249.34
  L 970.32 238.54
  A 0.49 0.45 -15.1 0 0 969.70 238.22
  Q 957.62 242.17 946.75 241.25
  Q 926.52 239.54 925.83 219.07
  A 0.49 0.49 88.9 0 1 926.32 218.56"
/>
<path stroke="#808080" vector-effect="non-scaling-stroke" d="
  M 679.81 83.55
  Q 677.30 89.45 679.88 96.08
  Q 681.71 100.80 685.87 102.05
  Q 689.81 103.25 693.35 100.98
  Q 696.71 98.83 697.36 94.58
  Q 697.68 92.46 697.70 88.92
  Q 697.71 86.02 696.92 83.27
  Q 695.88 79.68 693.02 77.90
  Q 688.81 75.29 684.66 77.76
  Q 681.46 79.66 679.81 83.55"
/>
<path stroke="#808080" vector-effect="non-scaling-stroke" d="
  M 379.56 95.31
  Q 382.96 90.42 383.43 84.56
  Q 383.93 78.31 382.43 73.51
  Q 380.97 68.85 376.94 66.06
  Q 373.66 63.79 368.63 63.06
  Q 363.68 62.35 358.27 63.10
  A 0.59 0.58 -4.4 0 0 357.76 63.69
  L 357.93 101.32
  A 0.57 0.55 3.5 0 0 358.43 101.87
  Q 365.98 102.71 371.50 101.00
  Q 376.75 99.38 379.56 95.31"
/>
<path stroke="#808080" vector-effect="non-scaling-stroke" d="
  M 946.69 79.19
  Q 944.51 81.94 944.33 85.19
  A 0.49 0.48 1.7 0 0 944.82 85.70
  L 960.94 85.70
  A 0.54 0.53 -88.9 0 0 961.47 85.18
  Q 961.71 79.66 957.71 77.19
  Q 955.01 75.52 952.05 75.94
  Q 948.90 76.39 946.69 79.19"
/>
<path stroke="#808080" vector-effect="non-scaling-stroke" d="
  M 636.42 95.36
  Q 635.52 97.73 636.56 99.94
  Q 638.88 104.84 644.62 102.73
  Q 649.10 101.09 649.75 96.00
  Q 650.17 92.69 649.84 90.50
  A 0.72 0.71 0.6 0 0 649.26 89.91
  Q 643.53 88.95 639.13 92.05
  Q 637.13 93.46 636.42 95.36"
/>
<path stroke="#808080" vector-effect="non-scaling-stroke" d="
  M 420.3010 103.3565
  A 13.62 9.79 91.3 0 0 430.3975 89.9621
  A 13.62 9.79 91.3 0 0 420.9190 76.1235
  A 13.62 9.79 91.3 0 0 410.8225 89.5179
  A 13.62 9.79 91.3 0 0 420.3010 103.3565"
/>
<path stroke="#808080" vector-effect="non-scaling-stroke" d="
  M 599.0946 103.3570
  A 13.63 9.80 91.2 0 0 609.1779 89.9352
  A 13.63 9.80 91.2 0 0 599.6654 76.1030
  A 13.63 9.80 91.2 0 0 589.5821 89.5248
  A 13.63 9.80 91.2 0 0 599.0946 103.3570"
/>
<path stroke="#808080" vector-effect="non-scaling-stroke" d="
  M 759.0808 103.3565
  A 13.63 9.80 91.3 0 0 769.1875 89.9523
  A 13.63 9.80 91.3 0 0 759.6992 76.1035
  A 13.63 9.80 91.3 0 0 749.5925 89.5077
  A 13.63 9.80 91.3 0 0 759.0808 103.3565"
/>
<path stroke="#808080" vector-effect="non-scaling-stroke" d="
  M 383.34 162.67
  L 369.87 207.62
  A 0.90 0.89 8.1 0 0 370.74 208.77
  L 397.70 208.44
  A 0.24 0.24 80.7 0 0 397.92 208.13
  L 383.80 162.67
  Q 383.57 161.92 383.34 162.67"
/>
<path stroke="#808080" vector-effect="non-scaling-stroke" d="
  M 793.63 194.89
  Q 790.01 199.59 788.69 205.94
  Q 786.38 216.96 789.49 227.25
  Q 791.31 233.30 795.94 237.56
  Q 801.27 242.45 808.03 242.27
  Q 812.07 242.16 815.72 240.25
  Q 819.45 238.30 821.94 234.94
  Q 825.85 229.65 827.13 223.23
  Q 828.30 217.37 827.86 210.73
  Q 827.28 201.97 822.44 195.06
  Q 816.91 187.17 807.48 187.52
  Q 803.26 187.68 799.82 189.55
  Q 796.22 191.51 793.63 194.89"
/>
<path stroke="#808080" vector-effect="non-scaling-stroke" d="
  M 466.24 194.73
  Q 462.04 200.09 461.50 206.50
  Q 460.84 214.41 461.60 223.99
  Q 462.47 235.01 471.09 239.31
  Q 475.58 241.54 480.70 241.27
  Q 486.14 240.99 490.33 237.95
  Q 495.31 234.35 498.15 226.60
  Q 502.36 215.14 498.40 203.39
  Q 496.19 196.85 492.74 193.44
  Q 488.43 189.18 481.76 188.42
  Q 472.05 187.32 466.24 194.73"
/>
<path stroke="#808080" vector-effect="non-scaling-stroke" d="
  M 555.20 193.94
  Q 550.14 200.01 549.75 208.00
  Q 549.56 211.91 549.75 219.04
  Q 549.94 226.16 551.30 229.91
  Q 555.27 240.92 567.24 241.15
  Q 573.12 241.26 577.72 238.33
  Q 582.73 235.14 585.24 229.80
  Q 587.82 224.32 588.30 216.47
  Q 588.73 209.50 586.44 202.65
  Q 584.38 196.50 579.94 192.56
  Q 575.75 188.85 570.34 188.40
  Q 565.95 188.03 562.21 189.18
  Q 558.12 190.43 555.20 193.94"
/>
<path stroke="#808080" vector-effect="non-scaling-stroke" d="
  M 931.17 192.67
  Q 926.59 198.41 925.72 205.99
  A 0.46 0.46 3.3 0 0 926.18 206.50
  L 960.19 206.44
  A 0.52 0.51 -89.4 0 0 960.70 205.93
  Q 960.85 198.61 957.50 193.25
  Q 954.12 187.84 947.82 186.64
  Q 937.53 184.69 931.17 192.67"
/>
</g>
<path fill="#000000" d="
  M 1080.00 57.06
  L 1079.96 265.55
  Q 1078.91 290.51 1061.31 306.31
  Q 1047.44 318.78 1028.74 320.35
  Q 1023.94 320.75 1014.75 320.75
  Q 535.87 320.75 57.00 320.77
  Q 37.69 320.77 23.56 310.44
  Q 1.59 294.37 0.00 265.69
  L 0.00 56.19
  Q 1.06 35.13 14.06 20.31
  Q 27.78 4.69 48.03 1.87
  Q 52.46 1.25 67.99 1.25
  Q 544.62 1.25 1021.25 1.25
  Q 1032.48 1.25 1042.01 4.37
  Q 1051.26 7.40 1059.35 14.07
  Q 1078.69 30.02 1080.00 57.06
  Z
  M 195.69 66.94
  Q 184.36 80.43 185.40 97.07
  A 0.54 0.52 -1.7 0 0 185.94 97.56
  Q 200.89 97.48 211.66 87.16
  Q 226.99 72.48 226.01 51.28
  A 0.60 0.60 84.4 0 0 225.32 50.71
  Q 207.19 53.24 195.69 66.94
  Z
  M 568.76 53.76
  A 0.26 0.26 0.0 0 0 568.50 53.50
  L 560.76 53.50
  A 0.26 0.26 0.0 0 0 560.50 53.76
  L 560.50 108.24
  A 0.26 0.26 0.0 0 0 560.76 108.50
  L 568.50 108.50
  A 0.26 0.26 0.0 0 0 568.76 108.24
  L 568.76 53.76
  Z
  M 697.08 74.34
  Q 690.78 68.22 683.06 70.36
  Q 678.84 71.52 675.71 74.91
  Q 672.57 78.30 671.32 82.72
  Q 669.84 87.94 670.47 93.84
  Q 671.13 100.05 675.06 104.44
  Q 679.70 109.60 686.75 109.38
  Q 693.22 109.17 697.96 103.38
  Q 698.30 102.97 698.35 103.49
  L 698.79 107.94
  A 0.58 0.50 86.5 0 0 699.31 108.47
  L 705.82 108.36
  A 0.55 0.49 89.5 0 0 706.30 107.81
  L 706.01 54.66
  A 1.07 0.96 89.2 0 0 705.03 53.60
  L 698.05 53.73
  A 0.54 0.47 87.8 0 0 697.59 54.30
  Q 698.09 64.25 697.47 74.19
  Q 697.44 74.68 697.08 74.34
  Z
  M 899.56 75.70
  L 899.50 54.06
  A 0.56 0.55 90.0 0 0 898.95 53.50
  L 891.76 53.50
  A 0.51 0.51 89.6 0 0 891.25 54.01
  L 891.31 107.94
  A 0.52 0.51 90.0 0 0 891.82 108.46
  L 898.93 108.45
  A 0.52 0.51 -90.0 0 0 899.44 107.93
  Q 899.55 96.97 899.50 86.00
  Q 899.47 79.45 904.91 77.61
  Q 907.83 76.62 910.60 77.56
  Q 913.93 78.70 915.00 81.91
  Q 915.46 83.28 915.66 89.64
  Q 915.94 98.70 915.50 107.80
  A 0.66 0.66 -88.4 0 0 916.16 108.50
  L 923.34 108.50
  A 0.65 0.64 0.4 0 0 923.99 107.87
  Q 924.18 95.25 923.62 83.51
  Q 923.24 75.39 917.41 71.84
  Q 913.11 69.22 908.24 70.12
  Q 903.10 71.07 899.84 75.78
  Q 899.56 76.18 899.56 75.70
  Z
  M 386.61 99.35
  Q 388.56 97.16 389.67 94.43
  Q 392.61 87.22 392.30 79.74
  Q 391.95 71.53 388.14 65.89
  Q 384.95 61.18 379.64 58.73
  Q 375.63 56.88 369.13 56.28
  Q 360.18 55.46 350.39 56.96
  A 0.76 0.76 85.6 0 0 349.75 57.71
  L 349.75 107.63
  A 0.58 0.57 3.4 0 0 350.26 108.20
  Q 359.12 109.15 367.51 108.59
  Q 379.04 107.84 386.61 99.35
  Z
  M 871.06 77.05
  L 878.98 77.01
  A 0.53 0.51 -0.6 0 0 879.50 76.50
  L 879.50 71.28
  A 0.85 0.79 -0.0 0 0 878.65 70.49
  L 871.00 70.52
  A 0.73 0.70 89.6 0 1 870.30 69.80
  L 870.25 61.99
  A 0.41 0.41 -8.1 0 0 869.73 61.60
  L 862.88 63.53
  A 1.20 1.20 -7.4 0 0 862.00 64.67
  L 861.96 69.93
  A 0.57 0.55 88.9 0 1 861.44 70.49
  L 857.18 70.69
  A 0.57 0.49 -0.7 0 0 856.63 71.17
  L 856.53 76.44
  A 0.53 0.51 0.5 0 0 857.06 76.96
  L 861.11 76.99
  A 0.92 0.90 0.6 0 1 862.02 77.90
  Q 861.82 88.26 862.41 97.74
  Q 863.34 112.43 878.39 108.48
  A 1.03 1.02 -9.8 0 0 879.15 107.41
  L 878.80 102.86
  A 0.76 0.76 -4.8 0 0 877.97 102.16
  Q 872.51 102.65 871.04 99.36
  Q 870.55 98.28 870.32 93.08
  Q 869.98 85.32 870.53 77.56
  A 0.54 0.53 -88.3 0 1 871.06 77.05
  Z
  M 520.47 75.69
  L 520.01 71.52
  A 1.18 1.08 85.2 0 0 518.86 70.46
  L 513.06 70.79
  A 0.51 0.51 -2.3 0 0 512.58 71.31
  L 512.82 107.68
  A 0.58 0.50 -89.0 0 0 513.30 108.26
  L 520.70 108.47
  A 0.53 0.47 -89.0 0 0 521.19 107.94
  Q 521.30 96.59 521.44 85.25
  Q 521.52 78.77 527.06 77.31
  Q 532.81 75.80 535.48 79.72
  Q 536.98 81.93 537.13 87.11
  Q 537.40 96.98 537.23 107.66
  A 0.79 0.74 -90.0 0 0 537.98 108.46
  L 545.07 108.36
  A 0.55 0.50 89.5 0 0 545.56 107.81
  Q 545.46 97.16 545.63 86.50
  Q 545.74 80.13 542.69 75.31
  Q 538.77 69.12 531.00 69.96
  Q 524.56 70.66 520.85 75.79
  Q 520.53 76.23 520.47 75.69
  Z
  M 797.82 75.70
  L 797.31 71.05
  A 0.61 0.51 -3.7 0 0 796.69 70.60
  L 790.75 70.76
  A 0.50 0.48 -1.2 0 0 790.26 71.25
  L 790.56 107.93
  A 0.53 0.50 89.4 0 0 791.06 108.45
  L 798.20 108.50
  A 0.56 0.55 -90.0 0 0 798.75 107.94
  Q 798.75 98.53 798.75 89.58
  Q 798.75 83.81 799.76 81.55
  Q 801.84 76.86 807.70 77.10
  Q 809.97 77.20 811.47 78.21
  Q 813.27 79.42 814.00 81.50
  Q 815.09 84.63 814.99 88.76
  Q 814.75 98.25 814.75 107.98
  A 0.52 0.52 90.0 0 0 815.27 108.50
  L 822.57 108.50
  A 0.67 0.67 -89.6 0 0 823.24 107.84
  Q 823.39 96.35 823.07 85.56
  Q 823.00 83.20 822.65 81.47
  Q 822.17 78.99 821.50 77.50
  Q 817.89 69.44 809.56 69.81
  Q 802.89 70.11 798.13 75.80
  Q 797.87 76.11 797.82 75.70
  Z
  M 969.13 91.09
  Q 969.99 85.20 968.30 80.28
  Q 966.45 74.92 961.97 72.09
  Q 956.26 68.49 948.73 70.84
  Q 942.42 72.80 939.31 78.31
  Q 935.24 85.53 936.36 93.45
  Q 937.17 99.14 940.15 102.87
  Q 943.61 107.20 949.44 108.31
  Q 957.91 109.92 966.97 107.09
  A 0.59 0.56 -14.6 0 0 967.37 106.45
  L 966.39 101.54
  A 0.50 0.48 -13.7 0 0 965.77 101.18
  Q 960.38 102.75 955.25 102.57
  Q 945.66 102.24 944.02 92.71
  A 0.83 0.82 -4.7 0 1 944.84 91.75
  L 968.36 91.75
  A 0.78 0.78 4.3 0 0 969.13 91.09
  Z
  M 648.94 84.16
  Q 641.76 83.89 635.54 86.85
  Q 631.42 88.82 629.48 91.86
  Q 627.06 95.63 627.89 100.05
  Q 628.77 104.69 632.44 107.26
  Q 636.25 109.92 641.50 109.25
  Q 646.54 108.61 649.86 104.70
  Q 650.21 104.30 650.34 104.79
  L 651.20 107.95
  A 0.68 0.63 81.6 0 0 651.82 108.45
  L 658.16 108.49
  A 0.47 0.46 87.2 0 0 658.62 107.97
  Q 657.80 100.24 657.96 93.00
  Q 658.17 83.43 657.50 80.50
  Q 655.19 70.41 644.50 70.00
  Q 637.09 69.71 630.95 72.77
  A 0.62 0.59 -21.4 0 0 630.62 73.48
  L 631.89 77.96
  A 0.45 0.44 -21.6 0 0 632.51 78.22
  Q 635.74 76.59 639.09 76.04
  Q 643.18 75.36 645.83 76.53
  Q 649.81 78.28 649.48 83.69
  A 0.52 0.50 2.9 0 1 648.94 84.16
  Z
  M 419.3444 109.4793
  A 19.80 18.50 94.1 0 0 439.2127 91.0527
  A 19.80 18.50 94.1 0 0 422.1756 69.9807
  A 19.80 18.50 94.1 0 0 402.3073 88.4073
  A 19.80 18.50 94.1 0 0 419.3444 109.4793
  Z
  M 585.47 76.96
  Q 581.69 81.62 581.44 88.94
  Q 581.21 95.65 584.02 100.64
  Q 586.93 105.81 592.54 108.11
  Q 597.12 109.99 602.14 109.18
  Q 606.82 108.43 610.67 105.41
  Q 618.83 99.02 617.68 87.26
  Q 616.60 76.21 607.98 72.08
  Q 602.24 69.33 596.24 70.39
  Q 589.90 71.51 585.47 76.96
  Z
  M 745.46 76.95
  Q 741.69 81.62 741.44 88.94
  Q 741.21 95.65 744.02 100.64
  Q 746.92 105.80 752.54 108.11
  Q 757.33 110.08 762.53 109.11
  Q 767.60 108.16 771.28 105.04
  Q 775.82 101.19 777.25 94.75
  Q 779.68 83.79 773.16 76.11
  Q 770.94 73.49 768.23 72.10
  Q 765.34 70.61 762.00 70.26
  Q 751.75 69.17 745.46 76.95
  Z
  M 462.81 99.70
  L 456.44 72.31
  Q 456.08 70.76 453.75 70.75
  L 448.19 70.73
  A 0.40 0.37 81.1 0 0 447.85 71.24
  L 458.69 107.92
  A 0.81 0.81 -8.1 0 0 459.47 108.50
  L 466.25 108.50
  A 0.67 0.67 -32.1 0 0 466.89 108.02
  L 474.34 81.98
  Q 474.81 80.30 475.27 81.99
  L 482.30 107.84
  A 0.71 0.65 82.3 0 0 482.93 108.36
  L 489.94 108.47
  A 0.71 0.65 -81.1 0 0 490.58 107.96
  L 501.67 71.45
  A 0.63 0.61 7.9 0 0 501.06 70.66
  L 494.44 70.75
  A 0.67 0.66 7.0 0 0 493.81 71.24
  L 486.81 98.83
  Q 486.32 100.74 485.81 98.82
  L 478.45 71.16
  A 0.66 0.66 -7.4 0 0 477.81 70.67
  L 472.18 70.67
  A 0.68 0.65 -81.7 0 0 471.55 71.16
  L 463.08 99.70
  Q 462.93 100.21 462.81 99.70
  Z
  M 184.56 109.19
  Q 179.94 108.27 172.68 105.43
  Q 164.26 102.14 160.93 101.47
  Q 153.76 100.05 147.00 101.00
  Q 132.47 103.04 121.86 112.49
  Q 114.91 118.68 109.92 128.39
  Q 100.58 146.58 102.50 167.75
  Q 105.43 200.05 122.81 227.89
  Q 128.70 237.32 136.59 245.16
  Q 140.37 248.92 145.69 252.06
  Q 152.04 255.82 159.08 254.68
  Q 164.85 253.75 168.44 251.94
  Q 188.30 241.92 208.49 251.20
  Q 215.25 254.30 222.00 254.50
  Q 229.19 254.71 235.48 250.50
  Q 241.70 246.34 245.19 242.19
  Q 260.44 224.05 268.19 201.19
  A 0.73 0.72 22.2 0 0 267.81 200.30
  Q 245.85 190.02 241.73 166.21
  Q 240.06 156.51 241.81 149.56
  Q 246.56 130.74 262.64 120.62
  A 0.59 0.58 -35.4 0 0 262.79 119.76
  Q 251.43 105.38 234.64 101.29
  Q 227.59 99.57 220.63 100.02
  Q 213.52 100.47 206.70 102.97
  Q 201.56 104.86 196.41 106.73
  Q 196.33 106.76 193.25 108.00
  Q 188.40 109.95 184.56 109.19
  Z
  M 647.18 156.43
  Q 642.69 161.21 641.25 166.75
  Q 637.60 180.81 645.62 190.98
  Q 649.41 195.78 656.99 200.23
  Q 663.37 203.98 670.43 206.46
  Q 677.91 209.09 681.19 212.06
  Q 688.36 218.59 686.88 227.10
  Q 685.88 232.84 681.26 236.42
  Q 676.24 240.30 669.25 240.58
  Q 655.19 241.14 643.08 234.20
  A 0.52 0.51 23.3 0 0 642.33 234.49
  L 638.55 247.45
  A 0.67 0.65 23.0 0 0 638.87 248.20
  Q 645.13 251.61 651.75 253.05
  Q 657.97 254.40 665.30 254.51
  Q 675.05 254.65 684.41 251.35
  Q 696.22 247.19 701.25 237.00
  Q 705.47 228.46 704.08 219.12
  Q 702.95 211.48 698.17 205.42
  Q 693.40 199.37 686.15 195.77
  Q 680.69 193.06 675.03 190.77
  Q 669.39 188.50 664.31 185.20
  Q 658.12 181.19 657.43 174.83
  Q 656.77 168.78 660.98 164.23
  Q 665.25 159.62 672.49 159.16
  Q 684.36 158.40 695.51 163.65
  A 0.45 0.45 -68.2 0 0 696.13 163.38
  L 700.23 150.81
  A 0.74 0.73 -69.7 0 0 699.82 149.90
  Q 682.97 142.82 665.51 146.29
  Q 654.68 148.44 647.18 156.43
  Z
  M 373.60 146.93
  L 339.28 252.67
  A 0.25 0.24 -80.6 0 0 339.51 253.00
  L 355.97 253.00
  A 1.09 1.08 -81.2 0 0 357.00 252.24
  L 366.29 222.41
  A 0.68 0.68 -81.3 0 1 366.94 221.93
  L 400.44 221.76
  A 1.04 1.02 81.1 0 1 401.42 222.49
  L 410.67 252.47
  A 0.68 0.67 81.1 0 0 411.31 252.95
  L 428.71 252.94
  A 0.32 0.31 81.0 0 0 429.00 252.53
  L 394.90 147.22
  A 0.68 0.67 -8.9 0 0 394.26 146.76
  L 374.11 146.57
  A 0.54 0.53 9.0 0 0 373.60 146.93
  Z
  M 742.06 175.70
  L 742.00 157.68
  A 0.48 0.47 81.2 0 0 741.38 157.22
  L 726.00 162.00
  A 1.08 1.08 81.2 0 0 725.25 163.03
  L 725.25 175.73
  A 0.52 0.52 -90.0 0 1 724.73 176.25
  L 714.80 176.25
  A 0.80 0.80 -89.9 0 0 714.00 177.05
  L 714.00 188.46
  A 0.56 0.55 0.5 0 0 714.55 189.01
  L 724.68 189.05
  A 0.52 0.51 -90.0 0 1 725.19 189.57
  Q 725.30 206.66 725.19 223.75
  Q 725.13 233.37 726.25 238.25
  Q 729.98 254.42 745.72 254.47
  Q 749.06 254.48 752.41 254.16
  Q 755.91 253.83 758.99 252.76
  A 1.05 0.95 -11.1 0 0 759.70 251.81
  L 759.37 240.44
  A 0.46 0.44 -5.6 0 0 758.83 240.02
  Q 751.81 241.15 749.75 240.50
  Q 743.20 238.42 742.36 231.52
  Q 742.01 228.65 742.01 225.75
  Q 742.00 208.00 742.00 189.56
  A 0.56 0.56 89.8 0 1 742.56 189.00
  L 759.95 189.00
  A 0.80 0.80 -89.9 0 0 760.75 188.20
  L 760.75 176.92
  A 0.67 0.67 90.0 0 0 760.08 176.25
  L 742.56 176.19
  A 0.50 0.49 0.0 0 1 742.06 175.70
  Z
  M 780.53 186.77
  Q 773.70 194.32 771.50 205.50
  Q 768.45 221.03 774.40 233.90
  Q 778.84 243.50 787.14 248.93
  Q 795.99 254.72 807.25 254.75
  Q 820.26 254.79 829.98 247.57
  Q 837.79 241.78 842.01 231.95
  Q 847.12 220.07 845.02 207.16
  Q 843.30 196.53 837.65 188.79
  Q 831.22 179.99 820.78 176.51
  Q 810.96 173.24 801.03 175.05
  Q 789.18 177.22 780.53 186.77
  Z
  M 459.27 188.12
  L 458.50 177.13
  A 0.94 0.88 87.9 0 0 457.62 176.25
  L 443.81 176.31
  A 0.49 0.49 89.4 0 0 443.32 176.81
  Q 443.40 182.55 443.68 188.28
  Q 444.00 195.01 444.00 199.74
  Q 444.00 241.07 444.00 283.44
  A 0.81 0.81 0.0 0 0 444.81 284.25
  L 460.48 284.25
  A 0.80 0.78 -89.6 0 0 461.26 283.46
  L 461.49 245.00
  Q 461.49 244.50 461.81 244.89
  Q 469.54 254.28 482.00 254.46
  Q 495.53 254.66 504.37 246.65
  Q 511.09 240.57 514.72 229.81
  Q 520.47 212.81 513.57 194.85
  Q 509.87 185.21 502.69 180.06
  Q 491.58 172.10 477.23 175.67
  Q 466.56 178.32 459.68 188.22
  Q 459.32 188.75 459.27 188.12
  Z
  M 547.54 188.12
  L 546.78 177.14
  A 0.93 0.92 88.0 0 0 545.86 176.27
  L 532.19 176.41
  A 0.50 0.49 88.3 0 0 531.71 176.93
  Q 531.92 183.04 532.20 189.15
  Q 532.50 195.64 532.50 201.36
  Q 532.50 242.23 532.50 283.69
  A 0.56 0.55 90.0 0 0 533.05 284.25
  L 548.93 284.19
  A 0.51 0.50 -0.0 0 0 549.44 283.69
  L 549.56 244.80
  Q 549.57 243.57 550.23 244.61
  Q 553.20 249.21 558.56 251.70
  Q 566.63 255.43 575.51 254.32
  Q 584.52 253.20 591.17 248.00
  Q 597.17 243.32 601.00 235.08
  Q 606.78 222.64 605.25 207.25
  Q 603.90 193.64 596.06 184.69
  Q 587.94 175.41 575.50 174.82
  Q 558.15 173.99 548.00 188.25
  Q 547.59 188.83 547.54 188.12
  Z
  M 875.54 190.70
  L 874.61 176.94
  A 0.57 0.55 87.8 0 0 874.06 176.41
  L 860.69 176.40
  A 0.53 0.50 -90.0 0 0 860.19 176.93
  L 860.50 252.35
  A 0.65 0.64 90.0 0 0 861.14 253.00
  L 877.00 253.00
  A 0.51 0.51 0.0 0 0 877.51 252.49
  Q 877.32 230.37 877.75 209.25
  Q 877.90 201.78 882.95 196.17
  Q 886.18 192.59 890.53 191.32
  Q 895.10 189.99 899.89 190.93
  A 0.71 0.70 5.4 0 0 900.74 190.24
  L 900.69 175.56
  A 0.58 0.57 4.0 0 0 900.19 174.99
  Q 887.73 173.34 880.06 183.06
  Q 878.62 184.89 875.78 190.73
  Q 875.57 191.17 875.54 190.70
  Z
  M 926.32 218.56
  L 976.03 218.50
  A 0.63 0.62 -86.9 0 0 976.65 217.94
  Q 977.69 208.16 975.87 199.47
  Q 974.15 191.21 969.06 185.13
  Q 964.07 179.15 956.44 176.50
  Q 947.46 173.37 937.49 175.45
  Q 923.23 178.42 916.31 190.06
  Q 905.75 207.84 910.72 227.03
  Q 913.53 237.83 920.06 244.42
  Q 928.76 253.20 942.50 254.20
  Q 957.74 255.31 972.19 250.02
  A 0.62 0.57 -16.9 0 0 972.59 249.34
  L 970.32 238.54
  A 0.49 0.45 -15.1 0 0 969.70 238.22
  Q 957.62 242.17 946.75 241.25
  Q 926.52 239.54 925.83 219.07
  A 0.49 0.49 88.9 0 1 926.32 218.56
  Z"
/>
<path fill="#ffffff" d="
  M 195.69 66.94
  Q 207.19 53.24 225.32 50.71
  A 0.60 0.60 84.4 0 1 226.01 51.28
  Q 226.99 72.48 211.66 87.16
  Q 200.89 97.48 185.94 97.56
  A 0.54 0.52 -1.7 0 1 185.40 97.07
  Q 184.36 80.43 195.69 66.94
  Z"
/>
<rect fill="#ffffff" x="560.50" y="53.50" width="8.26" height="55.00" rx="0.26"/>
<path fill="#ffffff" d="
  M 697.47 74.19
  Q 698.09 64.25 697.59 54.30
  A 0.54 0.47 87.8 0 1 698.05 53.73
  L 705.03 53.60
  A 1.07 0.96 89.2 0 1 706.01 54.66
  L 706.30 107.81
  A 0.55 0.49 89.5 0 1 705.82 108.36
  L 699.31 108.47
  A 0.58 0.50 86.5 0 1 698.79 107.94
  L 698.35 103.49
  Q 698.30 102.97 697.96 103.38
  Q 693.22 109.17 686.75 109.38
  Q 679.70 109.60 675.06 104.44
  Q 671.13 100.05 670.47 93.84
  Q 669.84 87.94 671.32 82.72
  Q 672.57 78.30 675.71 74.91
  Q 678.84 71.52 683.06 70.36
  Q 690.78 68.22 697.08 74.34
  Q 697.44 74.68 697.47 74.19
  Z
  M 679.81 83.55
  Q 677.30 89.45 679.88 96.08
  Q 681.71 100.80 685.87 102.05
  Q 689.81 103.25 693.35 100.98
  Q 696.71 98.83 697.36 94.58
  Q 697.68 92.46 697.70 88.92
  Q 697.71 86.02 696.92 83.27
  Q 695.88 79.68 693.02 77.90
  Q 688.81 75.29 684.66 77.76
  Q 681.46 79.66 679.81 83.55
  Z"
/>
<path fill="#ffffff" d="
  M 899.84 75.78
  Q 903.10 71.07 908.24 70.12
  Q 913.11 69.22 917.41 71.84
  Q 923.24 75.39 923.62 83.51
  Q 924.18 95.25 923.99 107.87
  A 0.65 0.64 0.4 0 1 923.34 108.50
  L 916.16 108.50
  A 0.66 0.66 -88.4 0 1 915.50 107.80
  Q 915.94 98.70 915.66 89.64
  Q 915.46 83.28 915.00 81.91
  Q 913.93 78.70 910.60 77.56
  Q 907.83 76.62 904.91 77.61
  Q 899.47 79.45 899.50 86.00
  Q 899.55 96.97 899.44 107.93
  A 0.52 0.51 90.0 0 1 898.93 108.45
  L 891.82 108.46
  A 0.52 0.51 -90.0 0 1 891.31 107.94
  L 891.25 54.01
  A 0.51 0.51 88.7 0 1 891.76 53.50
  L 898.95 53.50
  A 0.56 0.55 90.0 0 1 899.50 54.06
  L 899.56 75.70
  Q 899.56 76.18 899.84 75.78
  Z"
/>
<path fill="#ffffff" d="
  M 386.61 99.35
  Q 379.04 107.84 367.51 108.59
  Q 359.12 109.15 350.26 108.20
  A 0.58 0.57 3.4 0 1 349.75 107.63
  L 349.75 57.71
  A 0.76 0.76 85.6 0 1 350.39 56.96
  Q 360.18 55.46 369.13 56.28
  Q 375.63 56.88 379.64 58.73
  Q 384.95 61.18 388.14 65.89
  Q 391.95 71.53 392.30 79.74
  Q 392.61 87.22 389.67 94.43
  Q 388.56 97.16 386.61 99.35
  Z
  M 379.56 95.31
  Q 382.96 90.42 383.43 84.56
  Q 383.93 78.31 382.43 73.51
  Q 380.97 68.85 376.94 66.06
  Q 373.66 63.79 368.63 63.06
  Q 363.68 62.35 358.27 63.10
  A 0.59 0.58 -4.4 0 0 357.76 63.69
  L 357.93 101.32
  A 0.57 0.55 3.5 0 0 358.43 101.87
  Q 365.98 102.71 371.50 101.00
  Q 376.75 99.38 379.56 95.31
  Z"
/>
<path fill="#ffffff" d="
  M 870.53 77.56
  Q 869.98 85.32 870.32 93.08
  Q 870.55 98.28 871.04 99.36
  Q 872.51 102.65 877.97 102.16
  A 0.76 0.76 -4.8 0 1 878.80 102.86
  L 879.15 107.41
  A 1.03 1.02 -9.8 0 1 878.39 108.48
  Q 863.34 112.43 862.41 97.74
  Q 861.82 88.26 862.02 77.90
  A 0.92 0.90 0.6 0 0 861.11 76.99
  L 857.06 76.96
  A 0.53 0.51 0.5 0 1 856.53 76.44
  L 856.63 71.17
  A 0.57 0.49 -0.7 0 1 857.18 70.69
  L 861.44 70.49
  A 0.57 0.55 88.9 0 0 861.96 69.93
  L 862.00 64.67
  A 1.20 1.20 -7.4 0 1 862.88 63.53
  L 869.73 61.60
  A 0.41 0.41 -8.1 0 1 870.25 61.99
  L 870.30 69.80
  A 0.73 0.70 89.6 0 0 871.00 70.52
  L 878.65 70.49
  A 0.85 0.79 -0.0 0 1 879.50 71.28
  L 879.50 76.50
  A 0.53 0.51 -0.6 0 1 878.98 77.01
  L 871.06 77.05
  A 0.54 0.53 -88.3 0 0 870.53 77.56
  Z"
/>
<path fill="#000000" d="
  M 379.56 95.31
  Q 376.75 99.38 371.50 101.00
  Q 365.98 102.71 358.43 101.87
  A 0.57 0.55 3.5 0 1 357.93 101.32
  L 357.76 63.69
  A 0.59 0.58 -4.4 0 1 358.27 63.10
  Q 363.68 62.35 368.63 63.06
  Q 373.66 63.79 376.94 66.06
  Q 380.97 68.85 382.43 73.51
  Q 383.93 78.31 383.43 84.56
  Q 382.96 90.42 379.56 95.31
  Z"
/>
<path fill="#ffffff" d="
  M 520.85 75.79
  Q 524.56 70.66 531.00 69.96
  Q 538.77 69.12 542.69 75.31
  Q 545.74 80.13 545.63 86.50
  Q 545.46 97.16 545.56 107.81
  A 0.55 0.50 89.5 0 1 545.07 108.36
  L 537.98 108.46
  A 0.79 0.74 -90.0 0 1 537.23 107.66
  Q 537.40 96.98 537.13 87.11
  Q 536.98 81.93 535.48 79.72
  Q 532.81 75.80 527.06 77.31
  Q 521.52 78.77 521.44 85.25
  Q 521.30 96.59 521.19 107.94
  A 0.53 0.47 -89.0 0 1 520.70 108.47
  L 513.30 108.26
  A 0.58 0.50 -89.0 0 1 512.82 107.68
  L 512.58 71.31
  A 0.51 0.51 -2.3 0 1 513.06 70.79
  L 518.86 70.46
  A 1.18 1.08 85.2 0 1 520.01 71.52
  L 520.47 75.69
  Q 520.53 76.23 520.85 75.79
  Z"
/>
<path fill="#ffffff" d="
  M 798.13 75.80
  Q 802.89 70.11 809.56 69.81
  Q 817.89 69.44 821.50 77.50
  Q 822.17 78.99 822.65 81.47
  Q 823.00 83.20 823.07 85.56
  Q 823.39 96.35 823.24 107.84
  A 0.67 0.67 -89.6 0 1 822.57 108.50
  L 815.27 108.50
  A 0.52 0.52 -90.0 0 1 814.75 107.98
  Q 814.75 98.25 814.99 88.76
  Q 815.09 84.63 814.00 81.50
  Q 813.27 79.42 811.47 78.21
  Q 809.97 77.20 807.70 77.10
  Q 801.84 76.86 799.76 81.55
  Q 798.75 83.81 798.75 89.58
  Q 798.75 98.53 798.75 107.94
  A 0.56 0.55 -90.0 0 1 798.20 108.50
  L 791.06 108.45
  A 0.53 0.50 89.4 0 1 790.56 107.93
  L 790.26 71.25
  A 0.50 0.48 -1.2 0 1 790.75 70.76
  L 796.69 70.60
  A 0.61 0.51 -3.7 0 1 797.31 71.05
  L 797.82 75.70
  Q 797.87 76.11 798.13 75.80
  Z"
/>
<path fill="#ffffff" d="
  M 969.13 91.09
  A 0.78 0.78 4.3 0 1 968.36 91.75
  L 944.84 91.75
  A 0.83 0.82 -4.7 0 0 944.02 92.71
  Q 945.66 102.24 955.25 102.57
  Q 960.38 102.75 965.77 101.18
  A 0.50 0.48 -13.7 0 1 966.39 101.54
  L 967.37 106.45
  A 0.59 0.56 -14.6 0 1 966.97 107.09
  Q 957.91 109.92 949.44 108.31
  Q 943.61 107.20 940.15 102.87
  Q 937.17 99.14 936.36 93.45
  Q 935.24 85.53 939.31 78.31
  Q 942.42 72.80 948.73 70.84
  Q 956.26 68.49 961.97 72.09
  Q 966.45 74.92 968.30 80.28
  Q 969.99 85.20 969.13 91.09
  Z
  M 946.69 79.19
  Q 944.51 81.94 944.33 85.19
  A 0.49 0.48 1.7 0 0 944.82 85.70
  L 960.94 85.70
  A 0.54 0.53 -88.9 0 0 961.47 85.18
  Q 961.71 79.66 957.71 77.19
  Q 955.01 75.52 952.05 75.94
  Q 948.90 76.39 946.69 79.19
  Z"
/>
<path fill="#ffffff" d="
  M 649.48 83.69
  Q 649.81 78.28 645.83 76.53
  Q 643.18 75.36 639.09 76.04
  Q 635.74 76.59 632.51 78.22
  A 0.45 0.44 -21.6 0 1 631.89 77.96
  L 630.62 73.48
  A 0.62 0.59 -21.4 0 1 630.95 72.77
  Q 637.09 69.71 644.50 70.00
  Q 655.19 70.41 657.50 80.50
  Q 658.17 83.43 657.96 93.00
  Q 657.80 100.24 658.62 107.97
  A 0.47 0.46 87.2 0 1 658.16 108.49
  L 651.82 108.45
  A 0.68 0.63 81.6 0 1 651.20 107.95
  L 650.34 104.79
  Q 650.21 104.30 649.86 104.70
  Q 646.54 108.61 641.50 109.25
  Q 636.25 109.92 632.44 107.26
  Q 628.77 104.69 627.89 100.05
  Q 627.06 95.63 629.48 91.86
  Q 631.42 88.82 635.54 86.85
  Q 641.76 83.89 648.94 84.16
  A 0.52 0.50 2.9 0 0 649.48 83.69
  Z
  M 636.42 95.36
  Q 635.52 97.73 636.56 99.94
  Q 638.88 104.84 644.62 102.73
  Q 649.10 101.09 649.75 96.00
  Q 650.17 92.69 649.84 90.50
  A 0.72 0.71 0.6 0 0 649.26 89.91
  Q 643.53 88.95 639.13 92.05
  Q 637.13 93.46 636.42 95.36
  Z"
/>
<path fill="#ffffff" d="
  M 419.3444 109.4793
  A 19.80 18.50 94.1 0 1 402.3073 88.4073
  A 19.80 18.50 94.1 0 1 422.1756 69.9807
  A 19.80 18.50 94.1 0 1 439.2127 91.0527
  A 19.80 18.50 94.1 0 1 419.3444 109.4793
  Z
  M 420.3010 103.3565
  A 13.62 9.79 91.3 0 0 430.3975 89.9621
  A 13.62 9.79 91.3 0 0 420.9190 76.1235
  A 13.62 9.79 91.3 0 0 410.8225 89.5179
  A 13.62 9.79 91.3 0 0 420.3010 103.3565
  Z"
/>
<path fill="#ffffff" d="
  M 585.47 76.96
  Q 589.90 71.51 596.24 70.39
  Q 602.24 69.33 607.98 72.08
  Q 616.60 76.21 617.68 87.26
  Q 618.83 99.02 610.67 105.41
  Q 606.82 108.43 602.14 109.18
  Q 597.12 109.99 592.54 108.11
  Q 586.93 105.81 584.02 100.64
  Q 581.21 95.65 581.44 88.94
  Q 581.69 81.62 585.47 76.96
  Z
  M 599.0946 103.3570
  A 13.63 9.80 91.2 0 0 609.1779 89.9352
  A 13.63 9.80 91.2 0 0 599.6654 76.1030
  A 13.63 9.80 91.2 0 0 589.5821 89.5248
  A 13.63 9.80 91.2 0 0 599.0946 103.3570
  Z"
/>
<path fill="#ffffff" d="
  M 745.46 76.95
  Q 751.75 69.17 762.00 70.26
  Q 765.34 70.61 768.23 72.10
  Q 770.94 73.49 773.16 76.11
  Q 779.68 83.79 777.25 94.75
  Q 775.82 101.19 771.28 105.04
  Q 767.60 108.16 762.53 109.11
  Q 757.33 110.08 752.54 108.11
  Q 746.92 105.80 744.02 100.64
  Q 741.21 95.65 741.44 88.94
  Q 741.69 81.62 745.46 76.95
  Z
  M 759.0808 103.3565
  A 13.63 9.80 91.3 0 0 769.1875 89.9523
  A 13.63 9.80 91.3 0 0 759.6992 76.1035
  A 13.63 9.80 91.3 0 0 749.5925 89.5077
  A 13.63 9.80 91.3 0 0 759.0808 103.3565
  Z"
/>
<path fill="#ffffff" d="
  M 463.08 99.70
  L 471.55 71.16
  A 0.68 0.65 -81.7 0 1 472.18 70.67
  L 477.81 70.67
  A 0.66 0.66 -7.4 0 1 478.45 71.16
  L 485.81 98.82
  Q 486.32 100.74 486.81 98.83
  L 493.81 71.24
  A 0.67 0.66 7.0 0 1 494.44 70.75
  L 501.06 70.66
  A 0.63 0.61 7.9 0 1 501.67 71.45
  L 490.58 107.96
  A 0.71 0.65 -81.1 0 1 489.94 108.47
  L 482.93 108.36
  A 0.71 0.65 82.3 0 1 482.30 107.84
  L 475.27 81.99
  Q 474.81 80.30 474.34 81.98
  L 466.89 108.02
  A 0.67 0.67 51.8 0 1 466.25 108.50
  L 459.47 108.50
  A 0.81 0.81 -8.1 0 1 458.69 107.92
  L 447.85 71.24
  A 0.40 0.37 81.1 0 1 448.19 70.73
  L 453.75 70.75
  Q 456.08 70.76 456.44 72.31
  L 462.81 99.70
  Q 462.93 100.21 463.08 99.70
  Z"
/>
<path fill="#000000" d="
  M 946.69 79.19
  Q 948.90 76.39 952.05 75.94
  Q 955.01 75.52 957.71 77.19
  Q 961.71 79.66 961.47 85.18
  A 0.54 0.53 -88.9 0 1 960.94 85.70
  L 944.82 85.70
  A 0.49 0.48 1.7 0 1 944.33 85.19
  Q 944.51 81.94 946.69 79.19
  Z"
/>
<ellipse fill="#000000" cx="0.00" cy="0.00" transform="translate(420.61,89.74) rotate(91.3)" rx="13.62" ry="9.79"/>
<ellipse fill="#000000" cx="0.00" cy="0.00" transform="translate(599.38,89.73) rotate(91.2)" rx="13.63" ry="9.80"/>
<ellipse fill="#000000" cx="0.00" cy="0.00" transform="translate(759.39,89.73) rotate(91.3)" rx="13.63" ry="9.80"/>
<path fill="#000000" d="
  M 684.66 77.76
  Q 688.81 75.29 693.02 77.90
  Q 695.88 79.68 696.92 83.27
  Q 697.71 86.02 697.70 88.92
  Q 697.68 92.46 697.36 94.58
  Q 696.71 98.83 693.35 100.98
  Q 689.81 103.25 685.87 102.05
  Q 681.71 100.80 679.88 96.08
  Q 677.30 89.45 679.81 83.55
  Q 681.46 79.66 684.66 77.76
  Z"
/>
<path fill="#000000" d="
  M 639.13 92.05
  Q 643.53 88.95 649.26 89.91
  A 0.72 0.71 0.6 0 1 649.84 90.50
  Q 650.17 92.69 649.75 96.00
  Q 649.10 101.09 644.62 102.73
  Q 638.88 104.84 636.56 99.94
  Q 635.52 97.73 636.42 95.36
  Q 637.13 93.46 639.13 92.05
  Z"
/>
<path fill="#ffffff" d="
  M 184.56 109.19
  Q 188.40 109.95 193.25 108.00
  Q 196.33 106.76 196.41 106.73
  Q 201.56 104.86 206.70 102.97
  Q 213.52 100.47 220.63 100.02
  Q 227.59 99.57 234.64 101.29
  Q 251.43 105.38 262.79 119.76
  A 0.59 0.58 -35.4 0 1 262.64 120.62
  Q 246.56 130.74 241.81 149.56
  Q 240.06 156.51 241.73 166.21
  Q 245.85 190.02 267.81 200.30
  A 0.73 0.72 22.2 0 1 268.19 201.19
  Q 260.44 224.05 245.19 242.19
  Q 241.70 246.34 235.48 250.50
  Q 229.19 254.71 222.00 254.50
  Q 215.25 254.30 208.49 251.20
  Q 188.30 241.92 168.44 251.94
  Q 164.85 253.75 159.08 254.68
  Q 152.04 255.82 145.69 252.06
  Q 140.37 248.92 136.59 245.16
  Q 128.70 237.32 122.81 227.89
  Q 105.43 200.05 102.50 167.75
  Q 100.58 146.58 109.92 128.39
  Q 114.91 118.68 121.86 112.49
  Q 132.47 103.04 147.00 101.00
  Q 153.76 100.05 160.93 101.47
  Q 164.26 102.14 172.68 105.43
  Q 179.94 108.27 184.56 109.19
  Z"
/>
<path fill="#ffffff" d="
  M 647.18 156.43
  Q 654.68 148.44 665.51 146.29
  Q 682.97 142.82 699.82 149.90
  A 0.74 0.73 -69.7 0 1 700.23 150.81
  L 696.13 163.38
  A 0.45 0.45 -68.2 0 1 695.51 163.65
  Q 684.36 158.40 672.49 159.16
  Q 665.25 159.62 660.98 164.23
  Q 656.77 168.78 657.43 174.83
  Q 658.12 181.19 664.31 185.20
  Q 669.39 188.50 675.03 190.77
  Q 680.69 193.06 686.15 195.77
  Q 693.40 199.37 698.17 205.42
  Q 702.95 211.48 704.08 219.12
  Q 705.47 228.46 701.25 237.00
  Q 696.22 247.19 684.41 251.35
  Q 675.05 254.65 665.30 254.51
  Q 657.97 254.40 651.75 253.05
  Q 645.13 251.61 638.87 248.20
  A 0.67 0.65 23.0 0 1 638.55 247.45
  L 642.33 234.49
  A 0.52 0.51 23.3 0 1 643.08 234.20
  Q 655.19 241.14 669.25 240.58
  Q 676.24 240.30 681.26 236.42
  Q 685.88 232.84 686.88 227.10
  Q 688.36 218.59 681.19 212.06
  Q 677.91 209.09 670.43 206.46
  Q 663.37 203.98 656.99 200.23
  Q 649.41 195.78 645.62 190.98
  Q 637.60 180.81 641.25 166.75
  Q 642.69 161.21 647.18 156.43
  Z"
/>
<path fill="#ffffff" d="
  M 373.60 146.93
  A 0.54 0.53 9.0 0 1 374.11 146.57
  L 394.26 146.76
  A 0.68 0.67 -8.9 0 1 394.90 147.22
  L 429.00 252.53
  A 0.32 0.31 81.0 0 1 428.71 252.94
  L 411.31 252.95
  A 0.68 0.67 81.1 0 1 410.67 252.47
  L 401.42 222.49
  A 1.04 1.02 81.1 0 0 400.44 221.76
  L 366.94 221.93
  A 0.68 0.68 -81.3 0 0 366.29 222.41
  L 357.00 252.24
  A 1.09 1.08 -81.2 0 1 355.97 253.00
  L 339.51 253.00
  A 0.25 0.24 -80.6 0 1 339.28 252.67
  L 373.60 146.93
  Z
  M 383.34 162.67
  L 369.87 207.62
  A 0.90 0.89 8.1 0 0 370.74 208.77
  L 397.70 208.44
  A 0.24 0.24 80.7 0 0 397.92 208.13
  L 383.80 162.67
  Q 383.57 161.92 383.34 162.67
  Z"
/>
<path fill="#ffffff" d="
  M 742.56 176.19
  L 760.08 176.25
  A 0.67 0.67 89.8 0 1 760.75 176.92
  L 760.75 188.20
  A 0.80 0.80 89.8 0 1 759.95 189.00
  L 742.56 189.00
  A 0.56 0.56 90.0 0 0 742.00 189.56
  Q 742.00 208.00 742.01 225.75
  Q 742.01 228.65 742.36 231.52
  Q 743.20 238.42 749.75 240.50
  Q 751.81 241.15 758.83 240.02
  A 0.46 0.44 -5.6 0 1 759.37 240.44
  L 759.70 251.81
  A 1.05 0.95 -11.1 0 1 758.99 252.76
  Q 755.91 253.83 752.41 254.16
  Q 749.06 254.48 745.72 254.47
  Q 729.98 254.42 726.25 238.25
  Q 725.13 233.37 725.19 223.75
  Q 725.30 206.66 725.19 189.57
  A 0.52 0.51 90.0 0 0 724.68 189.05
  L 714.55 189.01
  A 0.56 0.55 0.5 0 1 714.00 188.46
  L 714.00 177.05
  A 0.80 0.80 89.8 0 1 714.80 176.25
  L 724.73 176.25
  A 0.52 0.52 90.0 0 0 725.25 175.73
  L 725.25 163.03
  A 1.08 1.08 81.2 0 1 726.00 162.00
  L 741.38 157.22
  A 0.48 0.47 81.2 0 1 742.00 157.68
  L 742.06 175.70
  A 0.50 0.49 0.0 0 0 742.56 176.19
  Z"
/>
<path fill="#000000" d="
  M 383.34 162.67
  Q 383.57 161.92 383.80 162.67
  L 397.92 208.13
  A 0.24 0.24 80.7 0 1 397.70 208.44
  L 370.74 208.77
  A 0.90 0.89 8.1 0 1 369.87 207.62
  L 383.34 162.67
  Z"
/>
<path fill="#ffffff" d="
  M 780.53 186.77
  Q 789.18 177.22 801.03 175.05
  Q 810.96 173.24 820.78 176.51
  Q 831.22 179.99 837.65 188.79
  Q 843.30 196.53 845.02 207.16
  Q 847.12 220.07 842.01 231.95
  Q 837.79 241.78 829.98 247.57
  Q 820.26 254.79 807.25 254.75
  Q 795.99 254.72 787.14 248.93
  Q 778.84 243.50 774.40 233.90
  Q 768.45 221.03 771.50 205.50
  Q 773.70 194.32 780.53 186.77
  Z
  M 793.63 194.89
  Q 790.01 199.59 788.69 205.94
  Q 786.38 216.96 789.49 227.25
  Q 791.31 233.30 795.94 237.56
  Q 801.27 242.45 808.03 242.27
  Q 812.07 242.16 815.72 240.25
  Q 819.45 238.30 821.94 234.94
  Q 825.85 229.65 827.13 223.23
  Q 828.30 217.37 827.86 210.73
  Q 827.28 201.97 822.44 195.06
  Q 816.91 187.17 807.48 187.52
  Q 803.26 187.68 799.82 189.55
  Q 796.22 191.51 793.63 194.89
  Z"
/>
<path fill="#ffffff" d="
  M 459.27 188.12
  Q 459.32 188.75 459.68 188.22
  Q 466.56 178.32 477.23 175.67
  Q 491.58 172.10 502.69 180.06
  Q 509.87 185.21 513.57 194.85
  Q 520.47 212.81 514.72 229.81
  Q 511.09 240.57 504.37 246.65
  Q 495.53 254.66 482.00 254.46
  Q 469.54 254.28 461.81 244.89
  Q 461.49 244.50 461.49 245.00
  L 461.26 283.46
  A 0.80 0.78 -89.6 0 1 460.48 284.25
  L 444.81 284.25
  A 0.81 0.81 0.0 0 1 444.00 283.44
  Q 444.00 241.07 444.00 199.74
  Q 444.00 195.01 443.68 188.28
  Q 443.40 182.55 443.32 176.81
  A 0.49 0.49 89.4 0 1 443.81 176.31
  L 457.62 176.25
  A 0.94 0.88 87.9 0 1 458.50 177.13
  L 459.27 188.12
  Z
  M 466.24 194.73
  Q 462.04 200.09 461.50 206.50
  Q 460.84 214.41 461.60 223.99
  Q 462.47 235.01 471.09 239.31
  Q 475.58 241.54 480.70 241.27
  Q 486.14 240.99 490.33 237.95
  Q 495.31 234.35 498.15 226.60
  Q 502.36 215.14 498.40 203.39
  Q 496.19 196.85 492.74 193.44
  Q 488.43 189.18 481.76 188.42
  Q 472.05 187.32 466.24 194.73
  Z"
/>
<path fill="#ffffff" d="
  M 547.54 188.12
  Q 547.59 188.83 548.00 188.25
  Q 558.15 173.99 575.50 174.82
  Q 587.94 175.41 596.06 184.69
  Q 603.90 193.64 605.25 207.25
  Q 606.78 222.64 601.00 235.08
  Q 597.17 243.32 591.17 248.00
  Q 584.52 253.20 575.51 254.32
  Q 566.63 255.43 558.56 251.70
  Q 553.20 249.21 550.23 244.61
  Q 549.57 243.57 549.56 244.80
  L 549.44 283.69
  A 0.51 0.50 -0.0 0 1 548.93 284.19
  L 533.05 284.25
  A 0.56 0.55 90.0 0 1 532.50 283.69
  Q 532.50 242.23 532.50 201.36
  Q 532.50 195.64 532.20 189.15
  Q 531.92 183.04 531.71 176.93
  A 0.50 0.49 88.3 0 1 532.19 176.41
  L 545.86 176.27
  A 0.93 0.92 88.0 0 1 546.78 177.14
  L 547.54 188.12
  Z
  M 555.20 193.94
  Q 550.14 200.01 549.75 208.00
  Q 549.56 211.91 549.75 219.04
  Q 549.94 226.16 551.30 229.91
  Q 555.27 240.92 567.24 241.15
  Q 573.12 241.26 577.72 238.33
  Q 582.73 235.14 585.24 229.80
  Q 587.82 224.32 588.30 216.47
  Q 588.73 209.50 586.44 202.65
  Q 584.38 196.50 579.94 192.56
  Q 575.75 188.85 570.34 188.40
  Q 565.95 188.03 562.21 189.18
  Q 558.12 190.43 555.20 193.94
  Z"
/>
<path fill="#ffffff" d="
  M 875.78 190.73
  Q 878.62 184.89 880.06 183.06
  Q 887.73 173.34 900.19 174.99
  A 0.58 0.57 4.0 0 1 900.69 175.56
  L 900.74 190.24
  A 0.71 0.70 5.4 0 1 899.89 190.93
  Q 895.10 189.99 890.53 191.32
  Q 886.18 192.59 882.95 196.17
  Q 877.90 201.78 877.75 209.25
  Q 877.32 230.37 877.51 252.49
  A 0.51 0.51 0.0 0 1 877.00 253.00
  L 861.14 253.00
  A 0.65 0.64 -90.0 0 1 860.50 252.35
  L 860.19 176.93
  A 0.53 0.50 -90.0 0 1 860.69 176.40
  L 874.06 176.41
  A 0.57 0.55 87.8 0 1 874.61 176.94
  L 875.54 190.70
  Q 875.57 191.17 875.78 190.73
  Z"
/>
<path fill="#ffffff" d="
  M 925.83 219.07
  Q 926.52 239.54 946.75 241.25
  Q 957.62 242.17 969.70 238.22
  A 0.49 0.45 -15.1 0 1 970.32 238.54
  L 972.59 249.34
  A 0.62 0.57 -16.9 0 1 972.19 250.02
  Q 957.74 255.31 942.50 254.20
  Q 928.76 253.20 920.06 244.42
  Q 913.53 237.83 910.72 227.03
  Q 905.75 207.84 916.31 190.06
  Q 923.23 178.42 937.49 175.45
  Q 947.46 173.37 956.44 176.50
  Q 964.07 179.15 969.06 185.13
  Q 974.15 191.21 975.87 199.47
  Q 977.69 208.16 976.65 217.94
  A 0.63 0.62 -86.9 0 1 976.03 218.50
  L 926.32 218.56
  A 0.49 0.49 88.9 0 0 925.83 219.07
  Z
  M 931.17 192.67
  Q 926.59 198.41 925.72 205.99
  A 0.46 0.46 3.3 0 0 926.18 206.50
  L 960.19 206.44
  A 0.52 0.51 -89.4 0 0 960.70 205.93
  Q 960.85 198.61 957.50 193.25
  Q 954.12 187.84 947.82 186.64
  Q 937.53 184.69 931.17 192.67
  Z"
/>
<path fill="#000000" d="
  M 931.17 192.67
  Q 937.53 184.69 947.82 186.64
  Q 954.12 187.84 957.50 193.25
  Q 960.85 198.61 960.70 205.93
  A 0.52 0.51 -89.4 0 1 960.19 206.44
  L 926.18 206.50
  A 0.46 0.46 3.3 0 1 925.72 205.99
  Q 926.59 198.41 931.17 192.67
  Z"
/>
<path fill="#000000" d="
  M 793.63 194.89
  Q 796.22 191.51 799.82 189.55
  Q 803.26 187.68 807.48 187.52
  Q 816.91 187.17 822.44 195.06
  Q 827.28 201.97 827.86 210.73
  Q 828.30 217.37 827.13 223.23
  Q 825.85 229.65 821.94 234.94
  Q 819.45 238.30 815.72 240.25
  Q 812.07 242.16 808.03 242.27
  Q 801.27 242.45 795.94 237.56
  Q 791.31 233.30 789.49 227.25
  Q 786.38 216.96 788.69 205.94
  Q 790.01 199.59 793.63 194.89
  Z"
/>
<path fill="#000000" d="
  M 555.20 193.94
  Q 558.12 190.43 562.21 189.18
  Q 565.95 188.03 570.34 188.40
  Q 575.75 188.85 579.94 192.56
  Q 584.38 196.50 586.44 202.65
  Q 588.73 209.50 588.30 216.47
  Q 587.82 224.32 585.24 229.80
  Q 582.73 235.14 577.72 238.33
  Q 573.12 241.26 567.24 241.15
  Q 555.27 240.92 551.30 229.91
  Q 549.94 226.16 549.75 219.04
  Q 549.56 211.91 549.75 208.00
  Q 550.14 200.01 555.20 193.94
  Z"
/>
<path fill="#000000" d="
  M 466.24 194.73
  Q 472.05 187.32 481.76 188.42
  Q 488.43 189.18 492.74 193.44
  Q 496.19 196.85 498.40 203.39
  Q 502.36 215.14 498.15 226.60
  Q 495.31 234.35 490.33 237.95
  Q 486.14 240.99 480.70 241.27
  Q 475.58 241.54 471.09 239.31
  Q 462.47 235.01 461.60 223.99
  Q 460.84 214.41 461.50 206.50
  Q 462.04 200.09 466.24 194.73
  Z"
/>
</svg>
