<?xml version="1.0" encoding="UTF-8" standalone="no"?>
<svg xmlns="http://www.w3.org/2000/svg" version="1.2" baseProfile="tiny" viewBox="0 0 1080 322">
<g stroke-width="2.00" fill="none" stroke-linecap="butt">
<path stroke="#808080" vector-effect="non-scaling-stroke" d="
  M 330.63 73.31
  Q 329.20 84.16 318.94 86.69
  Q 310.36 88.80 303.86 84.42
  Q 298.09 80.53 295.96 73.77
  Q 293.70 66.61 297.56 59.56
  Q 302.41 50.73 311.50 49.50
  Q 319.68 48.39 326.37 54.41
  A 0.68 0.51 42.8 0 0 327.18 54.49
  L 330.08 51.60
  A 1.14 1.01 43.1 0 0 329.94 50.04
  Q 325.18 45.78 319.23 44.61
  Q 308.73 42.53 300.67 47.62
  Q 294.72 51.37 291.74 57.64
  Q 288.75 63.95 289.57 71.49
  Q 290.71 81.91 298.32 87.78
  Q 302.21 90.78 307.27 92.13
  Q 312.48 93.52 317.44 92.69
  Q 338.09 89.21 336.60 67.68
  A 0.55 0.54 -1.1 0 0 336.06 67.17
  L 314.38 67.01
  A 0.64 0.63 90.0 0 0 313.75 67.65
  L 313.75 71.97
  A 0.58 0.55 0.5 0 0 314.32 72.52
  L 330.20 72.78
  A 0.47 0.45 -85.4 0 1 330.63 73.31"
/>
<path stroke="#808080" vector-effect="non-scaling-stroke" d="
  M 541.27 68.45
  A 24.43 24.43 0.0 0 0 516.84 44.02
  A 24.43 24.43 0.0 0 0 492.41 68.45
  A 24.43 24.43 0.0 0 0 516.84 92.88
  A 24.43 24.43 0.0 0 0 541.27 68.45"
/>
<path stroke="#808080" vector-effect="non-scaling-stroke" d="
  M 371.78 91.99
  Q 372.32 89.31 371.80 86.80
  A 0.64 0.61 -5.1 0 0 371.19 86.31
  L 350.94 86.07
  A 0.50 0.50 0.0 0 1 350.44 85.57
  L 350.50 72.01
  A 0.52 0.51 89.4 0 1 351.00 71.49
  L 369.25 71.25
  A 0.62 0.49 -0.6 0 0 369.86 70.76
  L 369.85 66.66
  A 1.07 0.94 0.0 0 0 368.79 65.73
  L 350.94 65.58
  A 0.53 0.52 0.0 0 1 350.41 65.06
  L 350.41 51.18
  A 0.54 0.51 -0.6 0 1 350.94 50.67
  L 371.18 50.44
  A 0.70 0.63 5.9 0 0 371.83 49.96
  Q 372.45 47.67 371.68 45.46
  A 0.72 0.68 -9.1 0 0 371.01 45.00
  L 345.00 45.00
  A 0.50 0.50 0.0 0 0 344.50 45.50
  L 344.50 91.69
  A 0.56 0.55 90.0 0 0 345.05 92.25
  L 371.54 92.19
  A 0.25 0.24 -84.2 0 0 371.78 91.99"
/>
<path stroke="#808080" vector-effect="non-scaling-stroke" d="
  M 396.25 51.37
  A 0.87 0.86 -0.3 0 1 397.12 50.50
  L 408.96 50.50
  A 0.52 0.50 -0.5 0 0 409.48 49.99
  L 409.46 45.56
  A 0.53 0.50 0.0 0 0 408.93 45.06
  L 378.12 45.00
  A 0.88 0.87 90.0 0 0 377.25 45.88
  L 377.25 49.99
  A 0.52 0.51 0.0 0 0 377.77 50.50
  L 389.80 50.55
  A 0.73 0.71 -89.6 0 1 390.50 51.28
  L 390.56 91.68
  A 0.53 0.51 -89.4 0 0 391.06 92.21
  L 394.66 92.27
  Q 396.53 92.30 396.52 90.33
  L 396.25 51.37"
/>
<path stroke="#808080" vector-effect="non-scaling-stroke" d="
  M 436.28 45.26
  A 0.26 0.26 0.0 0 0 436.02 45.00
  L 430.76 45.00
  A 0.26 0.26 0.0 0 0 430.50 45.26
  L 430.50 91.98
  A 0.26 0.26 0.0 0 0 430.76 92.24
  L 436.02 92.24
  A 0.26 0.26 0.0 0 0 436.28 91.98
  L 436.28 45.26"
/>
<path stroke="#808080" vector-effect="non-scaling-stroke" d="
  M 462.55 50.77
  L 474.15 50.53
  A 0.95 0.84 -1.3 0 0 475.08 49.67
  L 474.98 45.56
  A 0.54 0.51 -0.5 0 0 474.44 45.06
  L 443.89 45.00
  A 1.11 1.08 0.0 0 0 442.78 46.08
  L 442.78 49.94
  A 0.54 0.51 0.6 0 0 443.31 50.45
  L 455.33 50.50
  A 0.67 0.67 0.4 0 1 456.00 51.17
  L 456.06 91.45
  A 0.62 0.49 90.0 0 0 456.55 92.07
  L 461.01 92.05
  A 1.14 0.99 90.0 0 0 462.00 90.91
  L 462.06 51.31
  A 0.54 0.50 89.5 0 1 462.55 50.77"
/>
<path stroke="#808080" vector-effect="non-scaling-stroke" d="
  M 554.55 54.48
  Q 554.56 53.56 555.05 54.35
  L 578.17 91.63
  A 1.05 0.83 71.3 0 0 578.94 92.13
  L 583.86 92.18
  A 0.95 0.88 -89.7 0 0 584.75 91.23
  L 584.69 45.82
  A 0.62 0.50 -89.5 0 0 584.20 45.20
  L 579.44 45.10
  A 0.60 0.51 -88.4 0 0 578.92 45.68
  Q 578.35 63.56 579.17 81.10
  Q 579.24 82.61 578.45 81.33
  L 556.28 45.56
  A 1.19 1.19 74.0 0 0 555.27 45.00
  L 549.00 45.00
  A 0.50 0.50 0.0 0 0 548.50 45.50
  L 548.50 91.61
  A 0.62 0.61 90.0 0 0 549.11 92.23
  L 553.69 92.21
  A 0.54 0.50 -89.4 0 0 554.19 91.68
  L 554.55 54.48"
/>
<path stroke="#225660" vector-effect="non-scaling-stroke" d="
  M 95.31 106.78
  Q 90.95 107.17 89.31 112.06
  Q 88.06 115.80 88.54 120.75"
/>
<path stroke="#265f62" vector-effect="non-scaling-stroke" d="
  M 88.54 120.75
  L 88.64 137.72"
/>
<path stroke="#286564" vector-effect="non-scaling-stroke" d="
  M 88.64 137.72
  L 88.54 147.75"
/>
<path stroke="#2b6b65" vector-effect="non-scaling-stroke" d="
  M 88.54 147.75
  L 88.54 161.00"
/>
<path stroke="#2d7167" vector-effect="non-scaling-stroke" d="
  M 88.54 161.00
  L 88.54 169.75"
/>
<path stroke="#2f7768" vector-effect="non-scaling-stroke" d="
  M 88.54 169.75
  L 88.54 183.00"
/>
<path stroke="#327c69" vector-effect="non-scaling-stroke" d="
  M 88.54 183.00
  L 88.55 192.98"
/>
<path stroke="#33806a" vector-effect="non-scaling-stroke" d="
  M 88.55 192.98
  Q 88.46 225.52 88.50 258.00
  Q 88.51 263.96 94.25 266.46"
/>
<path stroke="#541c54" vector-effect="non-scaling-stroke" d="
  M 94.25 266.46
  Q 98.71 267.64 103.56 265.06
  Q 116.87 258.00 130.04 250.79"
/>
<path stroke="#5c1e48" vector-effect="non-scaling-stroke" d="
  M 130.04 250.79
  L 150.54 239.50"
/>
<path stroke="#611e40" vector-effect="non-scaling-stroke" d="
  M 150.54 239.50
  Q 156.72 236.64 161.14 233.53"
/>
<path stroke="#651f3a" vector-effect="non-scaling-stroke" d="
  M 161.14 233.53
  L 168.54 229.75"
/>
<path stroke="#6a2033" vector-effect="non-scaling-stroke" d="
  M 168.54 229.75
  L 199.29 213.00"
/>
<path stroke="#806233" vector-effect="non-scaling-stroke" d="
  M 199.29 213.00
  Q 225.86 198.98 235.06 193.31
  Q 239.90 190.33 238.80 185.64
  Q 238.15 182.87 235.43 180.79
  Q 233.38 179.23 230.25 177.50
  Q 214.84 168.99 199.29 160.75"
/>
<path stroke="#657d52" vector-effect="non-scaling-stroke" d="
  M 199.29 160.75
  L 177.11 148.80"
/>
<path stroke="#5d7954" vector-effect="non-scaling-stroke" d="
  M 177.11 148.80
  L 161.54 140.25"
/>
<path stroke="#557655" vector-effect="non-scaling-stroke" d="
  M 161.54 140.25
  L 154.50 136.29"
/>
<path stroke="#4f7356" vector-effect="non-scaling-stroke" d="
  M 154.50 136.29
  L 137.25 126.96"
/>
<path stroke="#436e58" vector-effect="non-scaling-stroke" d="
  M 137.25 126.96
  Q 121.19 117.98 104.96 109.30
  Q 104.89 109.26 102.77 107.92
  Q 99.68 105.95 95.31 106.78"
/>
<path stroke="#91e0ae" vector-effect="non-scaling-stroke" d="
  M 137.25 126.96
  Q 136.54 127.43 136.98 128.07
  Q 137.20 128.39 137.78 128.59
  Q 141.45 129.84 143.96 132.79
  Q 144.65 133.60 144.13 134.19
  A 1.41 0.77 -36.2 0 0 143.75 135.00
  Q 143.81 143.60 143.93 152.19
  Q 143.96 154.12 142.50 155.29"
/>
<path stroke="#6bd3bc" vector-effect="non-scaling-stroke" d="
  M 142.50 155.29
  L 133.50 146.46"
/>
<path stroke="#68ccba" vector-effect="non-scaling-stroke" d="
  M 133.50 146.46
  L 117.29 129.75"
/>
<path stroke="#64c3b8" vector-effect="non-scaling-stroke" d="
  M 117.29 129.75
  Q 105.94 118.70 95.31 106.78"
/>
<path stroke="#53d0c9" vector-effect="non-scaling-stroke" d="
  M 144.04 157.00
  L 91.23 157.25
  A 1.47 1.46 -0.4 0 1 89.75 155.80
  Q 89.71 151.92 88.54 147.75"
/>
<path stroke="#47b4c2" vector-effect="non-scaling-stroke" d="
  M 117.29 129.75
  L 117.20 130.10
  A 0.54 0.45 4.6 0 1 116.70 130.45
  Q 101.25 130.90 96.25 130.75
  Q 93.03 130.65 91.30 131.06
  A 0.64 0.58 -18.3 0 1 90.60 130.75
  Q 90.29 130.08 90.07 129.38
  Q 89.83 128.63 89.94 127.48
  Q 90.26 123.94 88.54 120.75"
/>
<path stroke="#4ec4c6" vector-effect="non-scaling-stroke" d="
  M 133.50 146.46
  L 91.31 146.68
  A 0.67 0.63 -6.7 0 1 90.67 146.20
  L 88.64 137.72"
/>
<path stroke="#a4e8aa" vector-effect="non-scaling-stroke" d="
  M 154.50 136.29
  Q 154.23 137.25 154.86 137.92
  A 0.30 0.25 -36.2 0 1 154.76 138.34
  L 154.32 138.61
  A 1.17 0.61 83.3 0 0 153.98 139.50
  L 153.74 163.50
  A 0.63 0.51 -8.5 0 1 153.26 164.02
  Q 152.51 164.22 152.71 165.50"
/>
<path stroke="#79debb" vector-effect="non-scaling-stroke" d="
  M 152.71 165.50
  L 144.04 157.00"
/>
<path stroke="#77d8b9" vector-effect="non-scaling-stroke" d="
  M 144.04 157.00
  L 142.50 155.29"
/>
<path stroke="#58dccc" vector-effect="non-scaling-stroke" d="
  M 154.00 167.21
  Q 148.28 168.24 142.44 168.15
  Q 116.63 167.77 90.82 168.18
  A 0.53 0.53 87.1 0 1 90.28 167.69
  Q 90.03 164.20 88.54 161.00"
/>
<path stroke="#b2efa8" vector-effect="non-scaling-stroke" d="
  M 161.54 140.25
  Q 160.91 141.32 162.19 141.81
  Q 165.30 143.02 165.91 145.94
  Q 165.98 146.26 166.04 151.07
  Q 166.20 163.54 166.00 176.13
  A 0.33 0.33 11.2 0 1 165.55 176.43
  Q 164.52 176.04 163.71 176.75"
/>
<path stroke="#82e7bb" vector-effect="non-scaling-stroke" d="
  M 163.71 176.75
  L 154.00 167.21"
/>
<path stroke="#80e1ba" vector-effect="non-scaling-stroke" d="
  M 154.00 167.21
  L 152.71 165.50"
/>
<path stroke="#5ce8cf" vector-effect="non-scaling-stroke" d="
  M 165.04 178.25
  Q 160.79 179.69 155.50 179.50
  Q 136.02 178.80 111.00 179.13
  Q 102.62 179.24 94.25 179.02
  Q 92.24 178.96 91.59 179.34
  A 1.21 1.21 -15.4 0 1 89.77 178.31
  Q 89.71 173.14 88.54 169.75"
/>
<path stroke="#c2f6a6" vector-effect="non-scaling-stroke" d="
  M 177.11 148.80
  Q 178.76 151.78 183.25 153.50
  Q 185.66 154.42 185.38 156.77
  Q 185.04 159.70 185.04 159.77
  Q 185.18 166.12 184.61 172.44
  A 0.64 0.51 13.2 0 0 185.06 173.01
  Q 185.77 173.23 185.54 174.25"
/>
<path stroke="#dddb87" vector-effect="non-scaling-stroke" d="
  M 185.54 174.25
  L 173.21 186.75"
/>
<path stroke="#c79986" vector-effect="non-scaling-stroke" d="
  M 173.21 186.75
  L 173.04 186.75"
/>
<path stroke="#8cf0bc" vector-effect="non-scaling-stroke" d="
  M 173.04 186.75
  L 165.04 178.25"
/>
<path stroke="#8aeaba" vector-effect="non-scaling-stroke" d="
  M 165.04 178.25
  L 163.71 176.75"
/>
<path stroke="#99969b" vector-effect="non-scaling-stroke" d="
  M 173.04 186.75
  Q 172.53 187.53 171.77 187.93"
/>
<path stroke="#61f2d1" vector-effect="non-scaling-stroke" d="
  M 171.77 187.93
  Q 166.31 189.47 160.70 189.04
  Q 153.81 188.52 152.75 188.52
  Q 124.12 188.68 95.81 188.56
  Q 94.26 188.56 92.77 188.99
  Q 90.52 189.65 90.18 187.72
  Q 89.73 185.23 88.54 183.00"
/>
<path stroke="#ea8266" vector-effect="non-scaling-stroke" d="
  M 199.29 213.00
  L 173.21 186.75"
/>
<path stroke="#e5df85" vector-effect="non-scaling-stroke" d="
  M 199.29 160.75
  L 185.54 174.25"
/>
<path stroke="#cf3f6d" vector-effect="non-scaling-stroke" d="
  M 168.54 229.75
  Q 168.45 229.43 168.23 229.22
  A 0.38 0.32 50.8 0 1 168.24 228.68
  Q 169.83 227.71 171.19 226.43
  Q 171.49 226.14 171.51 225.85
  Q 171.55 225.41 171.21 225.18
  A 1.04 0.65 23.3 0 1 170.73 224.49
  Q 170.14 210.35 170.50 199.25
  Q 170.61 195.92 170.27 193.56
  A 0.62 0.56 -2.7 0 0 169.69 193.08
  Q 167.93 193.03 169.00 190.98"
/>
<path stroke="#9c9b9c" vector-effect="non-scaling-stroke" d="
  M 171.77 187.93
  L 169.00 190.98"
/>
<path stroke="#979ba3" vector-effect="non-scaling-stroke" d="
  M 169.00 190.98
  L 158.79 201.00"
/>
<path stroke="#65fbd3" vector-effect="non-scaling-stroke" d="
  M 158.79 201.00
  Q 159.28 198.96 157.31 198.94
  Q 147.81 198.83 145.00 199.00
  Q 143.20 199.11 142.23 198.90
  A 1.60 1.41 37.0 0 0 141.31 198.97
  Q 140.29 199.42 139.00 199.25
  Q 133.15 198.50 126.86 198.68
  Q 118.48 198.92 114.75 198.77
  Q 104.69 198.35 101.25 198.75
  Q 98.47 199.07 93.44 198.56
  Q 91.81 198.40 90.83 199.77
  A 0.32 0.30 -42.9 0 1 90.31 199.77
  Q 90.12 199.43 89.97 199.08
  Q 89.76 198.60 89.85 197.88
  Q 90.19 195.14 88.55 192.98"
/>
<path stroke="#c63d7a" vector-effect="non-scaling-stroke" d="
  M 161.14 233.53
  Q 159.80 218.37 160.59 203.19
  Q 160.67 201.63 159.72 202.49
  Q 158.35 203.73 158.71 201.25"
/>
<path stroke="#989fa4" vector-effect="non-scaling-stroke" d="
  M 158.71 201.25
  L 158.79 201.00"
/>
<path stroke="#949eaa" vector-effect="non-scaling-stroke" d="
  M 158.71 201.25
  L 147.21 213.00"
/>
<path stroke="#8f9db2" vector-effect="non-scaling-stroke" d="
  M 147.21 213.00
  L 129.21 231.00"
/>
<path stroke="#879cbe" vector-effect="non-scaling-stroke" d="
  M 129.21 231.00
  L 94.25 266.46"
/>
<path stroke="#bd3c87" vector-effect="non-scaling-stroke" d="
  M 150.54 239.50
  Q 149.54 239.14 149.79 238.40
  Q 150.06 237.62 150.07 237.55
  Q 150.54 234.19 150.44 230.81
  Q 150.27 225.29 150.27 225.20
  Q 150.31 216.21 150.19 213.81
  Q 150.13 212.67 149.31 212.55
  A 1.07 0.52 -56.4 0 0 148.56 212.99
  Q 148.06 213.59 147.21 213.00"
/>
<path stroke="#b03a9c" vector-effect="non-scaling-stroke" d="
  M 130.04 250.79
  Q 129.53 247.47 129.75 245.75
  Q 130.57 239.25 128.71 233.04
  A 0.79 0.63 -31.3 0 1 128.98 232.29
  Q 129.58 231.76 129.21 231.00"
/>
<path stroke="#808080" vector-effect="non-scaling-stroke" d="
  M 298.20 146.20
  Q 286.34 159.65 284.75 176.75
  Q 282.77 197.96 296.19 215.06
  Q 309.35 231.85 331.25 235.75
  Q 342.14 237.69 353.15 235.18
  Q 363.19 232.90 371.36 227.21
  Q 389.26 214.74 391.29 191.50
  Q 391.55 188.48 391.38 184.50
  Q 391.23 181.12 390.97 177.53
  A 0.85 0.84 -2.2 0 0 390.12 176.75
  L 341.35 176.49
  A 0.86 0.85 -89.3 0 0 340.49 177.34
  L 340.43 191.24
  A 0.51 0.51 0.0 0 0 340.94 191.75
  L 375.42 191.75
  A 0.45 0.44 -86.1 0 1 375.86 192.26
  Q 373.68 207.21 363.13 214.73
  Q 355.61 220.09 344.45 221.16
  Q 328.29 222.72 315.67 212.68
  Q 309.11 207.46 305.40 200.50
  Q 301.42 193.04 301.00 184.75
  Q 299.93 163.78 314.43 151.54
  Q 322.21 144.96 332.15 142.74
  Q 349.21 138.93 364.27 150.11
  Q 364.44 150.24 365.89 151.72
  Q 367.26 153.12 368.56 151.53
  Q 369.58 150.29 369.68 150.19
  Q 373.57 146.31 377.56 142.32
  A 0.50 0.49 -47.0 0 0 377.54 141.61
  Q 361.87 127.64 342.23 126.84
  Q 332.11 126.42 322.57 129.71
  Q 308.46 134.57 298.20 146.20"
/>
<path stroke="#808080" vector-effect="non-scaling-stroke" d="
  M 649.6500 130.9437
  A 0.43 0.43 0.0 0 0 649.2207 130.5129
  L 634.5208 130.4873
  A 0.43 0.43 0.0 0 0 634.0900 130.9165
  L 633.9100 234.0563
  A 0.43 0.43 0.0 0 0 634.3393 234.4871
  L 649.0392 234.5127
  A 0.43 0.43 0.0 0 0 649.4700 234.0835
  L 649.6500 130.9437"
/>
<path stroke="#808080" vector-effect="non-scaling-stroke" d="
  M 761.69 132.42
  Q 761.59 158.38 761.52 184.50
  Q 761.51 189.68 761.70 204.51
  Q 761.90 219.06 761.48 234.05
  A 0.92 0.92 -89.1 0 0 762.40 235.00
  L 776.69 235.00
  A 0.56 0.56 90.0 0 0 777.25 234.44
  L 777.25 195.72
  A 0.74 0.73 0.4 0 1 778.00 194.99
  Q 786.17 195.10 793.89 194.96
  Q 804.16 194.77 808.98 193.33
  Q 816.80 191.00 822.31 185.31
  Q 831.78 175.55 830.70 160.74
  Q 829.69 146.82 819.31 138.94
  Q 810.46 132.21 800.75 132.00
  Q 781.88 131.59 762.35 131.76
  A 0.66 0.66 90.0 0 0 761.69 132.42"
/>
<path stroke="#808080" vector-effect="non-scaling-stroke" d="
  M 860.00 132.18
  A 0.42 0.42 0.0 0 0 859.58 131.76
  L 844.92 131.76
  A 0.42 0.42 0.0 0 0 844.50 132.18
  L 844.50 234.58
  A 0.42 0.42 0.0 0 0 844.92 235.00
  L 859.58 235.00
  A 0.42 0.42 0.0 0 0 860.00 234.58
  L 860.00 132.18"
/>
<path stroke="#808080" vector-effect="non-scaling-stroke" d="
  M 922.27 225.82
  Q 922.87 229.80 922.33 234.20
  A 0.71 0.71 -86.4 0 0 923.03 235.00
  L 937.22 235.00
  A 0.77 0.77 -89.6 0 0 937.99 234.24
  Q 938.14 215.02 937.88 196.64
  Q 937.73 185.74 936.16 181.03
  Q 933.46 172.91 926.69 167.81
  Q 919.60 162.47 910.50 161.38
  Q 901.51 160.30 893.61 162.54
  Q 882.44 165.71 875.72 176.46
  A 0.95 0.94 28.8 0 0 876.12 177.81
  L 888.07 183.50
  A 0.91 0.89 29.6 0 0 889.22 183.20
  Q 892.93 177.63 899.33 176.14
  Q 910.10 173.64 918.06 180.94
  Q 921.65 184.22 921.92 190.20
  A 0.32 0.32 9.6 0 1 921.48 190.51
  Q 904.86 184.39 889.29 190.38
  Q 881.49 193.38 877.31 198.79
  Q 871.07 206.88 873.49 217.32
  Q 875.04 223.98 879.44 228.60
  Q 884.02 233.40 890.73 235.57
  Q 910.13 241.87 921.47 225.64
  Q 922.10 224.74 922.27 225.82"
/>
<path stroke="#808080" vector-effect="non-scaling-stroke" d="
  M 973.48 232.63
  L 957.56 266.22
  A 0.54 0.54 12.9 0 0 958.05 267.00
  L 974.38 267.00
  A 0.58 0.58 -78.4 0 0 974.91 266.65
  L 1018.74 166.03
  A 0.37 0.35 -77.4 0 0 1018.44 165.52
  L 1001.83 165.02
  A 1.47 1.38 -77.7 0 0 1000.48 165.95
  L 982.31 211.56
  Q 982.01 212.32 981.69 211.57
  L 961.95 165.84
  A 1.30 1.27 77.2 0 0 960.75 165.07
  L 944.60 165.50
  A 0.34 0.34 -12.5 0 0 944.29 165.98
  L 973.49 231.74
  A 1.07 1.06 46.0 0 1 973.48 232.63"
/>
<path stroke="#808080" vector-effect="non-scaling-stroke" d="
  M 400.95 187.17
  Q 396.24 197.61 399.00 209.50
  Q 403.36 228.26 422.25 234.75
  Q 431.68 237.99 441.39 235.78
  Q 450.59 233.69 457.77 227.27
  Q 468.00 218.11 468.94 204.22
  Q 469.64 193.83 465.10 184.87
  Q 459.91 174.59 449.45 169.56
  Q 440.96 165.48 431.55 165.94
  Q 421.59 166.43 413.58 172.00
  Q 405.14 177.87 400.95 187.17"
/>
<path stroke="#808080" vector-effect="non-scaling-stroke" d="
  M 546.7361 202.2526
  A 35.55 35.46 1.6 0 0 512.1901 165.8138
  A 35.55 35.46 1.6 0 0 475.6639 200.2674
  A 35.55 35.46 1.6 0 0 510.2099 236.7062
  A 35.55 35.46 1.6 0 0 546.7361 202.2526"
/>
<path stroke="#808080" vector-effect="non-scaling-stroke" d="
  M 677.02 211.62
  L 722.94 192.42
  A 0.55 0.55 -20.9 0 0 723.25 191.73
  Q 720.50 183.65 715.52 177.51
  Q 710.07 170.78 702.97 167.96
  Q 694.83 164.73 685.51 166.57
  Q 677.34 168.19 671.20 173.11
  Q 665.56 177.64 662.01 185.24
  Q 655.09 200.05 661.37 215.30
  Q 664.25 222.31 669.28 227.05
  Q 674.72 232.18 681.72 234.57
  Q 691.34 237.84 701.44 235.56
  Q 714.09 232.71 722.94 221.30
  A 0.47 0.45 35.2 0 0 722.81 220.63
  L 711.47 213.37
  A 0.76 0.72 33.0 0 0 710.46 213.56
  Q 704.81 221.94 694.49 222.33
  Q 682.22 222.80 676.79 212.26
  A 0.47 0.46 65.2 0 1 677.02 211.62"
/>
<path stroke="#808080" vector-effect="non-scaling-stroke" d="
  M 606.42 228.58
  Q 607.27 227.46 607.25 228.86
  Q 607.20 233.98 606.55 238.92
  Q 605.43 247.40 599.33 251.24
  Q 593.88 254.68 586.58 253.97
  Q 576.38 253.00 570.95 242.41
  A 0.66 0.65 -24.6 0 0 570.12 242.11
  L 558.10 246.99
  A 0.89 0.88 -24.0 0 0 557.63 248.19
  Q 563.67 260.95 576.07 265.85
  Q 580.86 267.74 586.27 268.03
  Q 591.60 268.32 596.79 267.26
  Q 603.85 265.83 608.97 262.16
  Q 614.73 258.04 617.69 251.69
  Q 621.66 243.17 621.75 236.00
  Q 622.18 203.38 621.99 169.06
  A 0.76 0.75 90.0 0 0 621.24 168.30
  L 607.82 168.30
  A 0.55 0.50 -88.2 0 0 607.32 168.82
  L 607.07 173.25
  Q 607.04 173.78 606.64 173.40
  Q 599.71 166.77 591.00 166.00
  Q 577.97 164.84 567.48 173.74
  Q 557.39 182.31 555.25 193.75
  Q 551.64 213.07 564.62 226.13
  Q 570.02 231.56 576.23 234.10
  Q 582.91 236.84 590.50 236.51
  Q 600.74 236.05 606.42 228.58"
/>
<path stroke="#808080" vector-effect="non-scaling-stroke" d="
  M 516.7087 87.3686
  A 18.93 18.11 90.7 0 0 535.0486 68.6612
  A 18.93 18.11 90.7 0 0 517.1713 49.5114
  A 18.93 18.11 90.7 0 0 498.8314 68.2188
  A 18.93 18.11 90.7 0 0 516.7087 87.3686"
/>
<path stroke="#808080" vector-effect="non-scaling-stroke" d="
  M 811.31 173.31
  Q 815.38 167.84 814.57 161.75
  Q 813.80 155.99 809.57 151.75
  Q 804.57 146.76 796.50 146.87
  Q 787.50 147.00 777.92 147.00
  A 0.67 0.67 90.0 0 0 777.25 147.67
  L 777.31 179.19
  A 0.51 0.50 0.0 0 0 777.82 179.69
  Q 794.17 179.86 798.50 179.75
  Q 806.68 179.55 811.31 173.31"
/>
<path stroke="#808080" vector-effect="non-scaling-stroke" d="
  M 890.94 207.19
  Q 887.19 213.33 890.98 217.50
  Q 893.67 220.47 898.89 221.41
  Q 905.99 222.70 912.06 218.81
  Q 919.26 214.20 922.20 206.14
  A 1.29 1.27 29.3 0 0 921.78 204.69
  Q 919.57 202.99 916.71 202.14
  Q 907.80 199.49 898.83 201.89
  Q 893.27 203.37 890.94 207.19"
/>
<path stroke="#808080" vector-effect="non-scaling-stroke" d="
  M 432.7070 222.4996
  A 21.39 19.96 92.5 0 0 453.5810 202.0006
  A 21.39 19.96 92.5 0 0 434.5730 179.7604
  A 21.39 19.96 92.5 0 0 413.6990 200.2594
  A 21.39 19.96 92.5 0 0 432.7070 222.4996"
/>
<path stroke="#808080" vector-effect="non-scaling-stroke" d="
  M 510.4462 222.4956
  A 21.39 19.95 92.1 0 0 531.1666 201.8510
  A 21.39 19.95 92.1 0 0 512.0138 179.7444
  A 21.39 19.95 92.1 0 0 491.2934 200.3890
  A 21.39 19.95 92.1 0 0 510.4462 222.4956"
/>
<path stroke="#808080" vector-effect="non-scaling-stroke" d="
  M 678.19 186.94
  Q 673.66 192.57 673.80 199.44
  A 0.35 0.34 -12.1 0 0 674.28 199.75
  L 705.04 187.19
  A 0.43 0.42 62.9 0 0 705.24 186.57
  Q 700.15 178.49 690.27 179.90
  Q 683.01 180.94 678.19 186.94"
/>
<path stroke="#808080" vector-effect="non-scaling-stroke" d="
  M 588.9902 222.6479
  A 21.47 19.18 90.8 0 0 608.4681 201.4478
  A 21.47 19.18 90.8 0 0 589.5898 179.7121
  A 21.47 19.18 90.8 0 0 570.1119 200.9122
  A 21.47 19.18 90.8 0 0 588.9902 222.6479"
/>
</g>
<path fill="#000000" d="
  M 1080.00 57.06
  L 1079.96 265.55
  Q 1078.91 290.51 1061.31 306.31
  Q 1047.44 318.78 1028.74 320.35
  Q 1023.94 320.75 1014.75 320.75
  Q 535.87 320.75 57.00 320.77
  Q 37.69 320.77 23.56 310.44
  Q 1.59 294.37 0.00 265.69
  L 0.00 56.19
  Q 1.06 35.13 14.06 20.31
  Q 27.78 4.69 48.03 1.87
  Q 52.46 1.25 67.99 1.25
  Q 544.62 1.25 1021.25 1.25
  Q 1032.48 1.25 1042.01 4.37
  Q 1051.26 7.40 1059.35 14.07
  Q 1078.69 30.02 1080.00 57.06
  Z
  M 330.63 73.31
  Q 329.20 84.16 318.94 86.69
  Q 310.36 88.80 303.86 84.42
  Q 298.09 80.53 295.96 73.77
  Q 293.70 66.61 297.56 59.56
  Q 302.41 50.73 311.50 49.50
  Q 319.68 48.39 326.37 54.41
  A 0.68 0.51 42.8 0 0 327.18 54.49
  L 330.08 51.60
  A 1.14 1.01 43.1 0 0 329.94 50.04
  Q 325.18 45.78 319.23 44.61
  Q 308.73 42.53 300.67 47.62
  Q 294.72 51.37 291.74 57.64
  Q 288.75 63.95 289.57 71.49
  Q 290.71 81.91 298.32 87.78
  Q 302.21 90.78 307.27 92.13
  Q 312.48 93.52 317.44 92.69
  Q 338.09 89.21 336.60 67.68
  A 0.55 0.54 -1.1 0 0 336.06 67.17
  L 314.38 67.01
  A 0.64 0.63 90.0 0 0 313.75 67.65
  L 313.75 71.97
  A 0.58 0.55 0.5 0 0 314.32 72.52
  L 330.20 72.78
  A 0.47 0.45 -85.4 0 1 330.63 73.31
  Z
  M 541.27 68.45
  A 24.43 24.43 0.0 0 0 516.84 44.02
  A 24.43 24.43 0.0 0 0 492.41 68.45
  A 24.43 24.43 0.0 0 0 516.84 92.88
  A 24.43 24.43 0.0 0 0 541.27 68.45
  Z
  M 371.78 91.99
  Q 372.32 89.31 371.80 86.80
  A 0.64 0.61 -5.1 0 0 371.19 86.31
  L 350.94 86.07
  A 0.50 0.50 0.0 0 1 350.44 85.57
  L 350.50 72.01
  A 0.52 0.51 89.4 0 1 351.00 71.49
  L 369.25 71.25
  A 0.62 0.49 -0.6 0 0 369.86 70.76
  L 369.85 66.66
  A 1.07 0.94 0.0 0 0 368.79 65.73
  L 350.94 65.58
  A 0.53 0.52 0.0 0 1 350.41 65.06
  L 350.41 51.18
  A 0.54 0.51 -0.6 0 1 350.94 50.67
  L 371.18 50.44
  A 0.70 0.63 5.9 0 0 371.83 49.96
  Q 372.45 47.67 371.68 45.46
  A 0.72 0.68 -9.1 0 0 371.01 45.00
  L 345.00 45.00
  A 0.50 0.50 0.0 0 0 344.50 45.50
  L 344.50 91.69
  A 0.56 0.55 90.0 0 0 345.05 92.25
  L 371.54 92.19
  A 0.25 0.24 -84.2 0 0 371.78 91.99
  Z
  M 396.25 51.37
  A 0.87 0.86 -0.3 0 1 397.12 50.50
  L 408.96 50.50
  A 0.52 0.50 -0.5 0 0 409.48 49.99
  L 409.46 45.56
  A 0.53 0.50 0.0 0 0 408.93 45.06
  L 378.12 45.00
  A 0.88 0.87 90.0 0 0 377.25 45.88
  L 377.25 49.99
  A 0.52 0.51 0.0 0 0 377.77 50.50
  L 389.80 50.55
  A 0.73 0.71 -89.6 0 1 390.50 51.28
  L 390.56 91.68
  A 0.53 0.51 -89.4 0 0 391.06 92.21
  L 394.66 92.27
  Q 396.53 92.30 396.52 90.33
  L 396.25 51.37
  Z
  M 436.28 45.26
  A 0.26 0.26 0.0 0 0 436.02 45.00
  L 430.76 45.00
  A 0.26 0.26 0.0 0 0 430.50 45.26
  L 430.50 91.98
  A 0.26 0.26 0.0 0 0 430.76 92.24
  L 436.02 92.24
  A 0.26 0.26 0.0 0 0 436.28 91.98
  L 436.28 45.26
  Z
  M 462.55 50.77
  L 474.15 50.53
  A 0.95 0.84 -1.3 0 0 475.08 49.67
  L 474.98 45.56
  A 0.54 0.51 -0.5 0 0 474.44 45.06
  L 443.89 45.00
  A 1.11 1.08 0.0 0 0 442.78 46.08
  L 442.78 49.94
  A 0.54 0.51 0.6 0 0 443.31 50.45
  L 455.33 50.50
  A 0.67 0.67 0.4 0 1 456.00 51.17
  L 456.06 91.45
  A 0.62 0.49 90.0 0 0 456.55 92.07
  L 461.01 92.05
  A 1.14 0.99 90.0 0 0 462.00 90.91
  L 462.06 51.31
  A 0.54 0.50 89.5 0 1 462.55 50.77
  Z
  M 554.55 54.48
  Q 554.56 53.56 555.05 54.35
  L 578.17 91.63
  A 1.05 0.83 71.3 0 0 578.94 92.13
  L 583.86 92.18
  A 0.95 0.88 -89.7 0 0 584.75 91.23
  L 584.69 45.82
  A 0.62 0.50 -89.5 0 0 584.20 45.20
  L 579.44 45.10
  A 0.60 0.51 -88.4 0 0 578.92 45.68
  Q 578.35 63.56 579.17 81.10
  Q 579.24 82.61 578.45 81.33
  L 556.28 45.56
  A 1.19 1.19 74.0 0 0 555.27 45.00
  L 549.00 45.00
  A 0.50 0.50 0.0 0 0 548.50 45.50
  L 548.50 91.61
  A 0.62 0.61 90.0 0 0 549.11 92.23
  L 553.69 92.21
  A 0.54 0.50 -89.4 0 0 554.19 91.68
  L 554.55 54.48
  Z
  M 95.31 106.78
  Q 90.95 107.17 89.31 112.06
  Q 88.06 115.80 88.54 120.75
  L 88.64 137.72
  L 88.54 147.75
  L 88.54 161.00
  L 88.54 169.75
  L 88.54 183.00
  L 88.55 192.98
  Q 88.46 225.52 88.50 258.00
  Q 88.51 263.96 94.25 266.46
  Q 98.71 267.64 103.56 265.06
  Q 116.87 258.00 130.04 250.79
  L 150.54 239.50
  Q 156.72 236.64 161.14 233.53
  L 168.54 229.75
  L 199.29 213.00
  Q 225.86 198.98 235.06 193.31
  Q 239.90 190.33 238.80 185.64
  Q 238.15 182.87 235.43 180.79
  Q 233.38 179.23 230.25 177.50
  Q 214.84 168.99 199.29 160.75
  L 177.11 148.80
  L 161.54 140.25
  L 154.50 136.29
  L 137.25 126.96
  Q 121.19 117.98 104.96 109.30
  Q 104.89 109.26 102.77 107.92
  Q 99.68 105.95 95.31 106.78
  Z
  M 298.20 146.20
  Q 286.34 159.65 284.75 176.75
  Q 282.77 197.96 296.19 215.06
  Q 309.35 231.85 331.25 235.75
  Q 342.14 237.69 353.15 235.18
  Q 363.19 232.90 371.36 227.21
  Q 389.26 214.74 391.29 191.50
  Q 391.55 188.48 391.38 184.50
  Q 391.23 181.12 390.97 177.53
  A 0.85 0.84 -2.2 0 0 390.12 176.75
  L 341.35 176.49
  A 0.86 0.85 -89.3 0 0 340.49 177.34
  L 340.43 191.24
  A 0.51 0.51 0.0 0 0 340.94 191.75
  L 375.42 191.75
  A 0.45 0.44 -86.1 0 1 375.86 192.26
  Q 373.68 207.21 363.13 214.73
  Q 355.61 220.09 344.45 221.16
  Q 328.29 222.72 315.67 212.68
  Q 309.11 207.46 305.40 200.50
  Q 301.42 193.04 301.00 184.75
  Q 299.93 163.78 314.43 151.54
  Q 322.21 144.96 332.15 142.74
  Q 349.21 138.93 364.27 150.11
  Q 364.44 150.24 365.89 151.72
  Q 367.26 153.12 368.56 151.53
  Q 369.58 150.29 369.68 150.19
  Q 373.57 146.31 377.56 142.32
  A 0.50 0.49 -47.0 0 0 377.54 141.61
  Q 361.87 127.64 342.23 126.84
  Q 332.11 126.42 322.57 129.71
  Q 308.46 134.57 298.20 146.20
  Z
  M 649.6500 130.9437
  A 0.43 0.43 0.0 0 0 649.2207 130.5129
  L 634.5208 130.4873
  A 0.43 0.43 0.0 0 0 634.0900 130.9165
  L 633.9100 234.0563
  A 0.43 0.43 0.0 0 0 634.3393 234.4871
  L 649.0392 234.5127
  A 0.43 0.43 0.0 0 0 649.4700 234.0835
  L 649.6500 130.9437
  Z
  M 761.69 132.42
  Q 761.59 158.38 761.52 184.50
  Q 761.51 189.68 761.70 204.51
  Q 761.90 219.06 761.48 234.05
  A 0.92 0.92 -89.1 0 0 762.40 235.00
  L 776.69 235.00
  A 0.56 0.56 90.0 0 0 777.25 234.44
  L 777.25 195.72
  A 0.74 0.73 0.4 0 1 778.00 194.99
  Q 786.17 195.10 793.89 194.96
  Q 804.16 194.77 808.98 193.33
  Q 816.80 191.00 822.31 185.31
  Q 831.78 175.55 830.70 160.74
  Q 829.69 146.82 819.31 138.94
  Q 810.46 132.21 800.75 132.00
  Q 781.88 131.59 762.35 131.76
  A 0.66 0.66 90.0 0 0 761.69 132.42
  Z
  M 860.00 132.18
  A 0.42 0.42 0.0 0 0 859.58 131.76
  L 844.92 131.76
  A 0.42 0.42 0.0 0 0 844.50 132.18
  L 844.50 234.58
  A 0.42 0.42 0.0 0 0 844.92 235.00
  L 859.58 235.00
  A 0.42 0.42 0.0 0 0 860.00 234.58
  L 860.00 132.18
  Z
  M 922.27 225.82
  Q 922.87 229.80 922.33 234.20
  A 0.71 0.71 -86.4 0 0 923.03 235.00
  L 937.22 235.00
  A 0.77 0.77 -89.6 0 0 937.99 234.24
  Q 938.14 215.02 937.88 196.64
  Q 937.73 185.74 936.16 181.03
  Q 933.46 172.91 926.69 167.81
  Q 919.60 162.47 910.50 161.38
  Q 901.51 160.30 893.61 162.54
  Q 882.44 165.71 875.72 176.46
  A 0.95 0.94 28.8 0 0 876.12 177.81
  L 888.07 183.50
  A 0.91 0.89 29.6 0 0 889.22 183.20
  Q 892.93 177.63 899.33 176.14
  Q 910.10 173.64 918.06 180.94
  Q 921.65 184.22 921.92 190.20
  A 0.32 0.32 9.6 0 1 921.48 190.51
  Q 904.86 184.39 889.29 190.38
  Q 881.49 193.38 877.31 198.79
  Q 871.07 206.88 873.49 217.32
  Q 875.04 223.98 879.44 228.60
  Q 884.02 233.40 890.73 235.57
  Q 910.13 241.87 921.47 225.64
  Q 922.10 224.74 922.27 225.82
  Z
  M 973.48 232.63
  L 957.56 266.22
  A 0.54 0.54 12.9 0 0 958.05 267.00
  L 974.38 267.00
  A 0.58 0.58 -78.4 0 0 974.91 266.65
  L 1018.74 166.03
  A 0.37 0.35 -77.4 0 0 1018.44 165.52
  L 1001.83 165.02
  A 1.47 1.38 -77.7 0 0 1000.48 165.95
  L 982.31 211.56
  Q 982.01 212.32 981.69 211.57
  L 961.95 165.84
  A 1.30 1.27 77.2 0 0 960.75 165.07
  L 944.60 165.50
  A 0.34 0.34 -12.5 0 0 944.29 165.98
  L 973.49 231.74
  A 1.07 1.06 46.0 0 1 973.48 232.63
  Z
  M 400.95 187.17
  Q 396.24 197.61 399.00 209.50
  Q 403.36 228.26 422.25 234.75
  Q 431.68 237.99 441.39 235.78
  Q 450.59 233.69 457.77 227.27
  Q 468.00 218.11 468.94 204.22
  Q 469.64 193.83 465.10 184.87
  Q 459.91 174.59 449.45 169.56
  Q 440.96 165.48 431.55 165.94
  Q 421.59 166.43 413.58 172.00
  Q 405.14 177.87 400.95 187.17
  Z
  M 546.7361 202.2526
  A 35.55 35.46 1.6 0 0 512.1901 165.8138
  A 35.55 35.46 1.6 0 0 475.6639 200.2674
  A 35.55 35.46 1.6 0 0 510.2099 236.7062
  A 35.55 35.46 1.6 0 0 546.7361 202.2526
  Z
  M 677.02 211.62
  L 722.94 192.42
  A 0.55 0.55 -20.9 0 0 723.25 191.73
  Q 720.50 183.65 715.52 177.51
  Q 710.07 170.78 702.97 167.96
  Q 694.83 164.73 685.51 166.57
  Q 677.34 168.19 671.20 173.11
  Q 665.56 177.64 662.01 185.24
  Q 655.09 200.05 661.37 215.30
  Q 664.25 222.31 669.28 227.05
  Q 674.72 232.18 681.72 234.57
  Q 691.34 237.84 701.44 235.56
  Q 714.09 232.71 722.94 221.30
  A 0.47 0.45 35.2 0 0 722.81 220.63
  L 711.47 213.37
  A 0.76 0.72 33.0 0 0 710.46 213.56
  Q 704.81 221.94 694.49 222.33
  Q 682.22 222.80 676.79 212.26
  A 0.47 0.46 65.2 0 1 677.02 211.62
  Z
  M 606.42 228.58
  Q 607.27 227.46 607.25 228.86
  Q 607.20 233.98 606.55 238.92
  Q 605.43 247.40 599.33 251.24
  Q 593.88 254.68 586.58 253.97
  Q 576.38 253.00 570.95 242.41
  A 0.66 0.65 -24.6 0 0 570.12 242.11
  L 558.10 246.99
  A 0.89 0.88 -24.0 0 0 557.63 248.19
  Q 563.67 260.95 576.07 265.85
  Q 580.86 267.74 586.27 268.03
  Q 591.60 268.32 596.79 267.26
  Q 603.85 265.83 608.97 262.16
  Q 614.73 258.04 617.69 251.69
  Q 621.66 243.17 621.75 236.00
  Q 622.18 203.38 621.99 169.06
  A 0.76 0.75 90.0 0 0 621.24 168.30
  L 607.82 168.30
  A 0.55 0.50 -88.2 0 0 607.32 168.82
  L 607.07 173.25
  Q 607.04 173.78 606.64 173.40
  Q 599.71 166.77 591.00 166.00
  Q 577.97 164.84 567.48 173.74
  Q 557.39 182.31 555.25 193.75
  Q 551.64 213.07 564.62 226.13
  Q 570.02 231.56 576.23 234.10
  Q 582.91 236.84 590.50 236.51
  Q 600.74 236.05 606.42 228.58
  Z"
/>
<path fill="#ffffff" d="
  M 330.20 72.78
  L 314.32 72.52
  A 0.58 0.55 0.5 0 1 313.75 71.97
  L 313.75 67.65
  A 0.64 0.63 90.0 0 1 314.38 67.01
  L 336.06 67.17
  A 0.55 0.54 -1.1 0 1 336.60 67.68
  Q 338.09 89.21 317.44 92.69
  Q 312.48 93.52 307.27 92.13
  Q 302.21 90.78 298.32 87.78
  Q 290.71 81.91 289.57 71.49
  Q 288.75 63.95 291.74 57.64
  Q 294.72 51.37 300.67 47.62
  Q 308.73 42.53 319.23 44.61
  Q 325.18 45.78 329.94 50.04
  A 1.14 1.01 43.1 0 1 330.08 51.60
  L 327.18 54.49
  A 0.68 0.51 42.8 0 1 326.37 54.41
  Q 319.68 48.39 311.50 49.50
  Q 302.41 50.73 297.56 59.56
  Q 293.70 66.61 295.96 73.77
  Q 298.09 80.53 303.86 84.42
  Q 310.36 88.80 318.94 86.69
  Q 329.20 84.16 330.63 73.31
  A 0.47 0.45 -85.4 0 0 330.20 72.78
  Z"
/>
<path fill="#ffffff" d="
  M 541.27 68.45
  A 24.43 24.43 0.0 0 1 516.84 92.88
  A 24.43 24.43 0.0 0 1 492.41 68.45
  A 24.43 24.43 0.0 0 1 516.84 44.02
  A 24.43 24.43 0.0 0 1 541.27 68.45
  Z
  M 516.7087 87.3686
  A 18.93 18.11 90.7 0 0 535.0486 68.6612
  A 18.93 18.11 90.7 0 0 517.1713 49.5114
  A 18.93 18.11 90.7 0 0 498.8314 68.2188
  A 18.93 18.11 90.7 0 0 516.7087 87.3686
  Z"
/>
<path fill="#ffffff" d="
  M 371.78 91.99
  A 0.25 0.24 -84.2 0 1 371.54 92.19
  L 345.05 92.25
  A 0.56 0.55 90.0 0 1 344.50 91.69
  L 344.50 45.50
  A 0.50 0.50 0.0 0 1 345.00 45.00
  L 371.01 45.00
  A 0.72 0.68 -9.1 0 1 371.68 45.46
  Q 372.45 47.67 371.83 49.96
  A 0.70 0.63 5.9 0 1 371.18 50.44
  L 350.94 50.67
  A 0.54 0.51 -0.6 0 0 350.41 51.18
  L 350.41 65.06
  A 0.53 0.52 0.0 0 0 350.94 65.58
  L 368.79 65.73
  A 1.07 0.94 0.0 0 1 369.85 66.66
  L 369.86 70.76
  A 0.62 0.49 -0.6 0 1 369.25 71.25
  L 351.00 71.49
  A 0.52 0.51 89.4 0 0 350.50 72.01
  L 350.44 85.57
  A 0.50 0.50 0.0 0 0 350.94 86.07
  L 371.19 86.31
  A 0.64 0.61 -5.1 0 1 371.80 86.80
  Q 372.32 89.31 371.78 91.99
  Z"
/>
<path fill="#ffffff" d="
  M 396.25 51.37
  L 396.52 90.33
  Q 396.53 92.30 394.66 92.27
  L 391.06 92.21
  A 0.53 0.51 -89.4 0 1 390.56 91.68
  L 390.50 51.28
  A 0.73 0.71 -89.6 0 0 389.80 50.55
  L 377.77 50.50
  A 0.52 0.51 -0.0 0 1 377.25 49.99
  L 377.25 45.88
  A 0.88 0.87 90.0 0 1 378.12 45.00
  L 408.93 45.06
  A 0.53 0.50 -0.0 0 1 409.46 45.56
  L 409.48 49.99
  A 0.52 0.50 -0.5 0 1 408.96 50.50
  L 397.12 50.50
  A 0.87 0.86 -0.3 0 0 396.25 51.37
  Z"
/>
<rect fill="#ffffff" x="430.50" y="45.00" width="5.78" height="47.24" rx="0.26"/>
<path fill="#ffffff" d="
  M 462.06 51.31
  L 462.00 90.91
  A 1.14 0.99 90.0 0 1 461.01 92.05
  L 456.55 92.07
  A 0.62 0.49 90.0 0 1 456.06 91.45
  L 456.00 51.17
  A 0.67 0.67 -0.2 0 0 455.33 50.50
  L 443.31 50.45
  A 0.54 0.51 0.6 0 1 442.78 49.94
  L 442.78 46.08
  A 1.11 1.08 -0.0 0 1 443.89 45.00
  L 474.44 45.06
  A 0.54 0.51 -0.5 0 1 474.98 45.56
  L 475.08 49.67
  A 0.95 0.84 -1.3 0 1 474.15 50.53
  L 462.55 50.77
  A 0.54 0.50 89.5 0 0 462.06 51.31
  Z"
/>
<path fill="#ffffff" d="
  M 554.55 54.48
  L 554.19 91.68
  A 0.54 0.50 -89.4 0 1 553.69 92.21
  L 549.11 92.23
  A 0.62 0.61 -90.0 0 1 548.50 91.61
  L 548.50 45.50
  A 0.50 0.50 0.0 0 1 549.00 45.00
  L 555.27 45.00
  A 1.19 1.19 74.0 0 1 556.28 45.56
  L 578.45 81.33
  Q 579.24 82.61 579.17 81.10
  Q 578.35 63.56 578.92 45.68
  A 0.60 0.51 -88.4 0 1 579.44 45.10
  L 584.20 45.20
  A 0.62 0.50 -89.5 0 1 584.69 45.82
  L 584.75 91.23
  A 0.95 0.88 -89.7 0 1 583.86 92.18
  L 578.94 92.13
  A 1.05 0.83 71.3 0 1 578.17 91.63
  L 555.05 54.35
  Q 554.56 53.56 554.55 54.48
  Z"
/>
<ellipse fill="#000000" cx="0.00" cy="0.00" transform="translate(516.94,68.44) rotate(90.7)" rx="18.93" ry="18.11"/>
<path fill="#85dbb0" d="
  M 137.25 126.96
  Q 136.54 127.43 136.98 128.07
  Q 137.20 128.39 137.78 128.59
  Q 141.45 129.84 143.96 132.79
  Q 144.65 133.60 144.13 134.19
  A 1.41 0.77 -36.2 0 0 143.75 135.00
  Q 143.81 143.60 143.93 152.19
  Q 143.96 154.12 142.50 155.29
  L 133.50 146.46
  L 117.29 129.75
  Q 105.94 118.70 95.31 106.78
  Q 99.68 105.95 102.77 107.92
  Q 104.89 109.26 104.96 109.30
  Q 121.19 117.98 137.25 126.96
  Z"
/>
<path fill="#43abc0" d="
  M 95.31 106.78
  Q 105.94 118.70 117.29 129.75
  L 117.20 130.10
  A 0.54 0.45 4.6 0 1 116.70 130.45
  Q 101.25 130.90 96.25 130.75
  Q 93.03 130.65 91.30 131.06
  A 0.64 0.58 -18.3 0 1 90.60 130.75
  Q 90.29 130.08 90.07 129.38
  Q 89.83 128.63 89.94 127.48
  Q 90.26 123.94 88.54 120.75
  Q 88.06 115.80 89.31 112.06
  Q 90.95 107.17 95.31 106.78
  Z"
/>
<path fill="#4bbdc4" d="
  M 88.54 120.75
  Q 90.26 123.94 89.94 127.48
  Q 89.83 128.63 90.07 129.38
  Q 90.29 130.08 90.60 130.75
  A 0.64 0.58 -18.3 0 0 91.30 131.06
  Q 93.03 130.65 96.25 130.75
  Q 101.25 130.90 116.70 130.45
  A 0.54 0.45 4.6 0 0 117.20 130.10
  L 117.29 129.75
  L 133.50 146.46
  L 91.31 146.68
  A 0.67 0.63 -6.7 0 1 90.67 146.20
  L 88.64 137.72
  L 88.54 120.75
  Z"
/>
<path fill="#ffffff" d="
  M 298.20 146.20
  Q 308.46 134.57 322.57 129.71
  Q 332.11 126.42 342.23 126.84
  Q 361.87 127.64 377.54 141.61
  A 0.50 0.49 -47.0 0 1 377.56 142.32
  Q 373.57 146.31 369.68 150.19
  Q 369.58 150.29 368.56 151.53
  Q 367.26 153.12 365.89 151.72
  Q 364.44 150.24 364.27 150.11
  Q 349.21 138.93 332.15 142.74
  Q 322.21 144.96 314.43 151.54
  Q 299.93 163.78 301.00 184.75
  Q 301.42 193.04 305.40 200.50
  Q 309.11 207.46 315.67 212.68
  Q 328.29 222.72 344.45 221.16
  Q 355.61 220.09 363.13 214.73
  Q 373.68 207.21 375.86 192.26
  A 0.45 0.44 -86.1 0 0 375.42 191.75
  L 340.94 191.75
  A 0.51 0.51 0.0 0 1 340.43 191.24
  L 340.49 177.34
  A 0.86 0.85 -89.3 0 1 341.35 176.49
  L 390.12 176.75
  A 0.85 0.84 -2.2 0 1 390.97 177.53
  Q 391.23 181.12 391.38 184.50
  Q 391.55 188.48 391.29 191.50
  Q 389.26 214.74 371.36 227.21
  Q 363.19 232.90 353.15 235.18
  Q 342.14 237.69 331.25 235.75
  Q 309.35 231.85 296.19 215.06
  Q 282.77 197.96 284.75 176.75
  Q 286.34 159.65 298.20 146.20
  Z"
/>
<path fill="#9de5ab" d="
  M 137.25 126.96
  L 154.50 136.29
  Q 154.23 137.25 154.86 137.92
  A 0.30 0.25 -36.2 0 1 154.76 138.34
  L 154.32 138.61
  A 1.17 0.61 83.3 0 0 153.98 139.50
  L 153.74 163.50
  A 0.63 0.51 -8.5 0 1 153.26 164.02
  Q 152.51 164.22 152.71 165.50
  L 144.04 157.00
  L 142.50 155.29
  Q 143.96 154.12 143.93 152.19
  Q 143.81 143.60 143.75 135.00
  A 1.41 0.77 -36.2 0 1 144.13 134.19
  Q 144.65 133.60 143.96 132.79
  Q 141.45 129.84 137.78 128.59
  Q 137.20 128.39 136.98 128.07
  Q 136.54 127.43 137.25 126.96
  Z"
/>
<rect fill="#ffffff" x="-7.78" y="-52.00" transform="translate(641.78,182.50) rotate(0.1)" width="15.56" height="104.00" rx="0.43"/>
<path fill="#ffffff" d="
  M 761.69 132.42
  A 0.66 0.66 -89.5 0 1 762.35 131.76
  Q 781.88 131.59 800.75 132.00
  Q 810.46 132.21 819.31 138.94
  Q 829.69 146.82 830.70 160.74
  Q 831.78 175.55 822.31 185.31
  Q 816.80 191.00 808.98 193.33
  Q 804.16 194.77 793.89 194.96
  Q 786.17 195.10 778.00 194.99
  A 0.74 0.73 0.4 0 0 777.25 195.72
  L 777.25 234.44
  A 0.56 0.56 89.8 0 1 776.69 235.00
  L 762.40 235.00
  A 0.92 0.92 -89.1 0 1 761.48 234.05
  Q 761.90 219.06 761.70 204.51
  Q 761.51 189.68 761.52 184.50
  Q 761.59 158.38 761.69 132.42
  Z
  M 811.31 173.31
  Q 815.38 167.84 814.57 161.75
  Q 813.80 155.99 809.57 151.75
  Q 804.57 146.76 796.50 146.87
  Q 787.50 147.00 777.92 147.00
  A 0.67 0.67 90.0 0 0 777.25 147.67
  L 777.31 179.19
  A 0.51 0.50 0.0 0 0 777.82 179.69
  Q 794.17 179.86 798.50 179.75
  Q 806.68 179.55 811.31 173.31
  Z"
/>
<rect fill="#ffffff" x="844.50" y="131.76" width="15.50" height="103.24" rx="0.42"/>
<path fill="#aaeba9" d="
  M 154.50 136.29
  L 161.54 140.25
  Q 160.91 141.32 162.19 141.81
  Q 165.30 143.02 165.91 145.94
  Q 165.98 146.26 166.04 151.07
  Q 166.20 163.54 166.00 176.13
  A 0.33 0.33 11.2 0 1 165.55 176.43
  Q 164.52 176.04 163.71 176.75
  L 154.00 167.21
  L 152.71 165.50
  Q 152.51 164.22 153.26 164.02
  A 0.63 0.51 -8.5 0 0 153.74 163.50
  L 153.98 139.50
  A 1.17 0.61 83.3 0 1 154.32 138.61
  L 154.76 138.34
  A 0.30 0.25 -36.2 0 0 154.86 137.92
  Q 154.23 137.25 154.50 136.29
  Z"
/>
<path fill="#50cac7" d="
  M 88.64 137.72
  L 90.67 146.20
  A 0.67 0.63 -6.7 0 0 91.31 146.68
  L 133.50 146.46
  L 142.50 155.29
  L 144.04 157.00
  L 91.23 157.25
  A 1.47 1.46 -0.4 0 1 89.75 155.80
  Q 89.71 151.92 88.54 147.75
  L 88.64 137.72
  Z"
/>
<path fill="#baf2a7" d="
  M 161.54 140.25
  L 177.11 148.80
  Q 178.76 151.78 183.25 153.50
  Q 185.66 154.42 185.38 156.77
  Q 185.04 159.70 185.04 159.77
  Q 185.18 166.12 184.61 172.44
  A 0.64 0.51 13.2 0 0 185.06 173.01
  Q 185.77 173.23 185.54 174.25
  L 173.21 186.75
  L 173.04 186.75
  L 165.04 178.25
  L 163.71 176.75
  Q 164.52 176.04 165.55 176.43
  A 0.33 0.33 11.2 0 0 166.00 176.13
  Q 166.20 163.54 166.04 151.07
  Q 165.98 146.26 165.91 145.94
  Q 165.30 143.02 162.19 141.81
  Q 160.91 141.32 161.54 140.25
  Z"
/>
<path fill="#000000" d="
  M 811.31 173.31
  Q 806.68 179.55 798.50 179.75
  Q 794.17 179.86 777.82 179.69
  A 0.51 0.50 0.0 0 1 777.31 179.19
  L 777.25 147.67
  A 0.67 0.67 -89.8 0 1 777.92 147.00
  Q 787.50 147.00 796.50 146.87
  Q 804.57 146.76 809.57 151.75
  Q 813.80 155.99 814.57 161.75
  Q 815.38 167.84 811.31 173.31
  Z"
/>
<path fill="#55d6ca" d="
  M 88.54 147.75
  Q 89.71 151.92 89.75 155.80
  A 1.47 1.46 -0.4 0 0 91.23 157.25
  L 144.04 157.00
  L 152.71 165.50
  L 154.00 167.21
  Q 148.28 168.24 142.44 168.15
  Q 116.63 167.77 90.82 168.18
  A 0.53 0.53 87.1 0 1 90.28 167.69
  Q 90.03 164.20 88.54 161.00
  L 88.54 147.75
  Z"
/>
<path fill="#cafaa4" d="
  M 177.11 148.80
  L 199.29 160.75
  L 185.54 174.25
  Q 185.77 173.23 185.06 173.01
  A 0.64 0.51 13.2 0 1 184.61 172.44
  Q 185.18 166.12 185.04 159.77
  Q 185.04 159.70 185.38 156.77
  Q 185.66 154.42 183.25 153.50
  Q 178.76 151.78 177.11 148.80
  Z"
/>
<path fill="#ffc466" d="
  M 199.29 160.75
  Q 214.84 168.99 230.25 177.50
  Q 233.38 179.23 235.43 180.79
  Q 238.15 182.87 238.80 185.64
  Q 239.90 190.33 235.06 193.31
  Q 225.86 198.98 199.29 213.00
  L 173.21 186.75
  L 185.54 174.25
  L 199.29 160.75
  Z"
/>
<path fill="#5ae2cd" d="
  M 88.54 161.00
  Q 90.03 164.20 90.28 167.69
  A 0.53 0.53 87.1 0 0 90.82 168.18
  Q 116.63 167.77 142.44 168.15
  Q 148.28 168.24 154.00 167.21
  L 163.71 176.75
  L 165.04 178.25
  Q 160.79 179.69 155.50 179.50
  Q 136.02 178.80 111.00 179.13
  Q 102.62 179.24 94.25 179.02
  Q 92.24 178.96 91.59 179.34
  A 1.21 1.21 -15.4 0 1 89.77 178.31
  Q 89.71 173.14 88.54 169.75
  L 88.54 161.00
  Z"
/>
<path fill="#ffffff" d="
  M 922.27 225.82
  Q 922.10 224.74 921.47 225.64
  Q 910.13 241.87 890.73 235.57
  Q 884.02 233.40 879.44 228.60
  Q 875.04 223.98 873.49 217.32
  Q 871.07 206.88 877.31 198.79
  Q 881.49 193.38 889.29 190.38
  Q 904.86 184.39 921.48 190.51
  A 0.32 0.32 9.6 0 0 921.92 190.20
  Q 921.65 184.22 918.06 180.94
  Q 910.10 173.64 899.33 176.14
  Q 892.93 177.63 889.22 183.20
  A 0.91 0.89 29.6 0 1 888.07 183.50
  L 876.12 177.81
  A 0.95 0.94 28.8 0 1 875.72 176.46
  Q 882.44 165.71 893.61 162.54
  Q 901.51 160.30 910.50 161.38
  Q 919.60 162.47 926.69 167.81
  Q 933.46 172.91 936.16 181.03
  Q 937.73 185.74 937.88 196.64
  Q 938.14 215.02 937.99 234.24
  A 0.77 0.77 -89.6 0 1 937.22 235.00
  L 923.03 235.00
  A 0.71 0.71 -86.4 0 1 922.33 234.20
  Q 922.87 229.80 922.27 225.82
  Z
  M 890.94 207.19
  Q 887.19 213.33 890.98 217.50
  Q 893.67 220.47 898.89 221.41
  Q 905.99 222.70 912.06 218.81
  Q 919.26 214.20 922.20 206.14
  A 1.29 1.27 29.3 0 0 921.78 204.69
  Q 919.57 202.99 916.71 202.14
  Q 907.80 199.49 898.83 201.89
  Q 893.27 203.37 890.94 207.19
  Z"
/>
<path fill="#ffffff" d="
  M 973.49 231.74
  L 944.29 165.98
  A 0.34 0.34 -12.5 0 1 944.60 165.50
  L 960.75 165.07
  A 1.30 1.27 77.2 0 1 961.95 165.84
  L 981.69 211.57
  Q 982.01 212.32 982.31 211.56
  L 1000.48 165.95
  A 1.47 1.38 -77.7 0 1 1001.83 165.02
  L 1018.44 165.52
  A 0.37 0.35 -77.4 0 1 1018.74 166.03
  L 974.91 266.65
  A 0.58 0.58 -78.4 0 1 974.38 267.00
  L 958.05 267.00
  A 0.54 0.54 12.9 0 1 957.56 266.22
  L 973.48 232.63
  A 1.07 1.06 46.0 0 0 973.49 231.74
  Z"
/>
<path fill="#ffffff" d="
  M 413.58 172.00
  Q 421.59 166.43 431.55 165.94
  Q 440.96 165.48 449.45 169.56
  Q 459.91 174.59 465.10 184.87
  Q 469.64 193.83 468.94 204.22
  Q 468.00 218.11 457.77 227.27
  Q 450.59 233.69 441.39 235.78
  Q 431.68 237.99 422.25 234.75
  Q 403.36 228.26 399.00 209.50
  Q 396.24 197.61 400.95 187.17
  Q 405.14 177.87 413.58 172.00
  Z
  M 432.7070 222.4996
  A 21.39 19.96 92.5 0 0 453.5810 202.0006
  A 21.39 19.96 92.5 0 0 434.5730 179.7604
  A 21.39 19.96 92.5 0 0 413.6990 200.2594
  A 21.39 19.96 92.5 0 0 432.7070 222.4996
  Z"
/>
<path fill="#ffffff" d="
  M 546.7361 202.2526
  A 35.55 35.46 1.6 0 1 510.2099 236.7062
  A 35.55 35.46 1.6 0 1 475.6639 200.2674
  A 35.55 35.46 1.6 0 1 512.1901 165.8138
  A 35.55 35.46 1.6 0 1 546.7361 202.2526
  Z
  M 510.4462 222.4956
  A 21.39 19.95 92.1 0 0 531.1666 201.8510
  A 21.39 19.95 92.1 0 0 512.0138 179.7444
  A 21.39 19.95 92.1 0 0 491.2934 200.3890
  A 21.39 19.95 92.1 0 0 510.4462 222.4956
  Z"
/>
<path fill="#ffffff" d="
  M 676.79 212.26
  Q 682.22 222.80 694.49 222.33
  Q 704.81 221.94 710.46 213.56
  A 0.76 0.72 33.0 0 1 711.47 213.37
  L 722.81 220.63
  A 0.47 0.45 35.2 0 1 722.94 221.30
  Q 714.09 232.71 701.44 235.56
  Q 691.34 237.84 681.72 234.57
  Q 674.72 232.18 669.28 227.05
  Q 664.25 222.31 661.37 215.30
  Q 655.09 200.05 662.01 185.24
  Q 665.56 177.64 671.20 173.11
  Q 677.34 168.19 685.51 166.57
  Q 694.83 164.73 702.97 167.96
  Q 710.07 170.78 715.52 177.51
  Q 720.50 183.65 723.25 191.73
  A 0.55 0.55 -20.9 0 1 722.94 192.42
  L 677.02 211.62
  A 0.47 0.46 65.2 0 0 676.79 212.26
  Z
  M 678.19 186.94
  Q 673.66 192.57 673.80 199.44
  A 0.35 0.34 -12.1 0 0 674.28 199.75
  L 705.04 187.19
  A 0.43 0.42 62.9 0 0 705.24 186.57
  Q 700.15 178.49 690.27 179.90
  Q 683.01 180.94 678.19 186.94
  Z"
/>
<path fill="#ffffff" d="
  M 606.42 228.58
  Q 600.74 236.05 590.50 236.51
  Q 582.91 236.84 576.23 234.10
  Q 570.02 231.56 564.62 226.13
  Q 551.64 213.07 555.25 193.75
  Q 557.39 182.31 567.48 173.74
  Q 577.97 164.84 591.00 166.00
  Q 599.71 166.77 606.64 173.40
  Q 607.04 173.78 607.07 173.25
  L 607.32 168.82
  A 0.55 0.50 -88.2 0 1 607.82 168.30
  L 621.24 168.30
  A 0.76 0.75 90.0 0 1 621.99 169.06
  Q 622.18 203.38 621.75 236.00
  Q 621.66 243.17 617.69 251.69
  Q 614.73 258.04 608.97 262.16
  Q 603.85 265.83 596.79 267.26
  Q 591.60 268.32 586.27 268.03
  Q 580.86 267.74 576.07 265.85
  Q 563.67 260.95 557.63 248.19
  A 0.89 0.88 -24.0 0 1 558.10 246.99
  L 570.12 242.11
  A 0.66 0.65 -24.6 0 1 570.95 242.41
  Q 576.38 253.00 586.58 253.97
  Q 593.88 254.68 599.33 251.24
  Q 605.43 247.40 606.55 238.92
  Q 607.20 233.98 607.25 228.86
  Q 607.27 227.46 606.42 228.58
  Z
  M 588.9902 222.6479
  A 21.47 19.18 90.8 0 0 608.4681 201.4478
  A 21.47 19.18 90.8 0 0 589.5898 179.7121
  A 21.47 19.18 90.8 0 0 570.1119 200.9122
  A 21.47 19.18 90.8 0 0 588.9902 222.6479
  Z"
/>
<path fill="#5eedd0" d="
  M 88.54 169.75
  Q 89.71 173.14 89.77 178.31
  A 1.21 1.21 -15.4 0 0 91.59 179.34
  Q 92.24 178.96 94.25 179.02
  Q 102.62 179.24 111.00 179.13
  Q 136.02 178.80 155.50 179.50
  Q 160.79 179.69 165.04 178.25
  L 173.04 186.75
  Q 172.53 187.53 171.77 187.93
  Q 166.31 189.47 160.70 189.04
  Q 153.81 188.52 152.75 188.52
  Q 124.12 188.68 95.81 188.56
  Q 94.26 188.56 92.77 188.99
  Q 90.52 189.65 90.18 187.72
  Q 89.73 185.23 88.54 183.00
  L 88.54 169.75
  Z"
/>
<path fill="#000000" d="
  M 678.19 186.94
  Q 683.01 180.94 690.27 179.90
  Q 700.15 178.49 705.24 186.57
  A 0.43 0.42 62.9 0 1 705.04 187.19
  L 674.28 199.75
  A 0.35 0.34 -12.1 0 1 673.80 199.44
  Q 673.66 192.57 678.19 186.94
  Z"
/>
<ellipse fill="#000000" cx="0.00" cy="0.00" transform="translate(589.29,201.18) rotate(90.8)" rx="21.47" ry="19.18"/>
<ellipse fill="#000000" cx="0.00" cy="0.00" transform="translate(433.64,201.13) rotate(92.5)" rx="21.39" ry="19.96"/>
<ellipse fill="#000000" cx="0.00" cy="0.00" transform="translate(511.23,201.12) rotate(92.1)" rx="21.39" ry="19.95"/>
<path fill="#63f7d2" d="
  M 88.54 183.00
  Q 89.73 185.23 90.18 187.72
  Q 90.52 189.65 92.77 188.99
  Q 94.26 188.56 95.81 188.56
  Q 124.12 188.68 152.75 188.52
  Q 153.81 188.52 160.70 189.04
  Q 166.31 189.47 171.77 187.93
  L 169.00 190.98
  L 158.79 201.00
  Q 159.28 198.96 157.31 198.94
  Q 147.81 198.83 145.00 199.00
  Q 143.20 199.11 142.23 198.90
  A 1.60 1.41 37.0 0 0 141.31 198.97
  Q 140.29 199.42 139.00 199.25
  Q 133.15 198.50 126.86 198.68
  Q 118.48 198.92 114.75 198.77
  Q 104.69 198.35 101.25 198.75
  Q 98.47 199.07 93.44 198.56
  Q 91.81 198.40 90.83 199.77
  A 0.32 0.30 -42.9 0 1 90.31 199.77
  Q 90.12 199.43 89.97 199.08
  Q 89.76 198.60 89.85 197.88
  Q 90.19 195.14 88.55 192.98
  L 88.54 183.00
  Z"
/>
<path fill="#d43f65" d="
  M 173.04 186.75
  L 173.21 186.75
  L 199.29 213.00
  L 168.54 229.75
  Q 168.45 229.43 168.23 229.22
  A 0.38 0.32 50.8 0 1 168.24 228.68
  Q 169.83 227.71 171.19 226.43
  Q 171.49 226.14 171.51 225.85
  Q 171.55 225.41 171.21 225.18
  A 1.04 0.65 23.3 0 1 170.73 224.49
  Q 170.14 210.35 170.50 199.25
  Q 170.61 195.92 170.27 193.56
  A 0.62 0.56 -2.7 0 0 169.69 193.08
  Q 167.93 193.03 169.00 190.98
  L 171.77 187.93
  Q 172.53 187.53 173.04 186.75
  Z"
/>
<path fill="#ca3e74" d="
  M 169.00 190.98
  Q 167.93 193.03 169.69 193.08
  A 0.62 0.56 -2.7 0 1 170.27 193.56
  Q 170.61 195.92 170.50 199.25
  Q 170.14 210.35 170.73 224.49
  A 1.04 0.65 23.3 0 0 171.21 225.18
  Q 171.55 225.41 171.51 225.85
  Q 171.49 226.14 171.19 226.43
  Q 169.83 227.71 168.24 228.68
  A 0.38 0.32 50.8 0 0 168.23 229.22
  Q 168.45 229.43 168.54 229.75
  L 161.14 233.53
  Q 159.80 218.37 160.59 203.19
  Q 160.67 201.63 159.72 202.49
  Q 158.35 203.73 158.71 201.25
  L 158.79 201.00
  L 169.00 190.98
  Z"
/>
<path fill="#66ffd4" d="
  M 88.55 192.98
  Q 90.19 195.14 89.85 197.88
  Q 89.76 198.60 89.97 199.08
  Q 90.12 199.43 90.31 199.77
  A 0.32 0.30 -42.9 0 0 90.83 199.77
  Q 91.81 198.40 93.44 198.56
  Q 98.47 199.07 101.25 198.75
  Q 104.69 198.35 114.75 198.77
  Q 118.48 198.92 126.86 198.68
  Q 133.15 198.50 139.00 199.25
  Q 140.29 199.42 141.31 198.97
  A 1.60 1.41 37.0 0 1 142.23 198.90
  Q 143.20 199.11 145.00 199.00
  Q 147.81 198.83 157.31 198.94
  Q 159.28 198.96 158.79 201.00
  L 158.71 201.25
  L 147.21 213.00
  L 129.21 231.00
  L 94.25 266.46
  Q 88.51 263.96 88.50 258.00
  Q 88.46 225.52 88.55 192.98
  Z"
/>
<path fill="#000000" d="
  M 890.94 207.19
  Q 893.27 203.37 898.83 201.89
  Q 907.80 199.49 916.71 202.14
  Q 919.57 202.99 921.78 204.69
  A 1.29 1.27 29.3 0 1 922.20 206.14
  Q 919.26 214.20 912.06 218.81
  Q 905.99 222.70 898.89 221.41
  Q 893.67 220.47 890.98 217.50
  Q 887.19 213.33 890.94 207.19
  Z"
/>
<path fill="#c23c7f" d="
  M 158.71 201.25
  Q 158.35 203.73 159.72 202.49
  Q 160.67 201.63 160.59 203.19
  Q 159.80 218.37 161.14 233.53
  Q 156.72 236.64 150.54 239.50
  Q 149.54 239.14 149.79 238.40
  Q 150.06 237.62 150.07 237.55
  Q 150.54 234.19 150.44 230.81
  Q 150.27 225.29 150.27 225.20
  Q 150.31 216.21 150.19 213.81
  Q 150.13 212.67 149.31 212.55
  A 1.07 0.52 -56.4 0 0 148.56 212.99
  Q 148.06 213.59 147.21 213.00
  L 158.71 201.25
  Z"
/>
<path fill="#b83b8f" d="
  M 150.54 239.50
  L 130.04 250.79
  Q 129.53 247.47 129.75 245.75
  Q 130.57 239.25 128.71 233.04
  A 0.79 0.63 -31.3 0 1 128.98 232.29
  Q 129.58 231.76 129.21 231.00
  L 147.21 213.00
  Q 148.06 213.59 148.56 212.99
  A 1.07 0.52 -56.4 0 1 149.31 212.55
  Q 150.13 212.67 150.19 213.81
  Q 150.31 216.21 150.27 225.20
  Q 150.27 225.29 150.44 230.81
  Q 150.54 234.19 150.07 237.55
  Q 150.06 237.62 149.79 238.40
  Q 149.54 239.14 150.54 239.50
  Z"
/>
<path fill="#a738a8" d="
  M 129.21 231.00
  Q 129.58 231.76 128.98 232.29
  A 0.79 0.63 -31.3 0 0 128.71 233.04
  Q 130.57 239.25 129.75 245.75
  Q 129.53 247.47 130.04 250.79
  Q 116.87 258.00 103.56 265.06
  Q 98.71 267.64 94.25 266.46
  L 129.21 231.00
  Z"
/>
</svg>
