<?xml version="1.0" encoding="UTF-8" standalone="no"?>
<svg xmlns="http://www.w3.org/2000/svg" version="1.2" baseProfile="tiny" viewBox="0 0 1020 333">
<g stroke-width="2.00" fill="none" stroke-linecap="butt">
<path stroke="#818181" vector-effect="non-scaling-stroke" d="
  M 169.56 54.69
  Q 164.07 50.49 155.49 51.14
  Q 146.57 51.81 138.11 54.39
  Q 128.04 57.45 123.13 62.31
  Q 116.51 68.85 116.25 79.00
  Q 115.83 95.50 116.01 112.77
  A 0.55 0.53 83.6 0 0 116.65 113.31
  L 121.21 112.32
  A 0.65 0.62 83.9 0 0 121.69 111.69
  Q 121.66 97.06 121.90 82.44
  Q 122.12 68.90 134.14 63.23
  Q 141.48 59.77 149.45 58.26
  Q 154.43 57.32 159.00 58.00
  Q 168.69 59.45 171.17 69.02
  Q 172.47 74.05 172.48 79.25
  Q 172.50 89.07 172.50 98.89
  Q 172.50 99.07 172.40 100.61
  Q 172.24 103.03 174.09 101.79
  A 1.47 1.42 29.8 0 1 175.00 101.56
  Q 176.51 101.68 177.77 100.95
  A 0.92 0.85 76.9 0 0 178.20 100.19
  Q 178.46 86.96 177.88 73.76
  Q 177.67 68.90 176.23 64.26
  Q 174.41 58.39 169.56 54.69"
/>
<path stroke="#818181" vector-effect="non-scaling-stroke" d="
  M 199.56 69.94
  Q 192.57 66.07 183.63 68.56
  A 0.61 0.55 79.0 0 0 183.24 69.20
  L 183.82 73.44
  A 0.73 0.62 83.7 0 0 184.50 74.08
  Q 188.98 73.72 192.40 74.27
  Q 197.39 75.06 198.32 80.03
  Q 199.68 87.32 199.20 95.69
  A 0.59 0.51 87.6 0 0 199.80 96.32
  L 204.53 95.44
  A 0.74 0.58 87.5 0 0 205.02 94.75
  Q 205.44 82.81 203.50 75.75
  Q 202.32 71.46 199.56 69.94"
/>
<path stroke="#818181" vector-effect="non-scaling-stroke" d="
  M 150.34 85.25
  Q 148.44 90.48 148.61 96.25
  Q 148.75 101.00 148.75 106.14
  A 0.47 0.42 84.6 0 0 149.26 106.61
  L 153.98 105.62
  A 0.72 0.58 85.1 0 0 154.44 104.94
  Q 154.45 100.38 154.58 95.82
  Q 154.76 89.76 156.13 86.92
  Q 158.74 81.53 165.24 79.07
  A 1.93 1.80 76.2 0 0 166.37 77.05
  L 165.83 73.09
  A 0.51 0.50 78.5 0 0 165.20 72.66
  Q 159.79 74.18 156.00 77.15
  Q 152.19 80.12 150.34 85.25"
/>
<path stroke="#818181" vector-effect="non-scaling-stroke" d="
  M 770.47 110.88
  A 0.90 0.90 -4.1 0 1 771.50 111.77
  L 771.50 150.88
  A 0.87 0.87 0.0 0 0 772.37 151.75
  L 778.48 151.75
  A 0.52 0.52 90.0 0 0 779.00 151.23
  L 779.00 111.77
  A 0.72 0.71 89.6 0 1 779.70 111.05
  L 789.34 111.00
  A 0.66 0.65 0.0 0 0 790.00 110.35
  L 790.00 105.27
  A 0.52 0.52 90.0 0 0 789.48 104.75
  Q 785.79 104.75 782.49 104.75
  Q 782.39 104.75 781.02 104.86
  Q 778.81 105.03 778.88 102.91
  Q 778.95 101.14 778.94 101.09
  Q 778.71 96.48 779.50 93.75
  Q 782.02 85.06 791.63 88.38
  A 0.22 0.22 -81.2 0 0 791.92 88.16
  L 791.69 82.56
  A 0.81 0.73 -81.2 0 0 791.23 81.86
  Q 787.75 80.42 783.44 81.44
  Q 774.89 83.45 772.67 91.50
  Q 771.12 97.13 771.55 103.74
  A 0.95 0.95 88.3 0 1 770.60 104.75
  L 764.38 104.75
  A 0.86 0.84 -0.0 0 0 763.52 105.59
  L 763.54 110.19
  A 0.60 0.58 4.6 0 0 764.05 110.77
  Q 767.45 111.34 770.47 110.88"
/>
<path stroke="#818181" vector-effect="non-scaling-stroke" d="
  M 579.75 82.48
  A 0.41 0.41 0.0 0 0 579.34 82.07
  L 572.90 82.07
  A 0.41 0.41 0.0 0 0 572.49 82.48
  L 572.49 151.34
  A 0.41 0.41 0.0 0 0 572.90 151.75
  L 579.34 151.75
  A 0.41 0.41 0.0 0 0 579.75 151.34
  L 579.75 82.48"
/>
<path stroke="#818181" vector-effect="non-scaling-stroke" d="
  M 725.23 110.06
  Q 721.86 105.29 715.97 104.13
  Q 707.80 102.53 701.45 106.17
  Q 695.82 109.40 692.78 116.71
  Q 689.45 124.72 690.57 133.47
  Q 691.52 140.93 694.83 145.61
  Q 698.98 151.49 706.56 152.69
  Q 718.26 154.54 725.64 144.71
  Q 725.96 144.29 725.96 144.81
  L 725.97 150.66
  A 1.15 1.12 0.8 0 0 727.09 151.78
  L 732.84 151.90
  A 0.65 0.59 0.5 0 0 733.50 151.31
  L 733.50 82.81
  A 0.53 0.50 90.0 0 0 733.00 82.28
  L 726.69 82.39
  A 0.56 0.52 -89.4 0 0 726.17 82.94
  L 726.07 109.79
  Q 726.06 111.25 725.23 110.06"
/>
<path stroke="#818181" vector-effect="non-scaling-stroke" d="
  M 381.81 139.56
  Q 388.93 130.93 388.95 118.25
  Q 388.96 109.60 386.44 103.06
  Q 382.53 92.92 371.75 88.75
  Q 364.40 85.91 356.50 85.95
  Q 346.63 86.00 336.75 86.00
  A 0.50 0.50 0.0 0 0 336.25 86.50
  L 336.25 151.19
  A 0.56 0.56 0.0 0 0 336.81 151.75
  Q 344.87 151.75 352.75 151.70
  Q 359.65 151.66 365.75 150.00
  Q 375.36 147.39 381.81 139.56"
/>
<path stroke="#818181" vector-effect="non-scaling-stroke" d="
  M 255.81 104.45
  Q 246.88 101.27 238.02 97.92
  Q 235.87 97.11 234.36 97.12
  Q 232.66 97.14 230.56 97.56
  Q 151.28 113.53 72.13 129.47
  A 1.10 1.10 84.2 0 0 71.25 130.55
  L 71.25 247.99
  A 0.81 0.80 -84.3 0 0 71.89 248.78
  L 233.43 281.21
  A 4.88 4.69 39.7 0 0 235.99 281.02
  L 266.66 269.82
  A 1.29 1.26 80.4 0 0 267.50 268.61
  L 267.50 109.42
  A 0.77 0.76 -79.3 0 0 267.02 108.71
  Q 261.20 106.36 255.81 104.45"
/>
<path stroke="#818181" vector-effect="non-scaling-stroke" d="
  M 401.69 111.69
  Q 397.37 117.28 396.62 124.06
  Q 395.87 130.80 397.48 137.01
  Q 399.07 143.16 403.84 147.29
  Q 408.18 151.06 414.25 152.40
  Q 420.91 153.87 427.19 151.69
  Q 440.76 146.97 442.18 131.74
  Q 442.88 124.18 442.00 121.00
  Q 436.40 100.78 415.00 104.02
  Q 406.63 105.29 401.69 111.69"
/>
<path stroke="#818181" vector-effect="non-scaling-stroke" d="
  M 527.74 111.44
  L 527.42 105.56
  A 0.62 0.47 88.2 0 0 526.94 104.97
  L 520.91 104.87
  A 0.93 0.84 -89.4 0 0 520.06 105.79
  L 520.00 150.97
  A 0.80 0.78 0.4 0 0 520.79 151.75
  L 526.98 151.84
  A 0.51 0.49 0.6 0 0 527.50 151.35
  Q 527.50 138.25 527.49 125.25
  Q 527.49 118.96 531.07 114.73
  Q 534.57 110.59 540.19 110.09
  Q 546.85 109.50 549.81 115.48
  Q 551.30 118.49 551.40 124.66
  Q 551.62 137.45 551.49 150.85
  A 0.90 0.89 0.3 0 0 552.39 151.75
  L 558.32 151.75
  A 0.93 0.92 -89.7 0 0 559.24 150.83
  Q 559.36 138.17 559.14 126.03
  Q 558.97 116.67 557.65 113.14
  Q 554.90 105.80 546.99 104.05
  Q 541.59 102.85 536.65 104.83
  Q 531.58 106.86 528.11 111.53
  Q 527.77 111.98 527.74 111.44"
/>
<path stroke="#818181" vector-effect="non-scaling-stroke" d="
  M 592.98 116.77
  Q 588.51 126.86 591.94 137.81
  Q 594.44 145.83 601.11 149.68
  Q 606.84 152.99 614.87 152.71
  Q 628.87 152.23 634.37 139.45
  Q 636.74 133.93 636.79 127.78
  Q 636.83 121.35 634.44 115.81
  Q 630.92 107.68 623.27 104.99
  Q 616.33 102.55 608.76 103.99
  Q 603.39 105.02 599.12 108.50
  Q 595.24 111.65 592.98 116.77"
/>
<path stroke="#818181" vector-effect="non-scaling-stroke" d="
  M 673.21 145.34
  L 673.25 151.01
  A 0.80 0.75 0.8 0 0 674.03 151.76
  L 679.56 151.94
  A 0.91 0.82 1.0 0 0 680.50 151.12
  Q 680.50 134.50 680.50 118.50
  Q 680.50 110.46 674.80 106.52
  Q 670.24 103.37 663.15 103.69
  Q 655.95 104.01 648.86 107.61
  A 1.13 1.11 76.7 0 0 648.25 108.61
  L 648.25 114.52
  Q 648.25 115.57 649.09 114.95
  Q 654.70 110.76 661.26 110.12
  Q 672.60 109.02 673.03 121.20
  A 0.76 0.75 -5.5 0 1 672.38 121.98
  Q 666.38 122.88 660.48 123.54
  Q 655.80 124.06 651.57 126.07
  Q 644.10 129.63 643.75 138.00
  Q 643.49 144.41 646.85 148.20
  Q 649.86 151.59 655.59 152.56
  Q 665.49 154.23 672.61 145.15
  Q 673.20 144.40 673.21 145.34"
/>
<path stroke="#818181" vector-effect="non-scaling-stroke" d="
  M 830.87 111.38
  Q 827.67 115.23 826.44 120.44
  Q 825.00 126.50 825.65 132.39
  Q 826.37 138.86 829.47 143.46
  Q 832.25 147.59 836.67 150.04
  Q 840.59 152.22 845.77 152.76
  Q 851.09 153.32 855.44 151.94
  Q 868.06 147.93 870.63 135.51
  Q 871.69 130.36 871.37 124.97
  Q 871.04 119.38 868.69 114.56
  Q 864.62 106.24 855.08 104.13
  Q 850.19 103.05 844.25 104.00
  Q 835.90 105.33 830.87 111.38"
/>
<path stroke="#818181" vector-effect="non-scaling-stroke" d="
  M 889.80 111.03
  L 889.75 105.44
  A 0.68 0.66 90.0 0 0 889.09 104.76
  L 882.94 104.80
  A 0.72 0.69 -90.0 0 0 882.25 105.52
  L 882.25 151.12
  A 0.85 0.79 -0.7 0 0 883.12 151.91
  L 888.84 151.76
  A 0.94 0.89 -1.0 0 0 889.76 150.86
  Q 889.59 136.50 889.94 122.87
  Q 890.01 120.10 890.72 118.23
  Q 891.64 115.82 893.06 114.06
  Q 896.84 109.40 902.33 110.01
  Q 906.05 110.42 908.50 112.81
  Q 911.10 115.36 911.52 119.42
  Q 911.78 121.82 911.77 124.25
  Q 911.75 137.63 911.75 151.07
  A 0.67 0.66 90.0 0 0 912.41 151.74
  L 918.69 151.70
  A 0.52 0.50 90.0 0 0 919.19 151.18
  Q 919.24 138.70 919.30 126.21
  Q 919.31 122.26 919.97 120.00
  Q 920.93 116.71 922.81 114.31
  Q 928.33 107.30 936.81 111.44
  Q 939.49 112.75 940.26 116.17
  Q 940.92 119.14 940.95 119.28
  Q 941.18 120.55 941.25 122.50
  Q 941.71 136.00 941.21 150.77
  A 0.91 0.89 -88.7 0 0 942.09 151.71
  L 948.20 151.75
  A 0.56 0.55 -90.0 0 0 948.75 151.19
  Q 948.79 135.42 948.70 120.26
  Q 948.69 118.42 948.39 116.89
  Q 948.06 115.22 947.63 113.58
  Q 946.58 109.56 943.73 107.07
  Q 941.31 104.94 937.17 104.04
  Q 925.32 101.48 918.23 112.44
  Q 917.88 112.98 917.61 112.39
  Q 912.65 101.63 900.55 104.21
  Q 894.04 105.60 890.43 111.20
  Q 889.81 112.17 889.80 111.03"
/>
<path stroke="#818181" vector-effect="non-scaling-stroke" d="
  M 804.74 113.20
  L 804.57 105.68
  A 0.90 0.77 88.9 0 0 803.79 104.80
  L 797.69 104.88
  A 0.57 0.51 -89.9 0 0 797.19 105.44
  L 796.98 150.94
  A 0.80 0.79 -89.6 0 0 797.77 151.75
  L 803.66 151.75
  A 0.86 0.86 89.7 0 0 804.52 150.88
  Q 804.32 137.25 804.75 124.75
  Q 804.96 118.68 808.97 114.25
  Q 811.49 111.48 814.31 110.94
  Q 817.36 110.37 820.93 111.78
  A 0.60 0.55 9.9 0 0 821.75 111.25
  L 821.29 104.87
  A 0.81 0.75 2.0 0 0 820.58 104.17
  Q 812.83 103.18 808.56 107.81
  Q 806.91 109.61 805.04 113.25
  Q 804.75 113.80 804.74 113.20"
/>
<path stroke="#818181" vector-effect="non-scaling-stroke" d="
  M 494.19 142.96
  L 484.01 105.49
  A 0.93 0.87 81.5 0 0 483.14 104.80
  L 477.44 104.88
  A 0.76 0.67 -81.1 0 0 476.79 105.42
  L 465.38 143.08
  Q 465.15 143.85 464.94 143.08
  L 454.82 105.54
  A 0.79 0.79 -2.3 0 0 454.20 104.97
  Q 450.85 104.41 447.50 104.92
  A 0.44 0.43 -12.1 0 0 447.14 105.47
  L 460.82 151.21
  A 0.75 0.73 81.4 0 0 461.52 151.74
  L 467.94 151.70
  A 0.68 0.67 -81.1 0 0 468.58 151.22
  L 479.91 115.29
  Q 480.06 114.81 480.19 115.29
  L 490.27 150.81
  A 1.10 0.98 83.1 0 0 491.17 151.60
  L 497.37 151.98
  A 1.04 0.95 -79.7 0 0 498.35 151.23
  L 512.16 105.24
  A 0.38 0.38 8.0 0 0 511.79 104.75
  L 505.54 104.75
  A 0.87 0.85 -81.8 0 0 504.72 105.38
  L 494.45 142.95
  Q 494.32 143.44 494.19 142.96"
/>
<path stroke="#818181" vector-effect="non-scaling-stroke" d="
  M 527.44 226.70
  Q 527.43 228.03 526.65 226.95
  Q 522.71 221.53 516.74 220.61
  Q 512.67 219.98 508.26 220.85
  Q 503.87 221.71 500.44 224.69
  Q 494.55 229.80 492.85 237.18
  Q 491.78 241.81 491.84 247.21
  Q 491.89 252.44 493.75 257.25
  Q 498.79 270.30 513.24 269.39
  Q 522.05 268.84 526.81 261.54
  Q 527.38 260.68 527.62 261.72
  Q 527.69 262.01 527.65 262.40
  Q 527.38 264.96 527.51 267.73
  A 0.55 0.54 88.3 0 0 528.05 268.25
  L 534.75 268.25
  A 0.50 0.50 0.0 0 0 535.25 267.75
  L 535.25 199.66
  A 0.66 0.66 90.0 0 0 534.59 199.00
  L 528.13 199.00
  A 0.45 0.44 -89.3 0 0 527.69 199.44
  L 527.44 226.70"
/>
<path stroke="#818181" vector-effect="non-scaling-stroke" d="
  M 431.11 204.61
  A 4.87 4.87 0.0 0 0 426.24 199.74
  A 4.87 4.87 0.0 0 0 421.37 204.61
  A 4.87 4.87 0.0 0 0 426.24 209.48
  A 4.87 4.87 0.0 0 0 431.11 204.61"
/>
<path stroke="#818181" vector-effect="non-scaling-stroke" d="
  M 727.64 266.51
  Q 739.49 271.68 751.00 268.25
  Q 760.44 265.44 762.63 256.47
  Q 763.76 251.81 762.59 247.55
  Q 761.31 242.85 757.56 239.69
  Q 751.79 234.81 742.31 229.69
  Q 739.54 228.19 737.33 225.62
  Q 735.08 223.00 734.69 219.97
  Q 734.10 215.29 737.23 212.11
  Q 739.68 209.62 744.04 208.79
  Q 752.24 207.24 759.76 212.07
  Q 760.23 212.36 760.22 211.83
  L 760.11 204.19
  A 0.79 0.72 10.8 0 0 759.60 203.51
  Q 754.21 201.51 746.25 201.75
  Q 736.01 202.06 730.46 208.74
  Q 727.61 212.17 726.89 216.44
  Q 726.14 220.96 727.79 225.21
  Q 729.04 228.45 732.26 231.50
  Q 735.21 234.28 738.50 236.25
  Q 744.93 240.09 748.54 242.43
  Q 752.14 244.77 753.19 246.81
  Q 757.29 254.80 752.52 259.35
  Q 749.01 262.70 742.54 262.58
  Q 734.18 262.42 727.14 257.29
  Q 726.69 256.96 726.71 257.50
  L 727.11 265.82
  A 0.89 0.74 12.7 0 0 727.64 266.51"
/>
<path stroke="#818181" vector-effect="non-scaling-stroke" d="
  M 372.01 215.31
  Q 372.64 219.18 375.00 227.75
  Q 380.47 247.63 386.17 267.45
  A 0.78 0.66 81.2 0 0 386.80 268.00
  L 395.00 268.28
  A 0.68 0.63 -81.2 0 0 395.63 267.78
  L 413.75 203.74
  A 0.98 0.94 -82.7 0 0 412.83 202.49
  L 406.05 202.76
  A 0.73 0.65 -82.6 0 0 405.43 203.30
  L 391.07 257.95
  Q 390.94 258.42 390.81 257.95
  L 375.83 203.29
  A 0.74 0.66 81.7 0 0 375.19 202.75
  L 369.46 202.64
  A 1.54 1.33 -80.2 0 0 368.11 203.75
  L 352.25 258.50
  Q 351.87 259.81 351.81 258.44
  Q 351.68 255.03 350.76 251.75
  Q 344.23 228.38 337.44 203.90
  A 1.43 1.30 81.4 0 0 336.14 202.84
  L 329.50 202.93
  A 0.43 0.40 80.6 0 0 329.14 203.48
  L 347.67 267.72
  A 0.67 0.67 -8.1 0 0 348.31 268.20
  L 356.38 268.25
  A 0.71 0.68 -81.5 0 0 357.04 267.74
  L 371.80 215.30
  Q 371.93 214.83 372.01 215.31"
/>
<path stroke="#818181" vector-effect="non-scaling-stroke" d="
  M 774.44 228.56
  Q 774.55 243.28 774.67 258.00
  Q 774.74 267.26 783.06 269.19
  Q 787.46 270.21 792.72 268.36
  A 0.90 0.88 -4.3 0 0 793.30 267.70
  Q 793.82 265.10 793.35 262.48
  A 0.37 0.36 -19.5 0 0 792.82 262.24
  Q 789.44 264.01 785.81 262.70
  Q 783.27 261.78 782.54 259.50
  Q 782.47 259.28 781.81 256.03
  Q 781.46 254.29 781.46 252.50
  Q 781.50 240.50 781.50 228.85
  A 0.87 0.86 -0.3 0 1 782.36 227.99
  L 792.95 227.95
  A 0.53 0.50 -1.1 0 0 793.47 227.44
  L 793.37 221.94
  A 0.56 0.51 -0.5 0 0 792.81 221.44
  L 782.21 221.26
  A 0.73 0.73 0.8 0 1 781.50 220.53
  Q 781.50 214.35 781.50 208.66
  Q 781.50 208.15 781.33 207.88
  Q 780.94 207.25 780.32 207.87
  Q 779.97 208.22 779.51 208.36
  L 775.15 209.75
  A 0.77 0.69 83.2 0 0 774.67 210.44
  L 774.33 220.81
  A 0.53 0.49 0.5 0 1 773.81 221.28
  L 766.99 221.44
  A 0.59 0.56 -1.1 0 0 766.42 222.00
  L 766.36 227.32
  A 0.60 0.53 1.1 0 0 766.94 227.85
  L 773.94 228.06
  A 0.52 0.50 1.2 0 1 774.44 228.56"
/>
<path stroke="#818181" vector-effect="non-scaling-stroke" d="
  M 450.71 228.20
  Q 450.17 225.48 450.50 223.75
  Q 451.05 220.88 449.08 221.18
  Q 447.33 221.44 446.89 221.43
  Q 445.20 221.39 443.55 221.71
  A 0.61 0.61 -5.8 0 0 443.06 222.31
  L 443.06 267.70
  A 0.50 0.50 0.0 0 0 443.56 268.20
  L 449.98 268.25
  A 0.53 0.52 90.0 0 0 450.50 267.72
  Q 450.50 256.52 450.50 245.46
  Q 450.50 238.20 451.73 235.20
  Q 453.92 229.84 459.60 227.55
  Q 462.18 226.50 464.53 226.62
  Q 467.35 226.76 469.44 228.31
  Q 474.29 231.90 474.36 238.75
  Q 474.50 253.13 474.50 267.73
  A 0.52 0.52 0.0 0 0 475.02 268.25
  L 481.75 268.25
  A 0.50 0.50 0.0 0 0 482.25 267.75
  Q 482.25 255.38 482.12 243.00
  Q 482.03 234.13 481.25 231.75
  Q 476.71 217.85 462.25 220.75
  Q 455.61 222.08 451.10 228.28
  Q 450.81 228.69 450.71 228.20"
/>
<path stroke="#818181" vector-effect="non-scaling-stroke" d="
  M 554.02 264.46
  Q 559.63 269.26 566.75 269.50
  Q 585.68 270.15 590.71 253.71
  Q 591.88 249.89 591.97 245.55
  Q 592.07 241.23 591.25 237.25
  Q 589.98 231.06 585.87 226.71
  Q 582.01 222.62 576.04 221.09
  Q 569.32 219.37 562.50 221.25
  Q 548.97 224.98 546.58 239.26
  Q 546.12 242.03 546.06 246.44
  Q 545.91 257.53 554.02 264.46"
/>
<path stroke="#818181" vector-effect="non-scaling-stroke" d="
  M 667.30 267.14
  Q 673.25 269.72 679.28 269.53
  Q 686.17 269.32 690.54 266.06
  Q 695.33 262.50 695.33 255.95
  Q 695.34 251.98 693.30 248.97
  Q 691.09 245.72 687.44 244.06
  Q 682.59 241.87 679.19 239.98
  Q 676.60 238.53 675.57 237.16
  Q 673.92 234.96 674.54 232.38
  Q 675.26 229.34 678.32 227.74
  Q 681.70 225.96 686.00 227.00
  Q 689.87 227.93 692.57 229.50
  A 0.34 0.30 16.2 0 0 693.07 229.26
  L 693.13 222.92
  A 0.86 0.67 13.9 0 0 692.60 222.24
  Q 686.08 219.53 679.01 220.80
  Q 672.05 222.04 668.76 227.49
  Q 666.84 230.68 666.80 234.31
  Q 666.76 238.26 668.96 241.40
  Q 670.62 243.75 674.86 246.13
  Q 678.19 248.00 681.67 249.59
  Q 685.88 251.51 686.75 253.25
  Q 688.69 257.14 686.82 260.03
  Q 685.34 262.29 681.73 262.96
  Q 674.10 264.38 667.67 259.30
  Q 666.75 258.57 666.75 259.75
  L 666.75 266.30
  A 0.92 0.89 -78.9 0 0 667.30 267.14"
/>
<path stroke="#818181" vector-effect="non-scaling-stroke" d="
  M 806.60 264.91
  Q 811.11 268.63 817.25 269.25
  Q 835.50 271.08 842.02 256.38
  Q 843.91 252.12 844.29 246.75
  Q 844.71 241.01 843.50 236.75
  Q 838.56 219.29 819.99 220.27
  Q 812.03 220.69 806.56 225.31
  Q 799.25 231.49 798.71 241.76
  Q 798.57 244.43 798.52 247.09
  Q 798.47 250.28 798.92 252.38
  Q 800.53 259.89 806.60 264.91"
/>
<path stroke="#818181" vector-effect="non-scaling-stroke" d="
  M 862.24 229.71
  Q 861.77 226.74 862.05 222.46
  A 1.14 1.11 -88.3 0 0 860.94 221.25
  L 855.55 221.30
  A 0.64 0.62 89.5 0 0 854.94 221.94
  L 854.75 267.50
  A 0.56 0.50 -89.5 0 0 855.24 268.06
  L 861.69 268.22
  A 0.50 0.46 89.3 0 0 862.16 267.69
  Q 861.51 253.51 862.66 239.37
  Q 862.75 238.25 863.15 237.19
  Q 863.54 236.15 863.95 235.11
  Q 864.67 233.27 865.46 232.15
  Q 870.22 225.43 878.53 228.57
  A 0.40 0.35 11.4 0 0 879.07 228.26
  L 879.13 221.92
  A 0.82 0.67 12.3 0 0 878.60 221.25
  Q 873.70 219.40 869.14 222.11
  Q 864.66 224.78 862.99 229.77
  Q 862.49 231.29 862.24 229.71"
/>
<path stroke="#818181" vector-effect="non-scaling-stroke" d="
  M 891.56 247.05
  L 923.24 246.75
  A 0.82 0.81 -0.4 0 0 924.05 245.94
  Q 924.12 238.19 922.31 231.94
  Q 921.00 227.39 917.02 224.35
  Q 913.58 221.73 908.89 220.77
  Q 902.96 219.56 897.47 221.69
  Q 892.28 223.70 888.65 228.27
  Q 884.58 233.38 883.54 240.26
  Q 882.12 249.62 885.31 257.44
  Q 890.06 269.07 903.24 269.65
  Q 912.19 270.03 920.31 265.48
  A 0.87 0.86 -15.0 0 0 920.75 264.73
  L 920.75 258.73
  Q 920.75 257.85 920.06 258.40
  Q 915.43 262.11 909.75 263.01
  Q 903.88 263.95 899.01 261.63
  Q 891.15 257.89 891.06 247.56
  A 0.51 0.51 -0.6 0 1 891.56 247.05"
/>
<path stroke="#818181" vector-effect="non-scaling-stroke" d="
  M 429.99 221.75
  A 0.28 0.28 0.0 0 0 429.71 221.47
  L 422.77 221.47
  A 0.28 0.28 0.0 0 0 422.49 221.75
  L 422.49 267.97
  A 0.28 0.28 0.0 0 0 422.77 268.25
  L 429.71 268.25
  A 0.28 0.28 0.0 0 0 429.99 267.97
  L 429.99 221.75"
/>
<path stroke="#818181" vector-effect="non-scaling-stroke" d="
  M 643.94 260.21
  L 633.58 222.05
  A 0.87 0.85 88.2 0 0 632.94 221.44
  Q 630.04 220.81 627.17 221.55
  A 0.92 0.91 -88.7 0 0 626.54 222.16
  L 614.96 259.70
  Q 614.81 260.18 614.68 259.71
  L 604.36 221.74
  A 0.66 0.66 -7.4 0 0 603.72 221.25
  L 597.51 221.25
  A 0.84 0.84 -8.4 0 0 596.70 222.33
  L 610.42 267.71
  A 0.70 0.64 80.6 0 0 611.06 268.22
  L 617.56 268.11
  A 0.77 0.69 -80.4 0 0 618.22 267.58
  Q 623.85 250.20 629.17 232.73
  Q 629.34 232.15 629.59 232.07
  A 0.65 0.33 82.9 0 1 630.03 232.73
  Q 630.14 234.01 630.51 235.25
  Q 635.35 251.21 639.80 267.74
  A 0.68 0.67 82.0 0 0 640.45 268.24
  L 647.44 268.20
  A 0.67 0.67 8.1 0 0 648.08 267.72
  L 661.62 222.68
  A 1.15 1.12 7.5 0 0 660.48 221.24
  L 656.09 221.34
  A 1.98 1.83 6.4 0 0 654.25 222.70
  L 644.19 260.21
  Q 644.07 260.67 643.94 260.21"
/>
<path stroke="#818181" vector-effect="non-scaling-stroke" d="
  M 701.94 115.44
  Q 698.78 119.60 698.33 124.23
  Q 697.83 129.34 698.50 133.75
  Q 699.75 141.99 706.05 144.96
  Q 711.98 147.75 717.95 144.91
  Q 724.25 141.90 725.75 133.75
  Q 726.30 130.76 725.97 123.74
  Q 725.76 119.26 724.20 116.58
  Q 720.51 110.23 712.86 110.08
  Q 709.37 110.01 706.81 111.28
  Q 704.04 112.66 701.94 115.44"
/>
<path stroke="#818181" vector-effect="non-scaling-stroke" d="
  M 375.56 135.56
  Q 380.11 129.49 380.77 122.00
  Q 381.43 114.38 379.50 107.96
  Q 376.61 98.35 365.92 94.60
  Q 361.66 93.11 357.18 92.98
  Q 352.98 92.86 352.82 92.85
  Q 348.83 92.63 344.58 92.76
  A 0.86 0.86 -1.0 0 0 343.75 93.62
  L 343.81 143.70
  A 0.68 0.68 8.7 0 0 344.29 144.35
  Q 345.86 144.83 347.46 144.75
  Q 350.91 144.59 351.07 144.60
  Q 358.97 144.92 364.25 143.25
  Q 371.53 140.95 375.56 135.56"
/>
<path stroke="#818181" vector-effect="non-scaling-stroke" d="
  M 145.79 171.89
  Q 145.65 178.12 145.76 184.70
  A 0.56 0.56 89.5 0 0 146.32 185.25
  L 192.44 185.25
  A 0.56 0.56 0.0 0 0 193.00 184.69
  L 193.00 145.29
  A 0.81 0.81 86.0 0 0 192.08 144.49
  Q 172.00 147.38 152.00 150.25
  Q 147.88 150.84 146.27 151.39
  A 0.73 0.68 82.2 0 0 145.80 152.06
  Q 145.68 157.02 145.78 161.98
  Q 145.89 167.25 145.79 171.89"
/>
<path stroke="#818181" vector-effect="non-scaling-stroke" d="
  M 142.82 151.90
  A 0.31 0.31 86.0 0 0 142.47 151.59
  L 107.41 156.37
  A 0.77 0.76 86.1 0 0 106.75 157.13
  L 106.75 184.69
  A 0.56 0.55 90.0 0 0 107.30 185.25
  L 142.44 185.19
  A 0.50 0.49 -90.0 0 0 142.93 184.69
  L 142.82 151.90"
/>
<path stroke="#818181" vector-effect="non-scaling-stroke" d="
  M 107.59 219.05
  L 141.56 223.83
  A 1.10 1.10 4.3 0 0 142.82 222.75
  L 143.00 189.17
  A 0.91 0.91 -89.7 0 0 142.09 188.25
  L 107.31 188.25
  A 0.56 0.56 0.0 0 0 106.75 188.81
  L 106.75 218.08
  A 0.98 0.98 -85.9 0 0 107.59 219.05"
/>
<path stroke="#818181" vector-effect="non-scaling-stroke" d="
  M 192.07 188.43
  L 146.52 188.26
  A 0.77 0.76 -89.6 0 0 145.75 189.03
  L 145.81 223.32
  A 1.09 1.08 4.3 0 0 146.74 224.39
  L 191.66 230.84
  A 1.17 1.17 -85.8 0 0 193.00 229.68
  L 193.00 189.38
  A 0.95 0.94 -89.7 0 0 192.07 188.43"
/>
<path stroke="#818181" vector-effect="non-scaling-stroke" d="
  M 407.56 115.84
  Q 404.96 119.28 404.50 124.50
  Q 404.14 128.55 404.43 131.87
  Q 404.78 135.83 406.48 138.86
  Q 409.32 143.92 414.73 145.64
  Q 419.79 147.26 424.78 145.68
  Q 431.79 143.47 433.94 135.44
  Q 435.90 128.10 433.88 121.03
  Q 432.35 115.71 429.05 112.98
  Q 425.18 109.79 419.50 109.86
  Q 411.98 109.96 407.56 115.84"
/>
<path stroke="#818181" vector-effect="non-scaling-stroke" d="
  M 602.68 114.93
  Q 599.19 119.05 598.52 124.11
  Q 597.91 128.72 598.81 133.88
  Q 600.05 140.91 605.97 144.20
  Q 611.32 147.18 617.39 146.05
  Q 626.27 144.39 628.40 133.93
  Q 629.88 126.65 627.94 120.31
  Q 624.76 109.96 613.50 109.97
  Q 606.87 109.98 602.68 114.93"
/>
<path stroke="#818181" vector-effect="non-scaling-stroke" d="
  M 651.76 136.28
  Q 650.38 142.57 655.32 145.14
  Q 659.03 147.07 663.48 145.88
  Q 668.93 144.43 671.57 139.20
  Q 672.58 137.19 672.91 134.25
  Q 673.21 131.55 673.19 129.07
  A 0.94 0.93 86.2 0 0 672.14 128.15
  Q 664.93 128.99 658.68 130.13
  Q 656.04 130.62 654.11 132.18
  Q 652.33 133.64 651.76 136.28"
/>
<path stroke="#818181" vector-effect="non-scaling-stroke" d="
  M 837.36 114.86
  Q 834.57 118.02 833.75 122.50
  Q 832.97 126.78 833.25 130.84
  Q 833.56 135.28 835.47 138.73
  Q 839.49 145.98 847.81 146.33
  Q 853.19 146.56 857.22 143.88
  Q 861.81 140.84 863.05 135.23
  Q 863.72 132.17 863.75 127.25
  Q 863.77 122.74 862.50 119.25
  Q 859.07 109.83 848.25 109.94
  Q 841.64 110.01 837.36 114.86"
/>
<path stroke="#818181" vector-effect="non-scaling-stroke" d="
  M 505.71 260.53
  Q 510.21 263.78 515.13 263.14
  Q 519.67 262.55 523.21 258.97
  Q 527.97 254.15 527.66 246.49
  Q 527.55 243.74 527.52 240.99
  Q 527.47 237.49 526.81 235.59
  Q 524.97 230.33 519.94 228.06
  Q 513.29 225.06 507.81 228.31
  Q 502.11 231.70 500.40 238.23
  Q 499.41 242.04 499.48 246.33
  Q 499.56 250.46 501.05 254.44
  Q 502.47 258.20 505.71 260.53"
/>
<path stroke="#818181" vector-effect="non-scaling-stroke" d="
  M 562.70 261.80
  Q 566.51 263.53 571.25 263.00
  Q 579.89 262.03 582.66 254.22
  Q 585.22 246.98 583.85 239.83
  Q 582.59 233.32 578.62 229.82
  Q 573.79 225.55 566.50 227.00
  Q 556.98 228.90 554.69 237.54
  Q 553.46 242.16 553.61 247.00
  Q 553.77 252.10 556.55 256.33
  Q 559.06 260.15 562.70 261.80"
/>
<path stroke="#818181" vector-effect="non-scaling-stroke" d="
  M 812.23 260.00
  Q 817.51 264.12 824.25 262.97
  Q 833.23 261.44 835.60 252.66
  Q 837.71 244.84 835.94 238.06
  Q 833.71 229.53 826.45 227.42
  Q 819.81 225.49 813.84 228.81
  Q 807.47 232.36 806.38 241.02
  Q 805.86 245.13 806.30 249.24
  Q 807.01 255.93 812.23 260.00"
/>
<path stroke="#818181" vector-effect="non-scaling-stroke" d="
  M 894.22 232.46
  Q 892.12 235.39 891.28 239.74
  A 0.43 0.43 -84.9 0 0 891.70 240.25
  L 915.69 240.19
  A 0.51 0.51 -89.4 0 0 916.20 239.69
  Q 916.32 233.63 912.60 230.05
  Q 908.84 226.43 903.47 226.87
  Q 897.92 227.32 894.22 232.46"
/>
</g>
<path fill="#020202" d="
  M 3.95 33.94
  Q 6.12 26.68 10.50 20.76
  Q 14.73 15.06 20.68 10.42
  Q 29.80 3.31 41.56 1.56
  Q 50.49 0.24 60.35 0.39
  Q 68.03 0.50 68.17 0.50
  Q 516.58 0.50 965.00 0.50
  Q 974.21 0.50 980.27 1.38
  Q 992.69 3.17 1002.17 11.31
  Q 1015.08 22.39 1017.69 39.56
  Q 1018.88 47.40 1018.87 54.25
  Q 1018.75 166.25 1018.75 278.25
  Q 1018.75 289.21 1016.50 298.25
  Q 1014.48 306.39 1009.07 313.22
  Q 1003.89 319.78 997.09 324.41
  Q 988.45 330.29 977.66 331.59
  Q 977.07 331.66 972.98 332.20
  Q 970.63 332.51 968.25 332.51
  Q 511.87 332.50 55.50 332.50
  Q 48.72 332.50 43.98 331.94
  Q 30.58 330.36 20.52 322.50
  Q 13.38 316.92 8.80 309.76
  Q 4.11 302.42 2.50 293.25
  Q 0.98 284.62 1.00 277.25
  Q 1.25 164.75 1.28 52.25
  Q 1.28 42.89 3.95 33.94
  Z
  M 169.56 54.69
  Q 164.07 50.49 155.49 51.14
  Q 146.57 51.81 138.11 54.39
  Q 128.04 57.45 123.13 62.31
  Q 116.51 68.85 116.25 79.00
  Q 115.83 95.50 116.01 112.77
  A 0.55 0.53 83.6 0 0 116.65 113.31
  L 121.21 112.32
  A 0.65 0.62 83.9 0 0 121.69 111.69
  Q 121.66 97.06 121.90 82.44
  Q 122.12 68.90 134.14 63.23
  Q 141.48 59.77 149.45 58.26
  Q 154.43 57.32 159.00 58.00
  Q 168.69 59.45 171.17 69.02
  Q 172.47 74.05 172.48 79.25
  Q 172.50 89.07 172.50 98.89
  Q 172.50 99.07 172.40 100.61
  Q 172.24 103.03 174.09 101.79
  A 1.47 1.42 29.8 0 1 175.00 101.56
  Q 176.51 101.68 177.77 100.95
  A 0.92 0.85 76.9 0 0 178.20 100.19
  Q 178.46 86.96 177.88 73.76
  Q 177.67 68.90 176.23 64.26
  Q 174.41 58.39 169.56 54.69
  Z
  M 199.56 69.94
  Q 192.57 66.07 183.63 68.56
  A 0.61 0.55 79.0 0 0 183.24 69.20
  L 183.82 73.44
  A 0.73 0.62 83.7 0 0 184.50 74.08
  Q 188.98 73.72 192.40 74.27
  Q 197.39 75.06 198.32 80.03
  Q 199.68 87.32 199.20 95.69
  A 0.59 0.51 87.6 0 0 199.80 96.32
  L 204.53 95.44
  A 0.74 0.58 87.5 0 0 205.02 94.75
  Q 205.44 82.81 203.50 75.75
  Q 202.32 71.46 199.56 69.94
  Z
  M 150.34 85.25
  Q 148.44 90.48 148.61 96.25
  Q 148.75 101.00 148.75 106.14
  A 0.47 0.42 84.6 0 0 149.26 106.61
  L 153.98 105.62
  A 0.72 0.58 85.1 0 0 154.44 104.94
  Q 154.45 100.38 154.58 95.82
  Q 154.76 89.76 156.13 86.92
  Q 158.74 81.53 165.24 79.07
  A 1.93 1.80 76.2 0 0 166.37 77.05
  L 165.83 73.09
  A 0.51 0.50 78.5 0 0 165.20 72.66
  Q 159.79 74.18 156.00 77.15
  Q 152.19 80.12 150.34 85.25
  Z
  M 770.47 110.88
  A 0.90 0.90 -4.1 0 1 771.50 111.77
  L 771.50 150.88
  A 0.87 0.87 0.0 0 0 772.37 151.75
  L 778.48 151.75
  A 0.52 0.52 90.0 0 0 779.00 151.23
  L 779.00 111.77
  A 0.72 0.71 89.6 0 1 779.70 111.05
  L 789.34 111.00
  A 0.66 0.65 0.0 0 0 790.00 110.35
  L 790.00 105.27
  A 0.52 0.52 90.0 0 0 789.48 104.75
  Q 785.79 104.75 782.49 104.75
  Q 782.39 104.75 781.02 104.86
  Q 778.81 105.03 778.88 102.91
  Q 778.95 101.14 778.94 101.09
  Q 778.71 96.48 779.50 93.75
  Q 782.02 85.06 791.63 88.38
  A 0.22 0.22 -81.2 0 0 791.92 88.16
  L 791.69 82.56
  A 0.81 0.73 -81.2 0 0 791.23 81.86
  Q 787.75 80.42 783.44 81.44
  Q 774.89 83.45 772.67 91.50
  Q 771.12 97.13 771.55 103.74
  A 0.95 0.95 88.3 0 1 770.60 104.75
  L 764.38 104.75
  A 0.86 0.84 -0.0 0 0 763.52 105.59
  L 763.54 110.19
  A 0.60 0.58 4.6 0 0 764.05 110.77
  Q 767.45 111.34 770.47 110.88
  Z
  M 579.75 82.48
  A 0.41 0.41 0.0 0 0 579.34 82.07
  L 572.90 82.07
  A 0.41 0.41 0.0 0 0 572.49 82.48
  L 572.49 151.34
  A 0.41 0.41 0.0 0 0 572.90 151.75
  L 579.34 151.75
  A 0.41 0.41 0.0 0 0 579.75 151.34
  L 579.75 82.48
  Z
  M 725.23 110.06
  Q 721.86 105.29 715.97 104.13
  Q 707.80 102.53 701.45 106.17
  Q 695.82 109.40 692.78 116.71
  Q 689.45 124.72 690.57 133.47
  Q 691.52 140.93 694.83 145.61
  Q 698.98 151.49 706.56 152.69
  Q 718.26 154.54 725.64 144.71
  Q 725.96 144.29 725.96 144.81
  L 725.97 150.66
  A 1.15 1.12 0.8 0 0 727.09 151.78
  L 732.84 151.90
  A 0.65 0.59 0.5 0 0 733.50 151.31
  L 733.50 82.81
  A 0.53 0.50 90.0 0 0 733.00 82.28
  L 726.69 82.39
  A 0.56 0.52 -89.4 0 0 726.17 82.94
  L 726.07 109.79
  Q 726.06 111.25 725.23 110.06
  Z
  M 381.81 139.56
  Q 388.93 130.93 388.95 118.25
  Q 388.96 109.60 386.44 103.06
  Q 382.53 92.92 371.75 88.75
  Q 364.40 85.91 356.50 85.95
  Q 346.63 86.00 336.75 86.00
  A 0.50 0.50 0.0 0 0 336.25 86.50
  L 336.25 151.19
  A 0.56 0.56 0.0 0 0 336.81 151.75
  Q 344.87 151.75 352.75 151.70
  Q 359.65 151.66 365.75 150.00
  Q 375.36 147.39 381.81 139.56
  Z
  M 255.81 104.45
  Q 246.88 101.27 238.02 97.92
  Q 235.87 97.11 234.36 97.12
  Q 232.66 97.14 230.56 97.56
  Q 151.28 113.53 72.13 129.47
  A 1.10 1.10 84.2 0 0 71.25 130.55
  L 71.25 247.99
  A 0.81 0.80 -84.3 0 0 71.89 248.78
  L 233.43 281.21
  A 4.88 4.69 39.7 0 0 235.99 281.02
  L 266.66 269.82
  A 1.29 1.26 80.4 0 0 267.50 268.61
  L 267.50 109.42
  A 0.77 0.76 -79.3 0 0 267.02 108.71
  Q 261.20 106.36 255.81 104.45
  Z
  M 401.69 111.69
  Q 397.37 117.28 396.62 124.06
  Q 395.87 130.80 397.48 137.01
  Q 399.07 143.16 403.84 147.29
  Q 408.18 151.06 414.25 152.40
  Q 420.91 153.87 427.19 151.69
  Q 440.76 146.97 442.18 131.74
  Q 442.88 124.18 442.00 121.00
  Q 436.40 100.78 415.00 104.02
  Q 406.63 105.29 401.69 111.69
  Z
  M 527.74 111.44
  L 527.42 105.56
  A 0.62 0.47 88.2 0 0 526.94 104.97
  L 520.91 104.87
  A 0.93 0.84 -89.4 0 0 520.06 105.79
  L 520.00 150.97
  A 0.80 0.78 0.4 0 0 520.79 151.75
  L 526.98 151.84
  A 0.51 0.49 0.6 0 0 527.50 151.35
  Q 527.50 138.25 527.49 125.25
  Q 527.49 118.96 531.07 114.73
  Q 534.57 110.59 540.19 110.09
  Q 546.85 109.50 549.81 115.48
  Q 551.30 118.49 551.40 124.66
  Q 551.62 137.45 551.49 150.85
  A 0.90 0.89 0.3 0 0 552.39 151.75
  L 558.32 151.75
  A 0.93 0.92 -89.7 0 0 559.24 150.83
  Q 559.36 138.17 559.14 126.03
  Q 558.97 116.67 557.65 113.14
  Q 554.90 105.80 546.99 104.05
  Q 541.59 102.85 536.65 104.83
  Q 531.58 106.86 528.11 111.53
  Q 527.77 111.98 527.74 111.44
  Z
  M 592.98 116.77
  Q 588.51 126.86 591.94 137.81
  Q 594.44 145.83 601.11 149.68
  Q 606.84 152.99 614.87 152.71
  Q 628.87 152.23 634.37 139.45
  Q 636.74 133.93 636.79 127.78
  Q 636.83 121.35 634.44 115.81
  Q 630.92 107.68 623.27 104.99
  Q 616.33 102.55 608.76 103.99
  Q 603.39 105.02 599.12 108.50
  Q 595.24 111.65 592.98 116.77
  Z
  M 673.21 145.34
  L 673.25 151.01
  A 0.80 0.75 0.8 0 0 674.03 151.76
  L 679.56 151.94
  A 0.91 0.82 1.0 0 0 680.50 151.12
  Q 680.50 134.50 680.50 118.50
  Q 680.50 110.46 674.80 106.52
  Q 670.24 103.37 663.15 103.69
  Q 655.95 104.01 648.86 107.61
  A 1.13 1.11 76.7 0 0 648.25 108.61
  L 648.25 114.52
  Q 648.25 115.57 649.09 114.95
  Q 654.70 110.76 661.26 110.12
  Q 672.60 109.02 673.03 121.20
  A 0.76 0.75 -5.5 0 1 672.38 121.98
  Q 666.38 122.88 660.48 123.54
  Q 655.80 124.06 651.57 126.07
  Q 644.10 129.63 643.75 138.00
  Q 643.49 144.41 646.85 148.20
  Q 649.86 151.59 655.59 152.56
  Q 665.49 154.23 672.61 145.15
  Q 673.20 144.40 673.21 145.34
  Z
  M 830.87 111.38
  Q 827.67 115.23 826.44 120.44
  Q 825.00 126.50 825.65 132.39
  Q 826.37 138.86 829.47 143.46
  Q 832.25 147.59 836.67 150.04
  Q 840.59 152.22 845.77 152.76
  Q 851.09 153.32 855.44 151.94
  Q 868.06 147.93 870.63 135.51
  Q 871.69 130.36 871.37 124.97
  Q 871.04 119.38 868.69 114.56
  Q 864.62 106.24 855.08 104.13
  Q 850.19 103.05 844.25 104.00
  Q 835.90 105.33 830.87 111.38
  Z
  M 889.80 111.03
  L 889.75 105.44
  A 0.68 0.66 90.0 0 0 889.09 104.76
  L 882.94 104.80
  A 0.72 0.69 -90.0 0 0 882.25 105.52
  L 882.25 151.12
  A 0.85 0.79 -0.7 0 0 883.12 151.91
  L 888.84 151.76
  A 0.94 0.89 -1.0 0 0 889.76 150.86
  Q 889.59 136.50 889.94 122.87
  Q 890.01 120.10 890.72 118.23
  Q 891.64 115.82 893.06 114.06
  Q 896.84 109.40 902.33 110.01
  Q 906.05 110.42 908.50 112.81
  Q 911.10 115.36 911.52 119.42
  Q 911.78 121.82 911.77 124.25
  Q 911.75 137.63 911.75 151.07
  A 0.67 0.66 90.0 0 0 912.41 151.74
  L 918.69 151.70
  A 0.52 0.50 90.0 0 0 919.19 151.18
  Q 919.24 138.70 919.30 126.21
  Q 919.31 122.26 919.97 120.00
  Q 920.93 116.71 922.81 114.31
  Q 928.33 107.30 936.81 111.44
  Q 939.49 112.75 940.26 116.17
  Q 940.92 119.14 940.95 119.28
  Q 941.18 120.55 941.25 122.50
  Q 941.71 136.00 941.21 150.77
  A 0.91 0.89 -88.7 0 0 942.09 151.71
  L 948.20 151.75
  A 0.56 0.55 -90.0 0 0 948.75 151.19
  Q 948.79 135.42 948.70 120.26
  Q 948.69 118.42 948.39 116.89
  Q 948.06 115.22 947.63 113.58
  Q 946.58 109.56 943.73 107.07
  Q 941.31 104.94 937.17 104.04
  Q 925.32 101.48 918.23 112.44
  Q 917.88 112.98 917.61 112.39
  Q 912.65 101.63 900.55 104.21
  Q 894.04 105.60 890.43 111.20
  Q 889.81 112.17 889.80 111.03
  Z
  M 804.74 113.20
  L 804.57 105.68
  A 0.90 0.77 88.9 0 0 803.79 104.80
  L 797.69 104.88
  A 0.57 0.51 -89.9 0 0 797.19 105.44
  L 796.98 150.94
  A 0.80 0.79 -89.6 0 0 797.77 151.75
  L 803.66 151.75
  A 0.86 0.86 89.7 0 0 804.52 150.88
  Q 804.32 137.25 804.75 124.75
  Q 804.96 118.68 808.97 114.25
  Q 811.49 111.48 814.31 110.94
  Q 817.36 110.37 820.93 111.78
  A 0.60 0.55 9.9 0 0 821.75 111.25
  L 821.29 104.87
  A 0.81 0.75 2.0 0 0 820.58 104.17
  Q 812.83 103.18 808.56 107.81
  Q 806.91 109.61 805.04 113.25
  Q 804.75 113.80 804.74 113.20
  Z
  M 494.19 142.96
  L 484.01 105.49
  A 0.93 0.87 81.5 0 0 483.14 104.80
  L 477.44 104.88
  A 0.76 0.67 -81.1 0 0 476.79 105.42
  L 465.38 143.08
  Q 465.15 143.85 464.94 143.08
  L 454.82 105.54
  A 0.79 0.79 -2.3 0 0 454.20 104.97
  Q 450.85 104.41 447.50 104.92
  A 0.44 0.43 -12.1 0 0 447.14 105.47
  L 460.82 151.21
  A 0.75 0.73 81.4 0 0 461.52 151.74
  L 467.94 151.70
  A 0.68 0.67 -81.1 0 0 468.58 151.22
  L 479.91 115.29
  Q 480.06 114.81 480.19 115.29
  L 490.27 150.81
  A 1.10 0.98 83.1 0 0 491.17 151.60
  L 497.37 151.98
  A 1.04 0.95 -79.7 0 0 498.35 151.23
  L 512.16 105.24
  A 0.38 0.38 8.0 0 0 511.79 104.75
  L 505.54 104.75
  A 0.87 0.85 -81.8 0 0 504.72 105.38
  L 494.45 142.95
  Q 494.32 143.44 494.19 142.96
  Z
  M 527.44 226.70
  Q 527.43 228.03 526.65 226.95
  Q 522.71 221.53 516.74 220.61
  Q 512.67 219.98 508.26 220.85
  Q 503.87 221.71 500.44 224.69
  Q 494.55 229.80 492.85 237.18
  Q 491.78 241.81 491.84 247.21
  Q 491.89 252.44 493.75 257.25
  Q 498.79 270.30 513.24 269.39
  Q 522.05 268.84 526.81 261.54
  Q 527.38 260.68 527.62 261.72
  Q 527.69 262.01 527.65 262.40
  Q 527.38 264.96 527.51 267.73
  A 0.55 0.54 88.3 0 0 528.05 268.25
  L 534.75 268.25
  A 0.50 0.50 0.0 0 0 535.25 267.75
  L 535.25 199.66
  A 0.66 0.66 90.0 0 0 534.59 199.00
  L 528.13 199.00
  A 0.45 0.44 -89.3 0 0 527.69 199.44
  L 527.44 226.70
  Z
  M 431.11 204.61
  A 4.87 4.87 0.0 0 0 426.24 199.74
  A 4.87 4.87 0.0 0 0 421.37 204.61
  A 4.87 4.87 0.0 0 0 426.24 209.48
  A 4.87 4.87 0.0 0 0 431.11 204.61
  Z
  M 727.64 266.51
  Q 739.49 271.68 751.00 268.25
  Q 760.44 265.44 762.63 256.47
  Q 763.76 251.81 762.59 247.55
  Q 761.31 242.85 757.56 239.69
  Q 751.79 234.81 742.31 229.69
  Q 739.54 228.19 737.33 225.62
  Q 735.08 223.00 734.69 219.97
  Q 734.10 215.29 737.23 212.11
  Q 739.68 209.62 744.04 208.79
  Q 752.24 207.24 759.76 212.07
  Q 760.23 212.36 760.22 211.83
  L 760.11 204.19
  A 0.79 0.72 10.8 0 0 759.60 203.51
  Q 754.21 201.51 746.25 201.75
  Q 736.01 202.06 730.46 208.74
  Q 727.61 212.17 726.89 216.44
  Q 726.14 220.96 727.79 225.21
  Q 729.04 228.45 732.26 231.50
  Q 735.21 234.28 738.50 236.25
  Q 744.93 240.09 748.54 242.43
  Q 752.14 244.77 753.19 246.81
  Q 757.29 254.80 752.52 259.35
  Q 749.01 262.70 742.54 262.58
  Q 734.18 262.42 727.14 257.29
  Q 726.69 256.96 726.71 257.50
  L 727.11 265.82
  A 0.89 0.74 12.7 0 0 727.64 266.51
  Z
  M 372.01 215.31
  Q 372.64 219.18 375.00 227.75
  Q 380.47 247.63 386.17 267.45
  A 0.78 0.66 81.2 0 0 386.80 268.00
  L 395.00 268.28
  A 0.68 0.63 -81.2 0 0 395.63 267.78
  L 413.75 203.74
  A 0.98 0.94 -82.7 0 0 412.83 202.49
  L 406.05 202.76
  A 0.73 0.65 -82.6 0 0 405.43 203.30
  L 391.07 257.95
  Q 390.94 258.42 390.81 257.95
  L 375.83 203.29
  A 0.74 0.66 81.7 0 0 375.19 202.75
  L 369.46 202.64
  A 1.54 1.33 -80.2 0 0 368.11 203.75
  L 352.25 258.50
  Q 351.87 259.81 351.81 258.44
  Q 351.68 255.03 350.76 251.75
  Q 344.23 228.38 337.44 203.90
  A 1.43 1.30 81.4 0 0 336.14 202.84
  L 329.50 202.93
  A 0.43 0.40 80.6 0 0 329.14 203.48
  L 347.67 267.72
  A 0.67 0.67 -8.1 0 0 348.31 268.20
  L 356.38 268.25
  A 0.71 0.68 -81.5 0 0 357.04 267.74
  L 371.80 215.30
  Q 371.93 214.83 372.01 215.31
  Z
  M 774.44 228.56
  Q 774.55 243.28 774.67 258.00
  Q 774.74 267.26 783.06 269.19
  Q 787.46 270.21 792.72 268.36
  A 0.90 0.88 -4.3 0 0 793.30 267.70
  Q 793.82 265.10 793.35 262.48
  A 0.37 0.36 -19.5 0 0 792.82 262.24
  Q 789.44 264.01 785.81 262.70
  Q 783.27 261.78 782.54 259.50
  Q 782.47 259.28 781.81 256.03
  Q 781.46 254.29 781.46 252.50
  Q 781.50 240.50 781.50 228.85
  A 0.87 0.86 -0.3 0 1 782.36 227.99
  L 792.95 227.95
  A 0.53 0.50 -1.1 0 0 793.47 227.44
  L 793.37 221.94
  A 0.56 0.51 -0.5 0 0 792.81 221.44
  L 782.21 221.26
  A 0.73 0.73 0.8 0 1 781.50 220.53
  Q 781.50 214.35 781.50 208.66
  Q 781.50 208.15 781.33 207.88
  Q 780.94 207.25 780.32 207.87
  Q 779.97 208.22 779.51 208.36
  L 775.15 209.75
  A 0.77 0.69 83.2 0 0 774.67 210.44
  L 774.33 220.81
  A 0.53 0.49 0.5 0 1 773.81 221.28
  L 766.99 221.44
  A 0.59 0.56 -1.1 0 0 766.42 222.00
  L 766.36 227.32
  A 0.60 0.53 1.1 0 0 766.94 227.85
  L 773.94 228.06
  A 0.52 0.50 1.2 0 1 774.44 228.56
  Z
  M 450.71 228.20
  Q 450.17 225.48 450.50 223.75
  Q 451.05 220.88 449.08 221.18
  Q 447.33 221.44 446.89 221.43
  Q 445.20 221.39 443.55 221.71
  A 0.61 0.61 -5.8 0 0 443.06 222.31
  L 443.06 267.70
  A 0.50 0.50 0.0 0 0 443.56 268.20
  L 449.98 268.25
  A 0.53 0.52 90.0 0 0 450.50 267.72
  Q 450.50 256.52 450.50 245.46
  Q 450.50 238.20 451.73 235.20
  Q 453.92 229.84 459.60 227.55
  Q 462.18 226.50 464.53 226.62
  Q 467.35 226.76 469.44 228.31
  Q 474.29 231.90 474.36 238.75
  Q 474.50 253.13 474.50 267.73
  A 0.52 0.52 0.0 0 0 475.02 268.25
  L 481.75 268.25
  A 0.50 0.50 0.0 0 0 482.25 267.75
  Q 482.25 255.38 482.12 243.00
  Q 482.03 234.13 481.25 231.75
  Q 476.71 217.85 462.25 220.75
  Q 455.61 222.08 451.10 228.28
  Q 450.81 228.69 450.71 228.20
  Z
  M 554.02 264.46
  Q 559.63 269.26 566.75 269.50
  Q 585.68 270.15 590.71 253.71
  Q 591.88 249.89 591.97 245.55
  Q 592.07 241.23 591.25 237.25
  Q 589.98 231.06 585.87 226.71
  Q 582.01 222.62 576.04 221.09
  Q 569.32 219.37 562.50 221.25
  Q 548.97 224.98 546.58 239.26
  Q 546.12 242.03 546.06 246.44
  Q 545.91 257.53 554.02 264.46
  Z
  M 667.30 267.14
  Q 673.25 269.72 679.28 269.53
  Q 686.17 269.32 690.54 266.06
  Q 695.33 262.50 695.33 255.95
  Q 695.34 251.98 693.30 248.97
  Q 691.09 245.72 687.44 244.06
  Q 682.59 241.87 679.19 239.98
  Q 676.60 238.53 675.57 237.16
  Q 673.92 234.96 674.54 232.38
  Q 675.26 229.34 678.32 227.74
  Q 681.70 225.96 686.00 227.00
  Q 689.87 227.93 692.57 229.50
  A 0.34 0.30 16.2 0 0 693.07 229.26
  L 693.13 222.92
  A 0.86 0.67 13.9 0 0 692.60 222.24
  Q 686.08 219.53 679.01 220.80
  Q 672.05 222.04 668.76 227.49
  Q 666.84 230.68 666.80 234.31
  Q 666.76 238.26 668.96 241.40
  Q 670.62 243.75 674.86 246.13
  Q 678.19 248.00 681.67 249.59
  Q 685.88 251.51 686.75 253.25
  Q 688.69 257.14 686.82 260.03
  Q 685.34 262.29 681.73 262.96
  Q 674.10 264.38 667.67 259.30
  Q 666.75 258.57 666.75 259.75
  L 666.75 266.30
  A 0.92 0.89 -78.9 0 0 667.30 267.14
  Z
  M 806.60 264.91
  Q 811.11 268.63 817.25 269.25
  Q 835.50 271.08 842.02 256.38
  Q 843.91 252.12 844.29 246.75
  Q 844.71 241.01 843.50 236.75
  Q 838.56 219.29 819.99 220.27
  Q 812.03 220.69 806.56 225.31
  Q 799.25 231.49 798.71 241.76
  Q 798.57 244.43 798.52 247.09
  Q 798.47 250.28 798.92 252.38
  Q 800.53 259.89 806.60 264.91
  Z
  M 862.24 229.71
  Q 861.77 226.74 862.05 222.46
  A 1.14 1.11 -88.3 0 0 860.94 221.25
  L 855.55 221.30
  A 0.64 0.62 89.5 0 0 854.94 221.94
  L 854.75 267.50
  A 0.56 0.50 -89.5 0 0 855.24 268.06
  L 861.69 268.22
  A 0.50 0.46 89.3 0 0 862.16 267.69
  Q 861.51 253.51 862.66 239.37
  Q 862.75 238.25 863.15 237.19
  Q 863.54 236.15 863.95 235.11
  Q 864.67 233.27 865.46 232.15
  Q 870.22 225.43 878.53 228.57
  A 0.40 0.35 11.4 0 0 879.07 228.26
  L 879.13 221.92
  A 0.82 0.67 12.3 0 0 878.60 221.25
  Q 873.70 219.40 869.14 222.11
  Q 864.66 224.78 862.99 229.77
  Q 862.49 231.29 862.24 229.71
  Z
  M 891.56 247.05
  L 923.24 246.75
  A 0.82 0.81 -0.4 0 0 924.05 245.94
  Q 924.12 238.19 922.31 231.94
  Q 921.00 227.39 917.02 224.35
  Q 913.58 221.73 908.89 220.77
  Q 902.96 219.56 897.47 221.69
  Q 892.28 223.70 888.65 228.27
  Q 884.58 233.38 883.54 240.26
  Q 882.12 249.62 885.31 257.44
  Q 890.06 269.07 903.24 269.65
  Q 912.19 270.03 920.31 265.48
  A 0.87 0.86 -15.0 0 0 920.75 264.73
  L 920.75 258.73
  Q 920.75 257.85 920.06 258.40
  Q 915.43 262.11 909.75 263.01
  Q 903.88 263.95 899.01 261.63
  Q 891.15 257.89 891.06 247.56
  A 0.51 0.51 -0.6 0 1 891.56 247.05
  Z
  M 429.99 221.75
  A 0.28 0.28 0.0 0 0 429.71 221.47
  L 422.77 221.47
  A 0.28 0.28 0.0 0 0 422.49 221.75
  L 422.49 267.97
  A 0.28 0.28 0.0 0 0 422.77 268.25
  L 429.71 268.25
  A 0.28 0.28 0.0 0 0 429.99 267.97
  L 429.99 221.75
  Z
  M 643.94 260.21
  L 633.58 222.05
  A 0.87 0.85 88.2 0 0 632.94 221.44
  Q 630.04 220.81 627.17 221.55
  A 0.92 0.91 -88.7 0 0 626.54 222.16
  L 614.96 259.70
  Q 614.81 260.18 614.68 259.71
  L 604.36 221.74
  A 0.66 0.66 -7.4 0 0 603.72 221.25
  L 597.51 221.25
  A 0.84 0.84 -8.4 0 0 596.70 222.33
  L 610.42 267.71
  A 0.70 0.64 80.6 0 0 611.06 268.22
  L 617.56 268.11
  A 0.77 0.69 -80.4 0 0 618.22 267.58
  Q 623.85 250.20 629.17 232.73
  Q 629.34 232.15 629.59 232.07
  A 0.65 0.33 82.9 0 1 630.03 232.73
  Q 630.14 234.01 630.51 235.25
  Q 635.35 251.21 639.80 267.74
  A 0.68 0.67 82.0 0 0 640.45 268.24
  L 647.44 268.20
  A 0.67 0.67 8.1 0 0 648.08 267.72
  L 661.62 222.68
  A 1.15 1.12 7.5 0 0 660.48 221.24
  L 656.09 221.34
  A 1.98 1.83 6.4 0 0 654.25 222.70
  L 644.19 260.21
  Q 644.07 260.67 643.94 260.21
  Z"
/>
<path fill="#ffffff" d="
  M 169.56 54.69
  Q 174.41 58.39 176.23 64.26
  Q 177.67 68.90 177.88 73.76
  Q 178.46 86.96 178.20 100.19
  A 0.92 0.85 76.9 0 1 177.77 100.95
  Q 176.51 101.68 175.00 101.56
  A 1.47 1.42 29.8 0 0 174.09 101.79
  Q 172.24 103.03 172.40 100.61
  Q 172.50 99.07 172.50 98.89
  Q 172.50 89.07 172.48 79.25
  Q 172.47 74.05 171.17 69.02
  Q 168.69 59.45 159.00 58.00
  Q 154.43 57.32 149.45 58.26
  Q 141.48 59.77 134.14 63.23
  Q 122.12 68.90 121.90 82.44
  Q 121.66 97.06 121.69 111.69
  A 0.65 0.62 83.9 0 1 121.21 112.32
  L 116.65 113.31
  A 0.55 0.53 83.6 0 1 116.01 112.77
  Q 115.83 95.50 116.25 79.00
  Q 116.51 68.85 123.13 62.31
  Q 128.04 57.45 138.11 54.39
  Q 146.57 51.81 155.49 51.14
  Q 164.07 50.49 169.56 54.69
  Z"
/>
<path fill="#ffffff" d="
  M 199.56 69.94
  Q 202.32 71.46 203.50 75.75
  Q 205.44 82.81 205.02 94.75
  A 0.74 0.58 87.5 0 1 204.53 95.44
  L 199.80 96.32
  A 0.59 0.51 87.6 0 1 199.20 95.69
  Q 199.68 87.32 198.32 80.03
  Q 197.39 75.06 192.40 74.27
  Q 188.98 73.72 184.50 74.08
  A 0.73 0.62 83.7 0 1 183.82 73.44
  L 183.24 69.20
  A 0.61 0.55 79.0 0 1 183.63 68.56
  Q 192.57 66.07 199.56 69.94
  Z"
/>
<path fill="#ffffff" d="
  M 156.00 77.15
  Q 159.79 74.18 165.20 72.66
  A 0.51 0.50 78.5 0 1 165.83 73.09
  L 166.37 77.05
  A 1.93 1.80 76.2 0 1 165.24 79.07
  Q 158.74 81.53 156.13 86.92
  Q 154.76 89.76 154.58 95.82
  Q 154.45 100.38 154.44 104.94
  A 0.72 0.58 85.1 0 1 153.98 105.62
  L 149.26 106.61
  A 0.47 0.42 84.6 0 1 148.75 106.14
  Q 148.75 101.00 148.61 96.25
  Q 148.44 90.48 150.34 85.25
  Q 152.19 80.12 156.00 77.15
  Z"
/>
<path fill="#ffffff" d="
  M 770.47 110.88
  Q 767.45 111.34 764.05 110.77
  A 0.60 0.58 4.6 0 1 763.54 110.19
  L 763.52 105.59
  A 0.86 0.84 0.0 0 1 764.38 104.75
  L 770.60 104.75
  A 0.95 0.95 88.3 0 0 771.55 103.74
  Q 771.12 97.13 772.67 91.50
  Q 774.89 83.45 783.44 81.44
  Q 787.75 80.42 791.23 81.86
  A 0.81 0.73 -81.2 0 1 791.69 82.56
  L 791.92 88.16
  A 0.22 0.22 -81.2 0 1 791.63 88.38
  Q 782.02 85.06 779.50 93.75
  Q 778.71 96.48 778.94 101.09
  Q 778.95 101.14 778.88 102.91
  Q 778.81 105.03 781.02 104.86
  Q 782.39 104.75 782.49 104.75
  Q 785.79 104.75 789.48 104.75
  A 0.52 0.52 -90.0 0 1 790.00 105.27
  L 790.00 110.35
  A 0.66 0.65 0.0 0 1 789.34 111.00
  L 779.70 111.05
  A 0.72 0.71 89.6 0 0 779.00 111.77
  L 779.00 151.23
  A 0.52 0.52 -90.0 0 1 778.48 151.75
  L 772.37 151.75
  A 0.87 0.87 0.0 0 1 771.50 150.88
  L 771.50 111.77
  A 0.90 0.90 -4.1 0 0 770.47 110.88
  Z"
/>
<rect fill="#ffffff" x="572.49" y="82.07" width="7.26" height="69.68" rx="0.41"/>
<path fill="#ffffff" d="
  M 725.23 110.06
  Q 726.06 111.25 726.07 109.79
  L 726.17 82.94
  A 0.56 0.52 -89.4 0 1 726.69 82.39
  L 733.00 82.28
  A 0.53 0.50 90.0 0 1 733.50 82.81
  L 733.50 151.31
  A 0.65 0.59 0.5 0 1 732.84 151.90
  L 727.09 151.78
  A 1.15 1.12 0.8 0 1 725.97 150.66
  L 725.96 144.81
  Q 725.96 144.29 725.64 144.71
  Q 718.26 154.54 706.56 152.69
  Q 698.98 151.49 694.83 145.61
  Q 691.52 140.93 690.57 133.47
  Q 689.45 124.72 692.78 116.71
  Q 695.82 109.40 701.45 106.17
  Q 707.80 102.53 715.97 104.13
  Q 721.86 105.29 725.23 110.06
  Z
  M 701.94 115.44
  Q 698.78 119.60 698.33 124.23
  Q 697.83 129.34 698.50 133.75
  Q 699.75 141.99 706.05 144.96
  Q 711.98 147.75 717.95 144.91
  Q 724.25 141.90 725.75 133.75
  Q 726.30 130.76 725.97 123.74
  Q 725.76 119.26 724.20 116.58
  Q 720.51 110.23 712.86 110.08
  Q 709.37 110.01 706.81 111.28
  Q 704.04 112.66 701.94 115.44
  Z"
/>
<path fill="#ffffff" d="
  M 381.81 139.56
  Q 375.36 147.39 365.75 150.00
  Q 359.65 151.66 352.75 151.70
  Q 344.87 151.75 336.81 151.75
  A 0.56 0.56 0.0 0 1 336.25 151.19
  L 336.25 86.50
  A 0.50 0.50 0.0 0 1 336.75 86.00
  Q 346.63 86.00 356.50 85.95
  Q 364.40 85.91 371.75 88.75
  Q 382.53 92.92 386.44 103.06
  Q 388.96 109.60 388.95 118.25
  Q 388.93 130.93 381.81 139.56
  Z
  M 375.56 135.56
  Q 380.11 129.49 380.77 122.00
  Q 381.43 114.38 379.50 107.96
  Q 376.61 98.35 365.92 94.60
  Q 361.66 93.11 357.18 92.98
  Q 352.98 92.86 352.82 92.85
  Q 348.83 92.63 344.58 92.76
  A 0.86 0.86 -1.0 0 0 343.75 93.62
  L 343.81 143.70
  A 0.68 0.68 8.7 0 0 344.29 144.35
  Q 345.86 144.83 347.46 144.75
  Q 350.91 144.59 351.07 144.60
  Q 358.97 144.92 364.25 143.25
  Q 371.53 140.95 375.56 135.56
  Z"
/>
<path fill="#030303" d="
  M 375.56 135.56
  Q 371.53 140.95 364.25 143.25
  Q 358.97 144.92 351.07 144.60
  Q 350.91 144.59 347.46 144.75
  Q 345.86 144.83 344.29 144.35
  A 0.68 0.68 8.7 0 1 343.81 143.70
  L 343.75 93.62
  A 0.86 0.86 -1.0 0 1 344.58 92.76
  Q 348.83 92.63 352.82 92.85
  Q 352.98 92.86 357.18 92.98
  Q 361.66 93.11 365.92 94.60
  Q 376.61 98.35 379.50 107.96
  Q 381.43 114.38 380.77 122.00
  Q 380.11 129.49 375.56 135.56
  Z"
/>
<path fill="#ffffff" d="
  M 255.81 104.45
  Q 261.20 106.36 267.02 108.71
  A 0.77 0.76 -79.3 0 1 267.50 109.42
  L 267.50 268.61
  A 1.29 1.26 80.4 0 1 266.66 269.82
  L 235.99 281.02
  A 4.88 4.69 39.7 0 1 233.43 281.21
  L 71.89 248.78
  A 0.81 0.80 -84.3 0 1 71.25 247.99
  L 71.25 130.55
  A 1.10 1.10 84.2 0 1 72.13 129.47
  Q 151.28 113.53 230.56 97.56
  Q 232.66 97.14 234.36 97.12
  Q 235.87 97.11 238.02 97.92
  Q 246.88 101.27 255.81 104.45
  Z
  M 145.79 171.89
  Q 145.65 178.12 145.76 184.70
  A 0.56 0.56 89.5 0 0 146.32 185.25
  L 192.44 185.25
  A 0.56 0.56 0.0 0 0 193.00 184.69
  L 193.00 145.29
  A 0.81 0.81 86.0 0 0 192.08 144.49
  Q 172.00 147.38 152.00 150.25
  Q 147.88 150.84 146.27 151.39
  A 0.73 0.68 82.2 0 0 145.80 152.06
  Q 145.68 157.02 145.78 161.98
  Q 145.89 167.25 145.79 171.89
  Z
  M 142.82 151.90
  A 0.31 0.31 86.0 0 0 142.47 151.59
  L 107.41 156.37
  A 0.77 0.76 86.1 0 0 106.75 157.13
  L 106.75 184.69
  A 0.56 0.55 90.0 0 0 107.30 185.25
  L 142.44 185.19
  A 0.50 0.49 -90.0 0 0 142.93 184.69
  L 142.82 151.90
  Z
  M 107.59 219.05
  L 141.56 223.83
  A 1.10 1.10 4.3 0 0 142.82 222.75
  L 143.00 189.17
  A 0.91 0.91 -89.7 0 0 142.09 188.25
  L 107.31 188.25
  A 0.56 0.56 0.0 0 0 106.75 188.81
  L 106.75 218.08
  A 0.98 0.98 -85.9 0 0 107.59 219.05
  Z
  M 192.07 188.43
  L 146.52 188.26
  A 0.77 0.76 -89.6 0 0 145.75 189.03
  L 145.81 223.32
  A 1.09 1.08 4.3 0 0 146.74 224.39
  L 191.66 230.84
  A 1.17 1.17 -85.8 0 0 193.00 229.68
  L 193.00 189.38
  A 0.95 0.94 -89.7 0 0 192.07 188.43
  Z"
/>
<path fill="#ffffff" d="
  M 401.69 111.69
  Q 406.63 105.29 415.00 104.02
  Q 436.40 100.78 442.00 121.00
  Q 442.88 124.18 442.18 131.74
  Q 440.76 146.97 427.19 151.69
  Q 420.91 153.87 414.25 152.40
  Q 408.18 151.06 403.84 147.29
  Q 399.07 143.16 397.48 137.01
  Q 395.87 130.80 396.62 124.06
  Q 397.37 117.28 401.69 111.69
  Z
  M 407.56 115.84
  Q 404.96 119.28 404.50 124.50
  Q 404.14 128.55 404.43 131.87
  Q 404.78 135.83 406.48 138.86
  Q 409.32 143.92 414.73 145.64
  Q 419.79 147.26 424.78 145.68
  Q 431.79 143.47 433.94 135.44
  Q 435.90 128.10 433.88 121.03
  Q 432.35 115.71 429.05 112.98
  Q 425.18 109.79 419.50 109.86
  Q 411.98 109.96 407.56 115.84
  Z"
/>
<path fill="#ffffff" d="
  M 528.11 111.53
  Q 531.58 106.86 536.65 104.83
  Q 541.59 102.85 546.99 104.05
  Q 554.90 105.80 557.65 113.14
  Q 558.97 116.67 559.14 126.03
  Q 559.36 138.17 559.24 150.83
  A 0.93 0.92 -89.7 0 1 558.32 151.75
  L 552.39 151.75
  A 0.90 0.89 0.3 0 1 551.49 150.85
  Q 551.62 137.45 551.40 124.66
  Q 551.30 118.49 549.81 115.48
  Q 546.85 109.50 540.19 110.09
  Q 534.57 110.59 531.07 114.73
  Q 527.49 118.96 527.49 125.25
  Q 527.50 138.25 527.50 151.35
  A 0.51 0.49 0.6 0 1 526.98 151.84
  L 520.79 151.75
  A 0.80 0.78 0.4 0 1 520.00 150.97
  L 520.06 105.79
  A 0.93 0.84 -89.4 0 1 520.91 104.87
  L 526.94 104.97
  A 0.62 0.47 88.2 0 1 527.42 105.56
  L 527.74 111.44
  Q 527.77 111.98 528.11 111.53
  Z"
/>
<path fill="#ffffff" d="
  M 599.12 108.50
  Q 603.39 105.02 608.76 103.99
  Q 616.33 102.55 623.27 104.99
  Q 630.92 107.68 634.44 115.81
  Q 636.83 121.35 636.79 127.78
  Q 636.74 133.93 634.37 139.45
  Q 628.87 152.23 614.87 152.71
  Q 606.84 152.99 601.11 149.68
  Q 594.44 145.83 591.94 137.81
  Q 588.51 126.86 592.98 116.77
  Q 595.24 111.65 599.12 108.50
  Z
  M 602.68 114.93
  Q 599.19 119.05 598.52 124.11
  Q 597.91 128.72 598.81 133.88
  Q 600.05 140.91 605.97 144.20
  Q 611.32 147.18 617.39 146.05
  Q 626.27 144.39 628.40 133.93
  Q 629.88 126.65 627.94 120.31
  Q 624.76 109.96 613.50 109.97
  Q 606.87 109.98 602.68 114.93
  Z"
/>
<path fill="#ffffff" d="
  M 673.21 145.34
  Q 673.20 144.40 672.61 145.15
  Q 665.49 154.23 655.59 152.56
  Q 649.86 151.59 646.85 148.20
  Q 643.49 144.41 643.75 138.00
  Q 644.10 129.63 651.57 126.07
  Q 655.80 124.06 660.48 123.54
  Q 666.38 122.88 672.38 121.98
  A 0.76 0.75 -5.5 0 0 673.03 121.20
  Q 672.60 109.02 661.26 110.12
  Q 654.70 110.76 649.09 114.95
  Q 648.25 115.57 648.25 114.52
  L 648.25 108.61
  A 1.13 1.11 76.7 0 1 648.86 107.61
  Q 655.95 104.01 663.15 103.69
  Q 670.24 103.37 674.80 106.52
  Q 680.50 110.46 680.50 118.50
  Q 680.50 134.50 680.50 151.12
  A 0.91 0.82 1.0 0 1 679.56 151.94
  L 674.03 151.76
  A 0.80 0.75 0.8 0 1 673.25 151.01
  L 673.21 145.34
  Z
  M 651.76 136.28
  Q 650.38 142.57 655.32 145.14
  Q 659.03 147.07 663.48 145.88
  Q 668.93 144.43 671.57 139.20
  Q 672.58 137.19 672.91 134.25
  Q 673.21 131.55 673.19 129.07
  A 0.94 0.93 86.2 0 0 672.14 128.15
  Q 664.93 128.99 658.68 130.13
  Q 656.04 130.62 654.11 132.18
  Q 652.33 133.64 651.76 136.28
  Z"
/>
<path fill="#ffffff" d="
  M 830.87 111.38
  Q 835.90 105.33 844.25 104.00
  Q 850.19 103.05 855.08 104.13
  Q 864.62 106.24 868.69 114.56
  Q 871.04 119.38 871.37 124.97
  Q 871.69 130.36 870.63 135.51
  Q 868.06 147.93 855.44 151.94
  Q 851.09 153.32 845.77 152.76
  Q 840.59 152.22 836.67 150.04
  Q 832.25 147.59 829.47 143.46
  Q 826.37 138.86 825.65 132.39
  Q 825.00 126.50 826.44 120.44
  Q 827.67 115.23 830.87 111.38
  Z
  M 837.36 114.86
  Q 834.57 118.02 833.75 122.50
  Q 832.97 126.78 833.25 130.84
  Q 833.56 135.28 835.47 138.73
  Q 839.49 145.98 847.81 146.33
  Q 853.19 146.56 857.22 143.88
  Q 861.81 140.84 863.05 135.23
  Q 863.72 132.17 863.75 127.25
  Q 863.77 122.74 862.50 119.25
  Q 859.07 109.83 848.25 109.94
  Q 841.64 110.01 837.36 114.86
  Z"
/>
<path fill="#ffffff" d="
  M 889.80 111.03
  Q 889.81 112.17 890.43 111.20
  Q 894.04 105.60 900.55 104.21
  Q 912.65 101.63 917.61 112.39
  Q 917.88 112.98 918.23 112.44
  Q 925.32 101.48 937.17 104.04
  Q 941.31 104.94 943.73 107.07
  Q 946.58 109.56 947.63 113.58
  Q 948.06 115.22 948.39 116.89
  Q 948.69 118.42 948.70 120.26
  Q 948.79 135.42 948.75 151.19
  A 0.56 0.55 -90.0 0 1 948.20 151.75
  L 942.09 151.71
  A 0.91 0.89 -88.7 0 1 941.21 150.77
  Q 941.71 136.00 941.25 122.50
  Q 941.18 120.55 940.95 119.28
  Q 940.92 119.14 940.26 116.17
  Q 939.49 112.75 936.81 111.44
  Q 928.33 107.30 922.81 114.31
  Q 920.93 116.71 919.97 120.00
  Q 919.31 122.26 919.30 126.21
  Q 919.24 138.70 919.19 151.18
  A 0.52 0.50 -90.0 0 1 918.69 151.70
  L 912.41 151.74
  A 0.67 0.66 90.0 0 1 911.75 151.07
  Q 911.75 137.63 911.77 124.25
  Q 911.78 121.82 911.52 119.42
  Q 911.10 115.36 908.50 112.81
  Q 906.05 110.42 902.33 110.01
  Q 896.84 109.40 893.06 114.06
  Q 891.64 115.82 890.72 118.23
  Q 890.01 120.10 889.94 122.87
  Q 889.59 136.50 889.76 150.86
  A 0.94 0.89 -1.0 0 1 888.84 151.76
  L 883.12 151.91
  A 0.85 0.79 -0.7 0 1 882.25 151.12
  L 882.25 105.52
  A 0.72 0.69 -90.0 0 1 882.94 104.80
  L 889.09 104.76
  A 0.68 0.66 90.0 0 1 889.75 105.44
  L 889.80 111.03
  Z"
/>
<path fill="#ffffff" d="
  M 805.04 113.25
  Q 806.91 109.61 808.56 107.81
  Q 812.83 103.18 820.58 104.17
  A 0.81 0.75 2.0 0 1 821.29 104.87
  L 821.75 111.25
  A 0.60 0.55 9.9 0 1 820.93 111.78
  Q 817.36 110.37 814.31 110.94
  Q 811.49 111.48 808.97 114.25
  Q 804.96 118.68 804.75 124.75
  Q 804.32 137.25 804.52 150.88
  A 0.86 0.86 89.7 0 1 803.66 151.75
  L 797.77 151.75
  A 0.80 0.79 -89.6 0 1 796.98 150.94
  L 797.19 105.44
  A 0.57 0.51 -89.9 0 1 797.69 104.88
  L 803.79 104.80
  A 0.90 0.77 88.9 0 1 804.57 105.68
  L 804.74 113.20
  Q 804.75 113.80 805.04 113.25
  Z"
/>
<path fill="#ffffff" d="
  M 494.45 142.95
  L 504.72 105.38
  A 0.87 0.85 -81.8 0 1 505.54 104.75
  L 511.79 104.75
  A 0.38 0.38 8.0 0 1 512.16 105.24
  L 498.35 151.23
  A 1.04 0.95 -79.7 0 1 497.37 151.98
  L 491.17 151.60
  A 1.10 0.98 83.1 0 1 490.27 150.81
  L 480.19 115.29
  Q 480.06 114.81 479.91 115.29
  L 468.58 151.22
  A 0.68 0.67 -81.1 0 1 467.94 151.70
  L 461.52 151.74
  A 0.75 0.73 81.4 0 1 460.82 151.21
  L 447.14 105.47
  A 0.44 0.43 -12.1 0 1 447.50 104.92
  Q 450.85 104.41 454.20 104.97
  A 0.79 0.79 -2.3 0 1 454.82 105.54
  L 464.94 143.08
  Q 465.15 143.85 465.38 143.08
  L 476.79 105.42
  A 0.76 0.67 -81.1 0 1 477.44 104.88
  L 483.14 104.80
  A 0.93 0.87 81.5 0 1 484.01 105.49
  L 494.19 142.96
  Q 494.32 143.44 494.45 142.95
  Z"
/>
<path fill="#030303" d="
  M 407.56 115.84
  Q 411.98 109.96 419.50 109.86
  Q 425.18 109.79 429.05 112.98
  Q 432.35 115.71 433.88 121.03
  Q 435.90 128.10 433.94 135.44
  Q 431.79 143.47 424.78 145.68
  Q 419.79 147.26 414.73 145.64
  Q 409.32 143.92 406.48 138.86
  Q 404.78 135.83 404.43 131.87
  Q 404.14 128.55 404.50 124.50
  Q 404.96 119.28 407.56 115.84
  Z"
/>
<path fill="#030303" d="
  M 602.68 114.93
  Q 606.87 109.98 613.50 109.97
  Q 624.76 109.96 627.94 120.31
  Q 629.88 126.65 628.40 133.93
  Q 626.27 144.39 617.39 146.05
  Q 611.32 147.18 605.97 144.20
  Q 600.05 140.91 598.81 133.88
  Q 597.91 128.72 598.52 124.11
  Q 599.19 119.05 602.68 114.93
  Z"
/>
<path fill="#030303" d="
  M 701.94 115.44
  Q 704.04 112.66 706.81 111.28
  Q 709.37 110.01 712.86 110.08
  Q 720.51 110.23 724.20 116.58
  Q 725.76 119.26 725.97 123.74
  Q 726.30 130.76 725.75 133.75
  Q 724.25 141.90 717.95 144.91
  Q 711.98 147.75 706.05 144.96
  Q 699.75 141.99 698.50 133.75
  Q 697.83 129.34 698.33 124.23
  Q 698.78 119.60 701.94 115.44
  Z"
/>
<path fill="#030303" d="
  M 837.36 114.86
  Q 841.64 110.01 848.25 109.94
  Q 859.07 109.83 862.50 119.25
  Q 863.77 122.74 863.75 127.25
  Q 863.72 132.17 863.05 135.23
  Q 861.81 140.84 857.22 143.88
  Q 853.19 146.56 847.81 146.33
  Q 839.49 145.98 835.47 138.73
  Q 833.56 135.28 833.25 130.84
  Q 832.97 126.78 833.75 122.50
  Q 834.57 118.02 837.36 114.86
  Z"
/>
<path fill="#030303" d="
  M 654.11 132.18
  Q 656.04 130.62 658.68 130.13
  Q 664.93 128.99 672.14 128.15
  A 0.94 0.93 86.2 0 1 673.19 129.07
  Q 673.21 131.55 672.91 134.25
  Q 672.58 137.19 671.57 139.20
  Q 668.93 144.43 663.48 145.88
  Q 659.03 147.07 655.32 145.14
  Q 650.38 142.57 651.76 136.28
  Q 652.33 133.64 654.11 132.18
  Z"
/>
<path fill="#030303" d="
  M 145.78 161.98
  Q 145.68 157.02 145.80 152.06
  A 0.73 0.68 82.2 0 1 146.27 151.39
  Q 147.88 150.84 152.00 150.25
  Q 172.00 147.38 192.08 144.49
  A 0.81 0.81 86.0 0 1 193.00 145.29
  L 193.00 184.69
  A 0.56 0.56 0.0 0 1 192.44 185.25
  L 146.32 185.25
  A 0.56 0.56 89.5 0 1 145.76 184.70
  Q 145.65 178.12 145.79 171.89
  Q 145.89 167.25 145.78 161.98
  Z"
/>
<path fill="#030303" d="
  M 142.82 151.90
  L 142.93 184.69
  A 0.50 0.49 -90.0 0 1 142.44 185.19
  L 107.30 185.25
  A 0.56 0.55 90.0 0 1 106.75 184.69
  L 106.75 157.13
  A 0.77 0.76 86.1 0 1 107.41 156.37
  L 142.47 151.59
  A 0.31 0.31 86.0 0 1 142.82 151.90
  Z"
/>
<path fill="#030303" d="
  M 107.59 219.05
  A 0.98 0.98 -85.9 0 1 106.75 218.08
  L 106.75 188.81
  A 0.56 0.56 0.0 0 1 107.31 188.25
  L 142.09 188.25
  A 0.91 0.91 -89.7 0 1 143.00 189.17
  L 142.82 222.75
  A 1.10 1.10 4.3 0 1 141.56 223.83
  L 107.59 219.05
  Z"
/>
<path fill="#030303" d="
  M 192.07 188.43
  A 0.95 0.94 -89.7 0 1 193.00 189.38
  L 193.00 229.68
  A 1.17 1.17 -85.8 0 1 191.66 230.84
  L 146.74 224.39
  A 1.09 1.08 4.3 0 1 145.81 223.32
  L 145.75 189.03
  A 0.77 0.76 -89.6 0 1 146.52 188.26
  L 192.07 188.43
  Z"
/>
<path fill="#ffffff" d="
  M 527.44 226.70
  L 527.69 199.44
  A 0.45 0.44 -89.3 0 1 528.13 199.00
  L 534.59 199.00
  A 0.66 0.66 89.5 0 1 535.25 199.66
  L 535.25 267.75
  A 0.50 0.50 0.0 0 1 534.75 268.25
  L 528.05 268.25
  A 0.55 0.54 88.3 0 1 527.51 267.73
  Q 527.38 264.96 527.65 262.40
  Q 527.69 262.01 527.62 261.72
  Q 527.38 260.68 526.81 261.54
  Q 522.05 268.84 513.24 269.39
  Q 498.79 270.30 493.75 257.25
  Q 491.89 252.44 491.84 247.21
  Q 491.78 241.81 492.85 237.18
  Q 494.55 229.80 500.44 224.69
  Q 503.87 221.71 508.26 220.85
  Q 512.67 219.98 516.74 220.61
  Q 522.71 221.53 526.65 226.95
  Q 527.43 228.03 527.44 226.70
  Z
  M 505.71 260.53
  Q 510.21 263.78 515.13 263.14
  Q 519.67 262.55 523.21 258.97
  Q 527.97 254.15 527.66 246.49
  Q 527.55 243.74 527.52 240.99
  Q 527.47 237.49 526.81 235.59
  Q 524.97 230.33 519.94 228.06
  Q 513.29 225.06 507.81 228.31
  Q 502.11 231.70 500.40 238.23
  Q 499.41 242.04 499.48 246.33
  Q 499.56 250.46 501.05 254.44
  Q 502.47 258.20 505.71 260.53
  Z"
/>
<circle fill="#ffffff" cx="426.24" cy="204.61" r="4.87"/>
<path fill="#ffffff" d="
  M 727.11 265.82
  L 726.71 257.50
  Q 726.69 256.96 727.14 257.29
  Q 734.18 262.42 742.54 262.58
  Q 749.01 262.70 752.52 259.35
  Q 757.29 254.80 753.19 246.81
  Q 752.14 244.77 748.54 242.43
  Q 744.93 240.09 738.50 236.25
  Q 735.21 234.28 732.26 231.50
  Q 729.04 228.45 727.79 225.21
  Q 726.14 220.96 726.89 216.44
  Q 727.61 212.17 730.46 208.74
  Q 736.01 202.06 746.25 201.75
  Q 754.21 201.51 759.60 203.51
  A 0.79 0.72 10.8 0 1 760.11 204.19
  L 760.22 211.83
  Q 760.23 212.36 759.76 212.07
  Q 752.24 207.24 744.04 208.79
  Q 739.68 209.62 737.23 212.11
  Q 734.10 215.29 734.69 219.97
  Q 735.08 223.00 737.33 225.62
  Q 739.54 228.19 742.31 229.69
  Q 751.79 234.81 757.56 239.69
  Q 761.31 242.85 762.59 247.55
  Q 763.76 251.81 762.63 256.47
  Q 760.44 265.44 751.00 268.25
  Q 739.49 271.68 727.64 266.51
  A 0.89 0.74 12.7 0 1 727.11 265.82
  Z"
/>
<path fill="#ffffff" d="
  M 371.80 215.30
  L 357.04 267.74
  A 0.71 0.68 -81.5 0 1 356.38 268.25
  L 348.31 268.20
  A 0.67 0.67 -8.1 0 1 347.67 267.72
  L 329.14 203.48
  A 0.43 0.40 80.6 0 1 329.50 202.93
  L 336.14 202.84
  A 1.43 1.30 81.4 0 1 337.44 203.90
  Q 344.23 228.38 350.76 251.75
  Q 351.68 255.03 351.81 258.44
  Q 351.87 259.81 352.25 258.50
  L 368.11 203.75
  A 1.54 1.33 -80.2 0 1 369.46 202.64
  L 375.19 202.75
  A 0.74 0.66 81.7 0 1 375.83 203.29
  L 390.81 257.95
  Q 390.94 258.42 391.07 257.95
  L 405.43 203.30
  A 0.73 0.65 -82.6 0 1 406.05 202.76
  L 412.83 202.49
  A 0.98 0.94 -82.7 0 1 413.75 203.74
  L 395.63 267.78
  A 0.68 0.63 -81.2 0 1 395.00 268.28
  L 386.80 268.00
  A 0.78 0.66 81.2 0 1 386.17 267.45
  Q 380.47 247.63 375.00 227.75
  Q 372.64 219.18 372.01 215.31
  Q 371.93 214.83 371.80 215.30
  Z"
/>
<path fill="#ffffff" d="
  M 773.94 228.06
  L 766.94 227.85
  A 0.60 0.53 1.1 0 1 766.36 227.32
  L 766.42 222.00
  A 0.59 0.56 -1.1 0 1 766.99 221.44
  L 773.81 221.28
  A 0.53 0.49 0.5 0 0 774.33 220.81
  L 774.67 210.44
  A 0.77 0.69 83.2 0 1 775.15 209.75
  L 779.51 208.36
  Q 779.97 208.22 780.32 207.87
  Q 780.94 207.25 781.33 207.88
  Q 781.50 208.15 781.50 208.66
  Q 781.50 214.35 781.50 220.53
  A 0.73 0.73 0.8 0 0 782.21 221.26
  L 792.81 221.44
  A 0.56 0.51 -0.5 0 1 793.37 221.94
  L 793.47 227.44
  A 0.53 0.50 -1.1 0 1 792.95 227.95
  L 782.36 227.99
  A 0.87 0.86 -0.3 0 0 781.50 228.85
  Q 781.50 240.50 781.46 252.50
  Q 781.46 254.29 781.81 256.03
  Q 782.47 259.28 782.54 259.50
  Q 783.27 261.78 785.81 262.70
  Q 789.44 264.01 792.82 262.24
  A 0.37 0.36 -19.5 0 1 793.35 262.48
  Q 793.82 265.10 793.30 267.70
  A 0.90 0.88 -4.3 0 1 792.72 268.36
  Q 787.46 270.21 783.06 269.19
  Q 774.74 267.26 774.67 258.00
  Q 774.55 243.28 774.44 228.56
  A 0.52 0.50 1.2 0 0 773.94 228.06
  Z"
/>
<path fill="#ffffff" d="
  M 451.10 228.28
  Q 455.61 222.08 462.25 220.75
  Q 476.71 217.85 481.25 231.75
  Q 482.03 234.13 482.12 243.00
  Q 482.25 255.38 482.25 267.75
  A 0.50 0.50 0.0 0 1 481.75 268.25
  L 475.02 268.25
  A 0.52 0.52 0.0 0 1 474.50 267.73
  Q 474.50 253.13 474.36 238.75
  Q 474.29 231.90 469.44 228.31
  Q 467.35 226.76 464.53 226.62
  Q 462.18 226.50 459.60 227.55
  Q 453.92 229.84 451.73 235.20
  Q 450.50 238.20 450.50 245.46
  Q 450.50 256.52 450.50 267.72
  A 0.53 0.52 90.0 0 1 449.98 268.25
  L 443.56 268.20
  A 0.50 0.50 0.0 0 1 443.06 267.70
  L 443.06 222.31
  A 0.61 0.61 -5.8 0 1 443.55 221.71
  Q 445.20 221.39 446.89 221.43
  Q 447.33 221.44 449.08 221.18
  Q 451.05 220.88 450.50 223.75
  Q 450.17 225.48 450.71 228.20
  Q 450.81 228.69 451.10 228.28
  Z"
/>
<path fill="#ffffff" d="
  M 554.02 264.46
  Q 545.91 257.53 546.06 246.44
  Q 546.12 242.03 546.58 239.26
  Q 548.97 224.98 562.50 221.25
  Q 569.32 219.37 576.04 221.09
  Q 582.01 222.62 585.87 226.71
  Q 589.98 231.06 591.25 237.25
  Q 592.07 241.23 591.97 245.55
  Q 591.88 249.89 590.71 253.71
  Q 585.68 270.15 566.75 269.50
  Q 559.63 269.26 554.02 264.46
  Z
  M 562.70 261.80
  Q 566.51 263.53 571.25 263.00
  Q 579.89 262.03 582.66 254.22
  Q 585.22 246.98 583.85 239.83
  Q 582.59 233.32 578.62 229.82
  Q 573.79 225.55 566.50 227.00
  Q 556.98 228.90 554.69 237.54
  Q 553.46 242.16 553.61 247.00
  Q 553.77 252.10 556.55 256.33
  Q 559.06 260.15 562.70 261.80
  Z"
/>
<path fill="#ffffff" d="
  M 667.30 267.14
  A 0.92 0.89 -78.9 0 1 666.75 266.30
  L 666.75 259.75
  Q 666.75 258.57 667.67 259.30
  Q 674.10 264.38 681.73 262.96
  Q 685.34 262.29 686.82 260.03
  Q 688.69 257.14 686.75 253.25
  Q 685.88 251.51 681.67 249.59
  Q 678.19 248.00 674.86 246.13
  Q 670.62 243.75 668.96 241.40
  Q 666.76 238.26 666.80 234.31
  Q 666.84 230.68 668.76 227.49
  Q 672.05 222.04 679.01 220.80
  Q 686.08 219.53 692.60 222.24
  A 0.86 0.67 13.9 0 1 693.13 222.92
  L 693.07 229.26
  A 0.34 0.30 16.2 0 1 692.57 229.50
  Q 689.87 227.93 686.00 227.00
  Q 681.70 225.96 678.32 227.74
  Q 675.26 229.34 674.54 232.38
  Q 673.92 234.96 675.57 237.16
  Q 676.60 238.53 679.19 239.98
  Q 682.59 241.87 687.44 244.06
  Q 691.09 245.72 693.30 248.97
  Q 695.34 251.98 695.33 255.95
  Q 695.33 262.50 690.54 266.06
  Q 686.17 269.32 679.28 269.53
  Q 673.25 269.72 667.30 267.14
  Z"
/>
<path fill="#ffffff" d="
  M 806.60 264.91
  Q 800.53 259.89 798.92 252.38
  Q 798.47 250.28 798.52 247.09
  Q 798.57 244.43 798.71 241.76
  Q 799.25 231.49 806.56 225.31
  Q 812.03 220.69 819.99 220.27
  Q 838.56 219.29 843.50 236.75
  Q 844.71 241.01 844.29 246.75
  Q 843.91 252.12 842.02 256.38
  Q 835.50 271.08 817.25 269.25
  Q 811.11 268.63 806.60 264.91
  Z
  M 812.23 260.00
  Q 817.51 264.12 824.25 262.97
  Q 833.23 261.44 835.60 252.66
  Q 837.71 244.84 835.94 238.06
  Q 833.71 229.53 826.45 227.42
  Q 819.81 225.49 813.84 228.81
  Q 807.47 232.36 806.38 241.02
  Q 805.86 245.13 806.30 249.24
  Q 807.01 255.93 812.23 260.00
  Z"
/>
<path fill="#ffffff" d="
  M 862.24 229.71
  Q 862.49 231.29 862.99 229.77
  Q 864.66 224.78 869.14 222.11
  Q 873.70 219.40 878.60 221.25
  A 0.82 0.67 12.3 0 1 879.13 221.92
  L 879.07 228.26
  A 0.40 0.35 11.4 0 1 878.53 228.57
  Q 870.22 225.43 865.46 232.15
  Q 864.67 233.27 863.95 235.11
  Q 863.54 236.15 863.15 237.19
  Q 862.75 238.25 862.66 239.37
  Q 861.51 253.51 862.16 267.69
  A 0.50 0.46 89.3 0 1 861.69 268.22
  L 855.24 268.06
  A 0.56 0.50 -89.5 0 1 854.75 267.50
  L 854.94 221.94
  A 0.64 0.62 89.5 0 1 855.55 221.30
  L 860.94 221.25
  A 1.14 1.11 -88.3 0 1 862.05 222.46
  Q 861.77 226.74 862.24 229.71
  Z"
/>
<path fill="#ffffff" d="
  M 891.06 247.56
  Q 891.15 257.89 899.01 261.63
  Q 903.88 263.95 909.75 263.01
  Q 915.43 262.11 920.06 258.40
  Q 920.75 257.85 920.75 258.73
  L 920.75 264.73
  A 0.87 0.86 -15.0 0 1 920.31 265.48
  Q 912.19 270.03 903.24 269.65
  Q 890.06 269.07 885.31 257.44
  Q 882.12 249.62 883.54 240.26
  Q 884.58 233.38 888.65 228.27
  Q 892.28 223.70 897.47 221.69
  Q 902.96 219.56 908.89 220.77
  Q 913.58 221.73 917.02 224.35
  Q 921.00 227.39 922.31 231.94
  Q 924.12 238.19 924.05 245.94
  A 0.82 0.81 -0.4 0 1 923.24 246.75
  L 891.56 247.05
  A 0.51 0.51 -0.6 0 0 891.06 247.56
  Z
  M 894.22 232.46
  Q 892.12 235.39 891.28 239.74
  A 0.43 0.43 -84.9 0 0 891.70 240.25
  L 915.69 240.19
  A 0.51 0.51 -89.4 0 0 916.20 239.69
  Q 916.32 233.63 912.60 230.05
  Q 908.84 226.43 903.47 226.87
  Q 897.92 227.32 894.22 232.46
  Z"
/>
<rect fill="#ffffff" x="422.49" y="221.47" width="7.50" height="46.78" rx="0.28"/>
<path fill="#ffffff" d="
  M 644.19 260.21
  L 654.25 222.70
  A 1.98 1.83 6.4 0 1 656.09 221.34
  L 660.48 221.24
  A 1.15 1.12 7.5 0 1 661.62 222.68
  L 648.08 267.72
  A 0.67 0.67 8.1 0 1 647.44 268.20
  L 640.45 268.24
  A 0.68 0.67 82.0 0 1 639.80 267.74
  Q 635.35 251.21 630.51 235.25
  Q 630.14 234.01 630.03 232.73
  A 0.65 0.33 82.9 0 0 629.59 232.07
  Q 629.34 232.15 629.17 232.73
  Q 623.85 250.20 618.22 267.58
  A 0.77 0.69 -80.4 0 1 617.56 268.11
  L 611.06 268.22
  A 0.70 0.64 80.6 0 1 610.42 267.71
  L 596.70 222.33
  A 0.84 0.84 -8.4 0 1 597.51 221.25
  L 603.72 221.25
  A 0.66 0.66 -7.4 0 1 604.36 221.74
  L 614.68 259.71
  Q 614.81 260.18 614.96 259.70
  L 626.54 222.16
  A 0.92 0.91 -88.7 0 1 627.17 221.55
  Q 630.04 220.81 632.94 221.44
  A 0.87 0.85 88.2 0 1 633.58 222.05
  L 643.94 260.21
  Q 644.07 260.67 644.19 260.21
  Z"
/>
<path fill="#030303" d="
  M 505.71 260.53
  Q 502.47 258.20 501.05 254.44
  Q 499.56 250.46 499.48 246.33
  Q 499.41 242.04 500.40 238.23
  Q 502.11 231.70 507.81 228.31
  Q 513.29 225.06 519.94 228.06
  Q 524.97 230.33 526.81 235.59
  Q 527.47 237.49 527.52 240.99
  Q 527.55 243.74 527.66 246.49
  Q 527.97 254.15 523.21 258.97
  Q 519.67 262.55 515.13 263.14
  Q 510.21 263.78 505.71 260.53
  Z"
/>
<path fill="#030303" d="
  M 556.55 256.33
  Q 553.77 252.10 553.61 247.00
  Q 553.46 242.16 554.69 237.54
  Q 556.98 228.90 566.50 227.00
  Q 573.79 225.55 578.62 229.82
  Q 582.59 233.32 583.85 239.83
  Q 585.22 246.98 582.66 254.22
  Q 579.89 262.03 571.25 263.00
  Q 566.51 263.53 562.70 261.80
  Q 559.06 260.15 556.55 256.33
  Z"
/>
<path fill="#030303" d="
  M 812.23 260.00
  Q 807.01 255.93 806.30 249.24
  Q 805.86 245.13 806.38 241.02
  Q 807.47 232.36 813.84 228.81
  Q 819.81 225.49 826.45 227.42
  Q 833.71 229.53 835.94 238.06
  Q 837.71 244.84 835.60 252.66
  Q 833.23 261.44 824.25 262.97
  Q 817.51 264.12 812.23 260.00
  Z"
/>
<path fill="#030303" d="
  M 894.22 232.46
  Q 897.92 227.32 903.47 226.87
  Q 908.84 226.43 912.60 230.05
  Q 916.32 233.63 916.20 239.69
  A 0.51 0.51 -89.4 0 1 915.69 240.19
  L 891.70 240.25
  A 0.43 0.43 -84.9 0 1 891.28 239.74
  Q 892.12 235.39 894.22 232.46
  Z"
/>
</svg>
