<?xml version="1.0" encoding="UTF-8" standalone="no"?>
<!DOCTYPE svg PUBLIC "-//W3C//DTD SVG 1.1//EN" "http://www.w3.org/Graphics/SVG/1.1/DTD/svg11.dtd">
<svg xmlns="http://www.w3.org/2000/svg" version="1.1" viewBox="0 0 21 20">
<path fill="#1ca8c1" fill-opacity="0.996" d="
  M 8.81 0.00
  L 12.06 0.00
  L 15.24 1.09
  A 0.84 0.82 -82.5 0 1 15.78 1.81
  Q 15.84 2.85 14.41 2.40
  Q 6.23 -0.18 2.86 5.85
  Q 1.00 9.17 1.95 12.52
  Q 3.02 16.32 7.06 17.94
  Q 10.79 19.43 14.14 17.98
  Q 17.39 16.57 18.79 13.42
  Q 20.35 9.89 18.43 5.80
  Q 17.87 4.60 17.16 5.73
  L 11.05 15.58
  A 0.78 0.77 43.7 0 1 9.75 15.60
  Q 7.94 12.94 6.09 10.17
  Q 4.87 8.36 6.69 8.89
  Q 7.17 9.03 7.52 9.46
  Q 8.85 11.09 9.74 12.45
  A 0.81 0.80 -45.6 0 0 11.09 12.43
  L 17.00 3.15
  A 0.63 0.62 36.5 0 1 17.93 3.02
  Q 20.36 5.07 21.00 8.56
  L 21.00 11.81
  Q 19.17 18.45 12.44 20.00
  L 8.69 20.00
  Q 1.57 18.34 0.00 11.19
  L 0.00 8.69
  Q 1.74 1.65 8.81 0.00
  Z"
/>
</svg>
