<?xml version="1.0" encoding="UTF-8" standalone="no"?>
<!DOCTYPE svg PUBLIC "-//W3C//DTD SVG 1.1//EN" "http://www.w3.org/Graphics/SVG/1.1/DTD/svg11.dtd">
<svg xmlns="http://www.w3.org/2000/svg" version="1.1" viewBox="0 0 21 20">
<path fill="#fd5351" fill-opacity="0.992" d="
  M 9.06 0.00
  L 12.06 0.00
  L 14.97 0.90
  A 1.02 0.90 2.3 0 1 15.62 1.52
  Q 16.01 2.82 13.94 2.06
  Q 8.84 0.21 5.14 3.20
  Q 2.06 5.69 1.57 9.43
  Q 1.01 13.71 5.00 16.75
  Q 8.04 19.06 11.59 18.59
  Q 14.89 18.14 17.26 15.71
  Q 21.02 11.85 18.43 5.80
  Q 17.93 4.62 17.22 5.72
  L 10.67 15.82
  A 0.42 0.42 43.7 0 1 9.98 15.83
  Q 8.06 13.17 6.02 10.43
  Q 4.67 8.61 6.40 8.93
  Q 6.92 9.03 7.33 9.44
  Q 8.80 10.88 9.81 12.67
  A 0.65 0.65 46.4 0 0 10.93 12.70
  L 16.80 3.24
  A 0.91 0.91 -49.6 0 1 18.26 3.12
  Q 20.24 5.44 21.00 8.31
  L 21.00 11.81
  Q 19.18 18.48 12.44 20.00
  L 8.69 20.00
  Q 1.61 18.31 0.00 11.19
  L 0.00 8.94
  Q 1.62 1.54 9.06 0.00
  Z"
/>
</svg>
